M48
; DRILL file {KiCad (6.0.2)} date Mon Apr 25 16:03:35 2022
; FORMAT={-:-/ absolute / inch / decimal}
; #@! TF.CreationDate,2022-04-25T16:03:35-04:00
; #@! TF.GenerationSoftware,Kicad,Pcbnew,(6.0.2)
; #@! TF.FileFunction,Plated,1,2,PTH
FMAT,2
INCH
; #@! TA.AperFunction,Plated,PTH,ViaDrill
T1C0.0157
; #@! TA.AperFunction,Plated,PTH,ComponentDrill
T2C0.0276
; #@! TA.AperFunction,Plated,PTH,ComponentDrill
T3C0.0315
; #@! TA.AperFunction,Plated,PTH,ComponentDrill
T4C0.0320
; #@! TA.AperFunction,Plated,PTH,ComponentDrill
T5C0.0394
; #@! TA.AperFunction,Plated,PTH,ComponentDrill
T6C0.0394
; #@! TA.AperFunction,Plated,PTH,ComponentDrill
T7C0.0400
; #@! TA.AperFunction,Plated,PTH,ComponentDrill
T8C0.1200
%
G90
G05
T1
X1.622Y-3.996
X1.662Y-3.9
X1.708Y-3.802
X1.738Y-3.7
X1.788Y-4.302
X1.85Y-4.408
X1.89Y-4.384
X1.912Y-4.648
X1.928Y-4.5
X1.956Y-3.402
X1.976Y-4.148
X2.354Y-3.896
X2.358Y-4.572
X2.38Y-4.094
X2.41Y-4.194
X2.41Y-4.396
X2.432Y-2.244
X2.442Y-4.464
X2.448Y-4.228
X2.476Y-2.306
X2.478Y-4.046
X2.482Y-4.546
X2.49Y-3.244
X2.5Y-3.336
X2.52Y-3.604
X2.522Y-4.746
X2.548Y-3.752
X2.556Y-4.7
X2.59Y-3.31
X2.594Y-4.748
X2.596Y-3.846
X2.706Y-3.552
X2.872Y-3.376
X2.954Y-3.536
X3.004Y-3.896
X3.284Y-2.712
X3.288Y-3.184
X3.326Y-2.35
X3.424Y-4.65
X3.474Y-4.554
X3.582Y-4.5
X3.594Y-3.904
X3.6394Y-2.0415
X3.746Y-3.598
X3.752Y-4.404
X3.764Y-4.11
X3.78Y-3.338
X3.792Y-3.748
X3.912Y-3.304
X3.994Y-3.664
X4.054Y-4.15
X4.058Y-3.912
X4.06Y-3.436
X4.062Y-4.558
X4.086Y-3.396
X4.086Y-4.446
X4.088Y-4.1
X4.092Y-4.0
X4.122Y-3.106
X4.162Y-2.902
X4.168Y-4.076
X4.198Y-3.354
X4.2Y-3.95
X4.21Y-4.702
X4.214Y-4.162
X4.258Y-3.54
X4.324Y-3.748
X4.358Y-2.678
X4.368Y-4.6
X4.4Y-4.496
X4.45Y-3.446
X4.454Y-3.346
X4.504Y-3.35
X4.538Y-2.99
X4.56Y-3.334
X4.59Y-3.9
X4.632Y-4.156
X4.656Y-3.8
X4.68Y-2.82
X4.702Y-2.376
X4.874Y-3.074
X4.92Y-3.196
X4.954Y-3.14
X5.104Y-2.834
X5.124Y-2.966
T2
X3.632Y-2.198
X3.7304Y-2.198
X4.8016Y-1.868
X4.9Y-1.868
T3
X1.49Y-2.85
X1.49Y-2.95
X1.49Y-3.05
X1.49Y-3.15
X1.49Y-3.25
X1.49Y-3.35
X1.49Y-3.45
X1.49Y-3.55
X1.49Y-3.65
X1.49Y-3.75
X1.49Y-3.85
X1.49Y-3.95
X1.49Y-4.05
X1.49Y-4.15
X1.49Y-4.25
X1.49Y-4.35
X1.49Y-4.45
X1.49Y-4.55
X1.49Y-4.65
X1.49Y-4.75
X2.09Y-2.85
X2.09Y-2.95
X2.09Y-3.05
X2.09Y-3.15
X2.09Y-3.25
X2.09Y-3.35
X2.09Y-3.45
X2.09Y-3.55
X2.09Y-3.65
X2.09Y-3.75
X2.09Y-3.85
X2.09Y-3.95
X2.09Y-4.05
X2.09Y-4.15
X2.09Y-4.25
X2.09Y-4.35
X2.09Y-4.45
X2.09Y-4.55
X2.09Y-4.65
X2.09Y-4.75
X2.274Y-3.446
X2.274Y-3.546
X2.274Y-3.646
X2.274Y-3.746
X2.274Y-3.846
X2.274Y-3.946
X2.274Y-4.046
X2.274Y-4.146
X2.274Y-4.246
X2.274Y-4.346
X2.274Y-4.446
X2.274Y-4.546
X2.274Y-4.646
X2.274Y-4.746
X2.29Y-2.478
X2.29Y-2.578
X2.29Y-2.678
X2.29Y-2.778
X2.29Y-2.878
X2.29Y-2.978
X2.29Y-3.078
X2.59Y-2.478
X2.59Y-2.578
X2.59Y-2.678
X2.59Y-2.778
X2.59Y-2.878
X2.59Y-2.978
X2.59Y-3.078
X2.85Y-2.474
X2.85Y-2.574
X2.85Y-2.674
X2.85Y-2.774
X2.85Y-2.874
X2.85Y-2.974
X2.85Y-3.074
X2.874Y-3.446
X2.874Y-3.546
X2.874Y-3.646
X2.874Y-3.746
X2.874Y-3.846
X2.874Y-3.946
X2.874Y-4.046
X2.874Y-4.146
X2.874Y-4.246
X2.874Y-4.346
X2.874Y-4.446
X2.874Y-4.546
X2.874Y-4.646
X2.874Y-4.746
X3.088Y-3.45
X3.088Y-3.55
X3.088Y-3.65
X3.088Y-3.75
X3.088Y-3.85
X3.088Y-3.95
X3.088Y-4.05
X3.088Y-4.15
X3.088Y-4.25
X3.088Y-4.35
X3.088Y-4.45
X3.088Y-4.55
X3.088Y-4.65
X3.088Y-4.75
X3.15Y-2.474
X3.15Y-2.574
X3.15Y-2.674
X3.15Y-2.774
X3.15Y-2.874
X3.15Y-2.974
X3.15Y-3.074
X3.412Y-2.478
X3.412Y-2.578
X3.412Y-2.678
X3.412Y-2.778
X3.412Y-2.878
X3.412Y-2.978
X3.412Y-3.078
X3.412Y-3.178
X3.688Y-3.45
X3.688Y-3.55
X3.688Y-3.65
X3.688Y-3.75
X3.688Y-3.85
X3.688Y-3.95
X3.688Y-4.05
X3.688Y-4.15
X3.688Y-4.25
X3.688Y-4.35
X3.688Y-4.45
X3.688Y-4.55
X3.688Y-4.65
X3.688Y-4.75
X3.712Y-2.478
X3.712Y-2.578
X3.712Y-2.678
X3.712Y-2.778
X3.712Y-2.878
X3.712Y-2.978
X3.712Y-3.078
X3.712Y-3.178
X3.908Y-3.65
X3.908Y-3.75
X3.908Y-3.85
X3.908Y-3.95
X3.908Y-4.05
X3.908Y-4.15
X3.908Y-4.25
X3.908Y-4.35
X3.908Y-4.45
X3.908Y-4.55
X3.908Y-4.65
X3.908Y-4.75
X4.014Y-2.754
X4.014Y-2.854
X4.014Y-2.954
X4.014Y-3.054
X4.014Y-3.154
X4.014Y-3.254
X4.014Y-3.354
X4.314Y-2.754
X4.314Y-2.854
X4.314Y-2.954
X4.314Y-3.054
X4.314Y-3.154
X4.314Y-3.254
X4.314Y-3.354
X4.414Y-2.06
X4.414Y-2.1584
X4.418Y-2.36
X4.418Y-2.4584
X4.508Y-3.65
X4.508Y-3.75
X4.508Y-3.85
X4.508Y-3.95
X4.508Y-4.05
X4.508Y-4.15
X4.508Y-4.25
X4.508Y-4.35
X4.508Y-4.45
X4.508Y-4.55
X4.508Y-4.65
X4.508Y-4.75
X4.596Y-2.06
X4.596Y-2.16
X4.596Y-2.26
X4.596Y-2.36
X4.596Y-2.46
X4.596Y-2.56
X4.596Y-2.66
X4.596Y-2.76
X4.72Y-4.066
X4.72Y-4.166
X4.72Y-4.266
X4.72Y-4.366
X4.72Y-4.466
X4.72Y-4.566
X4.72Y-4.666
X4.73Y-3.05
X4.73Y-3.15
X4.73Y-3.25
X4.73Y-3.35
X4.73Y-3.45
X4.73Y-3.55
X4.73Y-3.65
X4.73Y-3.75
X4.896Y-2.06
X4.896Y-2.16
X4.896Y-2.26
X4.896Y-2.36
X4.896Y-2.46
X4.896Y-2.56
X4.896Y-2.66
X4.896Y-2.76
X5.02Y-4.066
X5.02Y-4.166
X5.02Y-4.266
X5.02Y-4.366
X5.02Y-4.466
X5.02Y-4.566
X5.02Y-4.666
X5.03Y-3.05
X5.03Y-3.15
X5.03Y-3.25
X5.03Y-3.35
X5.03Y-3.45
X5.03Y-3.55
X5.03Y-3.65
X5.03Y-3.75
X5.076Y-2.398
X5.076Y-2.4964
X5.086Y-1.9996
X5.086Y-2.098
T4
X1.406Y-1.968
X1.406Y-2.168
X1.706Y-1.968
X1.706Y-2.168
X2.05Y-2.346
X2.05Y-2.546
T5
X2.002Y-1.5438
X2.002Y-1.78
X2.1595Y-1.5438
X2.1595Y-1.78
T6
X1.682Y-1.61
X1.782Y-1.61
X1.824Y-2.02
X2.224Y-2.02
X2.31Y-2.168
X2.71Y-2.168
X3.04Y-2.056
X3.05Y-2.2
X3.44Y-2.056
X3.45Y-2.2
T7
X1.366Y-2.956
X1.366Y-3.056
X1.372Y-3.452
X1.372Y-3.552
X1.482Y-2.486
X1.482Y-2.586
X1.582Y-2.486
X1.582Y-2.586
X3.317Y-1.926
X3.372Y-1.826
X3.427Y-1.926
X3.482Y-1.826
X3.532Y-1.926
X3.587Y-1.826
X3.642Y-1.926
X3.697Y-1.826
X3.752Y-1.926
X4.342Y-1.71
X4.442Y-1.71
X4.542Y-1.71
X4.642Y-1.71
T8
X3.037Y-1.826
X4.037Y-1.826
T6
G00X2.367Y-1.7227
M15
G01X2.367Y-1.8014
M16
G05
G00X2.5913Y-1.6439
M15
G01X2.5126Y-1.6439
M16
G05
G00X2.5913Y-1.8801
M15
G01X2.5126Y-1.8801
M16
G05
T0
M30
