%TF.GenerationSoftware,KiCad,Pcbnew,(6.0.2)*%
%TF.CreationDate,2022-05-20T20:48:01-04:00*%
%TF.ProjectId,MicroUK101,4d696372-6f55-44b3-9130-312e6b696361,rev?*%
%TF.SameCoordinates,Original*%
%TF.FileFunction,Copper,L1,Top*%
%TF.FilePolarity,Positive*%
%FSLAX46Y46*%
G04 Gerber Fmt 4.6, Leading zero omitted, Abs format (unit mm)*
G04 Created by KiCad (PCBNEW (6.0.2)) date 2022-05-20 20:48:01*
%MOMM*%
%LPD*%
G01*
G04 APERTURE LIST*
%TA.AperFunction,ComponentPad*%
%ADD10R,1.200000X1.200000*%
%TD*%
%TA.AperFunction,ComponentPad*%
%ADD11C,1.200000*%
%TD*%
%TA.AperFunction,ComponentPad*%
%ADD12R,3.500120X3.500120*%
%TD*%
%TA.AperFunction,ComponentPad*%
%ADD13R,1.727200X1.727200*%
%TD*%
%TA.AperFunction,ComponentPad*%
%ADD14O,1.727200X1.727200*%
%TD*%
%TA.AperFunction,ComponentPad*%
%ADD15C,1.998980*%
%TD*%
%TA.AperFunction,ComponentPad*%
%ADD16C,1.397000*%
%TD*%
%TA.AperFunction,ComponentPad*%
%ADD17O,2.300000X1.600000*%
%TD*%
%TA.AperFunction,ComponentPad*%
%ADD18C,1.778000*%
%TD*%
%TA.AperFunction,ComponentPad*%
%ADD19R,2.000000X2.000000*%
%TD*%
%TA.AperFunction,ComponentPad*%
%ADD20C,2.000000*%
%TD*%
%TA.AperFunction,ComponentPad*%
%ADD21R,1.300000X1.300000*%
%TD*%
%TA.AperFunction,ComponentPad*%
%ADD22C,1.300000*%
%TD*%
%TA.AperFunction,ComponentPad*%
%ADD23C,1.700000*%
%TD*%
%TA.AperFunction,ComponentPad*%
%ADD24R,1.727200X2.032000*%
%TD*%
%TA.AperFunction,ComponentPad*%
%ADD25O,1.727200X2.032000*%
%TD*%
%TA.AperFunction,ComponentPad*%
%ADD26C,3.810000*%
%TD*%
%TA.AperFunction,ComponentPad*%
%ADD27R,1.524000X1.524000*%
%TD*%
%TA.AperFunction,ComponentPad*%
%ADD28C,1.524000*%
%TD*%
%TA.AperFunction,ViaPad*%
%ADD29C,0.600000*%
%TD*%
%TA.AperFunction,Conductor*%
%ADD30C,1.000000*%
%TD*%
%TA.AperFunction,Conductor*%
%ADD31C,0.250000*%
%TD*%
%TA.AperFunction,Conductor*%
%ADD32C,0.500000*%
%TD*%
G04 APERTURE END LIST*
D10*
%TO.P,C5,1*%
%TO.N,5V*%
X124460000Y-47447200D03*
D11*
%TO.P,C5,2*%
%TO.N,GND*%
X121960000Y-47447200D03*
%TD*%
D10*
%TO.P,C6,1*%
%TO.N,Net-(C6-Pad1)*%
X92252800Y-55829200D03*
D11*
%TO.P,C6,2*%
%TO.N,Net-(C6-Pad2)*%
X94752800Y-55829200D03*
%TD*%
D12*
%TO.P,CON1,1*%
%TO.N,Net-(CON1-Pad1)*%
X64820800Y-47754540D03*
%TO.P,CON1,2*%
%TO.N,Net-(CON1-Pad2)*%
X64820800Y-41755060D03*
%TO.P,CON1,3*%
%TO.N,unconnected-(CON1-Pad3)*%
X60121800Y-44754800D03*
%TD*%
D13*
%TO.P,P1,1,P1*%
%TO.N,CLOCK*%
X37642800Y-63144400D03*
D14*
%TO.P,P1,2,P2*%
%TO.N,2MHz*%
X40182800Y-63144400D03*
%TO.P,P1,3,P3*%
%TO.N,CLOCK*%
X37642800Y-65684400D03*
%TO.P,P1,4,P4*%
%TO.N,1MHz*%
X40182800Y-65684400D03*
%TD*%
D15*
%TO.P,R1,1*%
%TO.N,5V*%
X68834000Y-55067200D03*
%TO.P,R1,2*%
%TO.N,RESET*%
X58674000Y-55067200D03*
%TD*%
%TO.P,R2,1*%
%TO.N,Net-(C6-Pad2)*%
X87376000Y-52222400D03*
%TO.P,R2,2*%
%TO.N,Net-(R2-Pad2)*%
X77216000Y-52222400D03*
%TD*%
%TO.P,R3,1*%
%TO.N,Net-(R3-Pad1)*%
X77470000Y-55880000D03*
%TO.P,R3,2*%
%TO.N,Net-(C6-Pad1)*%
X87630000Y-55880000D03*
%TD*%
D16*
%TO.P,SW1,1,1*%
%TO.N,RESET*%
X35712400Y-55067200D03*
X43332400Y-55067200D03*
%TO.P,SW1,2,2*%
%TO.N,GND*%
X43332400Y-49987200D03*
X35712400Y-49987200D03*
%TD*%
D17*
%TO.P,U1,1,VSS*%
%TO.N,VSS*%
X37846000Y-72390000D03*
%TO.P,U1,2,RDY*%
%TO.N,5V*%
X37846000Y-74930000D03*
%TO.P,U1,3,01*%
%TO.N,unconnected-(U1-Pad3)*%
X37846000Y-77470000D03*
%TO.P,U1,4,~{IRQ}*%
%TO.N,~{IRQ}*%
X37846000Y-80010000D03*
%TO.P,U1,5,NC*%
%TO.N,unconnected-(U1-Pad5)*%
X37846000Y-82550000D03*
%TO.P,U1,6,~{NMI}*%
%TO.N,~{NMI}*%
X37846000Y-85090000D03*
%TO.P,U1,7,SYNC*%
%TO.N,unconnected-(U1-Pad7)*%
X37846000Y-87630000D03*
%TO.P,U1,8,Vcc*%
%TO.N,5V*%
X37846000Y-90170000D03*
%TO.P,U1,9,A0*%
%TO.N,A0*%
X37846000Y-92710000D03*
%TO.P,U1,10,A1*%
%TO.N,A1*%
X37846000Y-95250000D03*
%TO.P,U1,11,A2*%
%TO.N,A2*%
X37846000Y-97790000D03*
%TO.P,U1,12,A3*%
%TO.N,A3*%
X37846000Y-100330000D03*
%TO.P,U1,13,A4*%
%TO.N,A4*%
X37846000Y-102870000D03*
%TO.P,U1,14,A5*%
%TO.N,A5*%
X37846000Y-105410000D03*
%TO.P,U1,15,A6*%
%TO.N,A6*%
X37846000Y-107950000D03*
%TO.P,U1,16,A7*%
%TO.N,A7*%
X37846000Y-110490000D03*
%TO.P,U1,17,A8*%
%TO.N,A8*%
X37846000Y-113030000D03*
%TO.P,U1,18,A9*%
%TO.N,A9*%
X37846000Y-115570000D03*
%TO.P,U1,19,A10*%
%TO.N,A10*%
X37846000Y-118110000D03*
%TO.P,U1,20,A11*%
%TO.N,A11*%
X37846000Y-120650000D03*
%TO.P,U1,21,GND*%
%TO.N,GND*%
X53086000Y-120650000D03*
%TO.P,U1,22,A12*%
%TO.N,A12*%
X53086000Y-118110000D03*
%TO.P,U1,23,A13*%
%TO.N,A13*%
X53086000Y-115570000D03*
%TO.P,U1,24,A14*%
%TO.N,A14*%
X53086000Y-113030000D03*
%TO.P,U1,25,A15*%
%TO.N,A15*%
X53086000Y-110490000D03*
%TO.P,U1,26,D7*%
%TO.N,D7*%
X53086000Y-107950000D03*
%TO.P,U1,27,D6*%
%TO.N,D6*%
X53086000Y-105410000D03*
%TO.P,U1,28,D5*%
%TO.N,D5*%
X53086000Y-102870000D03*
%TO.P,U1,29,D4*%
%TO.N,D4*%
X53086000Y-100330000D03*
%TO.P,U1,30,D3*%
%TO.N,D3*%
X53086000Y-97790000D03*
%TO.P,U1,31,D2*%
%TO.N,D2*%
X53086000Y-95250000D03*
%TO.P,U1,32,D1*%
%TO.N,D1*%
X53086000Y-92710000D03*
%TO.P,U1,33,D0*%
%TO.N,D0*%
X53086000Y-90170000D03*
%TO.P,U1,34,R/~{W}*%
%TO.N,R{slash}~{W}*%
X53086000Y-87630000D03*
%TO.P,U1,35,NC*%
%TO.N,unconnected-(U1-Pad35)*%
X53086000Y-85090000D03*
%TO.P,U1,36,NC*%
%TO.N,unconnected-(U1-Pad36)*%
X53086000Y-82550000D03*
%TO.P,U1,37,00*%
%TO.N,CLOCK*%
X53086000Y-80010000D03*
%TO.P,U1,38,SO*%
%TO.N,unconnected-(U1-Pad38)*%
X53086000Y-77470000D03*
%TO.P,U1,39,02*%
%TO.N,Phi2*%
X53086000Y-74930000D03*
%TO.P,U1,40,~{RESET}*%
%TO.N,RESET*%
X53086000Y-72390000D03*
%TD*%
%TO.P,U4,1,C1+*%
%TO.N,Net-(C1-Pad1)*%
X116738400Y-52324000D03*
%TO.P,U4,2,V+*%
%TO.N,Net-(C3-Pad1)*%
X116738400Y-54864000D03*
%TO.P,U4,3,C1-*%
%TO.N,Net-(C1-Pad2)*%
X116738400Y-57404000D03*
%TO.P,U4,4,C2+*%
%TO.N,Net-(C2-Pad1)*%
X116738400Y-59944000D03*
%TO.P,U4,5,C2-*%
%TO.N,Net-(C2-Pad2)*%
X116738400Y-62484000D03*
%TO.P,U4,6,V-*%
%TO.N,Net-(C4-Pad2)*%
X116738400Y-65024000D03*
%TO.P,U4,7,T2OUT*%
%TO.N,unconnected-(U4-Pad7)*%
X116738400Y-67564000D03*
%TO.P,U4,8,R2IN*%
%TO.N,unconnected-(U4-Pad8)*%
X116738400Y-70104000D03*
%TO.P,U4,9,R2OUT*%
%TO.N,unconnected-(U4-Pad9)*%
X124358400Y-70104000D03*
%TO.P,U4,10,T2IN*%
%TO.N,unconnected-(U4-Pad10)*%
X124358400Y-67564000D03*
%TO.P,U4,11,T1IN*%
%TO.N,TTL_Tx*%
X124358400Y-65024000D03*
%TO.P,U4,12,R1OUT*%
%TO.N,TTL_Rx*%
X124358400Y-62484000D03*
%TO.P,U4,13,R1IN*%
%TO.N,Rx*%
X124358400Y-59944000D03*
%TO.P,U4,14,T1OUT*%
%TO.N,Tx*%
X124358400Y-57404000D03*
%TO.P,U4,15,GND*%
%TO.N,GND*%
X124358400Y-54864000D03*
%TO.P,U4,16,VCC*%
%TO.N,5V*%
X124358400Y-52324000D03*
%TD*%
%TO.P,U6,1*%
%TO.N,Net-(R2-Pad2)*%
X58166000Y-62941200D03*
%TO.P,U6,2*%
%TO.N,Net-(C6-Pad2)*%
X58166000Y-65481200D03*
%TO.P,U6,3*%
%TO.N,Net-(C6-Pad1)*%
X58166000Y-68021200D03*
%TO.P,U6,4*%
%TO.N,Net-(R3-Pad1)*%
X58166000Y-70561200D03*
%TO.P,U6,5*%
X58166000Y-73101200D03*
%TO.P,U6,6*%
%TO.N,4MHz*%
X58166000Y-75641200D03*
%TO.P,U6,7,GND*%
%TO.N,GND*%
X58166000Y-78181200D03*
%TO.P,U6,8*%
%TO.N,Net-(U11-Pad2)*%
X65786000Y-78181200D03*
%TO.P,U6,9*%
%TO.N,A11*%
X65786000Y-75641200D03*
%TO.P,U6,10*%
%TO.N,CS_ACIA*%
X65786000Y-73101200D03*
%TO.P,U6,11*%
%TO.N,Fxxx*%
X65786000Y-70561200D03*
%TO.P,U6,12*%
%TO.N,Net-(U10-Pad4)*%
X65786000Y-68021200D03*
%TO.P,U6,13*%
%TO.N,R{slash}~{W}*%
X65786000Y-65481200D03*
%TO.P,U6,14,VCC*%
%TO.N,5V*%
X65786000Y-62941200D03*
%TD*%
%TO.P,U7,1,~{MR}*%
%TO.N,Net-(U10-Pad11)*%
X86664800Y-62941200D03*
%TO.P,U7,2,Cp*%
%TO.N,4MHz*%
X86664800Y-65481200D03*
%TO.P,U7,3,P0*%
%TO.N,GND*%
X86664800Y-68021200D03*
%TO.P,U7,4,P1*%
X86664800Y-70561200D03*
%TO.P,U7,5,P2*%
X86664800Y-73101200D03*
%TO.P,U7,6,P3*%
X86664800Y-75641200D03*
%TO.P,U7,7,Cep*%
%TO.N,5V*%
X86664800Y-78181200D03*
%TO.P,U7,8,GND*%
%TO.N,GND*%
X86664800Y-80721200D03*
%TO.P,U7,9,~{Pe}*%
%TO.N,5V*%
X94284800Y-80721200D03*
%TO.P,U7,10,Cet*%
X94284800Y-78181200D03*
%TO.P,U7,11,Q3*%
%TO.N,BAUDCLK*%
X94284800Y-75641200D03*
%TO.P,U7,12,Q2*%
%TO.N,Net-(U10-Pad12)*%
X94284800Y-73101200D03*
%TO.P,U7,13,Q1*%
%TO.N,unconnected-(U7-Pad13)*%
X94284800Y-70561200D03*
%TO.P,U7,14,Q0*%
%TO.N,unconnected-(U7-Pad14)*%
X94284800Y-68021200D03*
%TO.P,U7,15,Tc*%
%TO.N,unconnected-(U7-Pad15)*%
X94284800Y-65481200D03*
%TO.P,U7,16,VCC*%
%TO.N,5V*%
X94284800Y-62941200D03*
%TD*%
%TO.P,U8,1,Cd*%
%TO.N,5V*%
X72390000Y-62839600D03*
%TO.P,U8,2,D*%
%TO.N,2MHz*%
X72390000Y-65379600D03*
%TO.P,U8,3,Cp*%
%TO.N,4MHz*%
X72390000Y-67919600D03*
%TO.P,U8,4,Sd*%
%TO.N,5V*%
X72390000Y-70459600D03*
%TO.P,U8,5,Q*%
%TO.N,unconnected-(U8-Pad5)*%
X72390000Y-72999600D03*
%TO.P,U8,6,~{Q}*%
%TO.N,2MHz*%
X72390000Y-75539600D03*
%TO.P,U8,7,GND*%
%TO.N,GND*%
X72390000Y-78079600D03*
%TO.P,U8,8,~{Q}*%
%TO.N,1MHz*%
X80010000Y-78079600D03*
%TO.P,U8,9,Q*%
%TO.N,unconnected-(U8-Pad9)*%
X80010000Y-75539600D03*
%TO.P,U8,10,Sd*%
%TO.N,5V*%
X80010000Y-72999600D03*
%TO.P,U8,11,Cp*%
%TO.N,2MHz*%
X80010000Y-70459600D03*
%TO.P,U8,12,D*%
%TO.N,1MHz*%
X80010000Y-67919600D03*
%TO.P,U8,13,Cd*%
%TO.N,5V*%
X80010000Y-65379600D03*
%TO.P,U8,14,VCC*%
X80010000Y-62839600D03*
%TD*%
%TO.P,U9,1,A0*%
%TO.N,A12*%
X120142000Y-77470000D03*
%TO.P,U9,2,A1*%
%TO.N,A13*%
X120142000Y-80010000D03*
%TO.P,U9,3,A2*%
%TO.N,A14*%
X120142000Y-82550000D03*
%TO.P,U9,4,E1*%
%TO.N,GND*%
X120142000Y-85090000D03*
%TO.P,U9,5,E2*%
X120142000Y-87630000D03*
%TO.P,U9,6,E3*%
%TO.N,A15*%
X120142000Y-90170000D03*
%TO.P,U9,7,O7*%
%TO.N,Fxxx*%
X120142000Y-92710000D03*
%TO.P,U9,8,GND*%
%TO.N,GND*%
X120142000Y-95250000D03*
%TO.P,U9,9,O6*%
%TO.N,Exxx*%
X127762000Y-95250000D03*
%TO.P,U9,10,O5*%
%TO.N,Dxxx*%
X127762000Y-92710000D03*
%TO.P,U9,11,O4*%
%TO.N,Cxxx*%
X127762000Y-90170000D03*
%TO.P,U9,12,O3*%
%TO.N,Bxxx*%
X127762000Y-87630000D03*
%TO.P,U9,13,O2*%
%TO.N,Axxx*%
X127762000Y-85090000D03*
%TO.P,U9,14,O1*%
%TO.N,9xxx*%
X127762000Y-82550000D03*
%TO.P,U9,15,O0*%
%TO.N,8xxx*%
X127762000Y-80010000D03*
%TO.P,U9,16,VCC*%
%TO.N,5V*%
X127762000Y-77470000D03*
%TD*%
%TO.P,U10,1*%
%TO.N,Axxx*%
X101955600Y-69951600D03*
%TO.P,U10,2*%
%TO.N,Bxxx*%
X101955600Y-72491600D03*
%TO.P,U10,3*%
%TO.N,Net-(U10-Pad3)*%
X101955600Y-75031600D03*
%TO.P,U10,4*%
%TO.N,Net-(U10-Pad4)*%
X101955600Y-77571600D03*
%TO.P,U10,5*%
%TO.N,Phi2*%
X101955600Y-80111600D03*
%TO.P,U10,6*%
%TO.N,~{WRITE}*%
X101955600Y-82651600D03*
%TO.P,U10,7,GND*%
%TO.N,GND*%
X101955600Y-85191600D03*
%TO.P,U10,8*%
%TO.N,~{READ}*%
X109575600Y-85191600D03*
%TO.P,U10,9*%
%TO.N,R{slash}~{W}*%
X109575600Y-82651600D03*
%TO.P,U10,10*%
%TO.N,Phi2*%
X109575600Y-80111600D03*
%TO.P,U10,11*%
%TO.N,Net-(U10-Pad11)*%
X109575600Y-77571600D03*
%TO.P,U10,12*%
%TO.N,Net-(U10-Pad12)*%
X109575600Y-75031600D03*
%TO.P,U10,13*%
%TO.N,BAUDCLK*%
X109575600Y-72491600D03*
%TO.P,U10,14,VCC*%
%TO.N,5V*%
X109575600Y-69951600D03*
%TD*%
%TO.P,U11,1*%
%TO.N,Net-(U11-Pad1)*%
X119888000Y-103276400D03*
%TO.P,U11,2*%
%TO.N,Net-(U11-Pad2)*%
X119888000Y-105816400D03*
%TO.P,U11,3*%
%TO.N,Fxxx*%
X119888000Y-108356400D03*
%TO.P,U11,4*%
%TO.N,CS_ROM*%
X119888000Y-110896400D03*
%TO.P,U11,5*%
%TO.N,Net-(U11-Pad1)*%
X119888000Y-113436400D03*
%TO.P,U11,6*%
%TO.N,Net-(U10-Pad3)*%
X119888000Y-115976400D03*
%TO.P,U11,7,GND*%
%TO.N,GND*%
X119888000Y-118516400D03*
%TO.P,U11,8*%
%TO.N,unconnected-(U11-Pad8)*%
X127508000Y-118516400D03*
%TO.P,U11,9*%
%TO.N,unconnected-(U11-Pad9)*%
X127508000Y-115976400D03*
%TO.P,U11,10*%
%TO.N,unconnected-(U11-Pad10)*%
X127508000Y-113436400D03*
%TO.P,U11,11*%
%TO.N,unconnected-(U11-Pad11)*%
X127508000Y-110896400D03*
%TO.P,U11,12*%
%TO.N,unconnected-(U11-Pad12)*%
X127508000Y-108356400D03*
%TO.P,U11,13*%
%TO.N,unconnected-(U11-Pad13)*%
X127508000Y-105816400D03*
%TO.P,U11,14,VCC*%
%TO.N,5V*%
X127508000Y-103276400D03*
%TD*%
D18*
%TO.P,X1,1,1*%
%TO.N,Net-(R2-Pad2)*%
X52070000Y-59588400D03*
%TO.P,X1,2,2*%
%TO.N,Net-(R3-Pad1)*%
X52070000Y-64668400D03*
%TD*%
D17*
%TO.P,U2,1,A14*%
%TO.N,A14*%
X57759600Y-87528400D03*
%TO.P,U2,2,A12*%
%TO.N,A12*%
X57759600Y-90068400D03*
%TO.P,U2,3,A7*%
%TO.N,A7*%
X57759600Y-92608400D03*
%TO.P,U2,4,A6*%
%TO.N,A6*%
X57759600Y-95148400D03*
%TO.P,U2,5,A5*%
%TO.N,A5*%
X57759600Y-97688400D03*
%TO.P,U2,6,A4*%
%TO.N,A4*%
X57759600Y-100228400D03*
%TO.P,U2,7,A3*%
%TO.N,A3*%
X57759600Y-102768400D03*
%TO.P,U2,8,A2*%
%TO.N,A2*%
X57759600Y-105308400D03*
%TO.P,U2,9,A1*%
%TO.N,A1*%
X57759600Y-107848400D03*
%TO.P,U2,10,A0*%
%TO.N,A0*%
X57759600Y-110388400D03*
%TO.P,U2,11,D0*%
%TO.N,D0*%
X57759600Y-112928400D03*
%TO.P,U2,12,D1*%
%TO.N,D1*%
X57759600Y-115468400D03*
%TO.P,U2,13,D2*%
%TO.N,D2*%
X57759600Y-118008400D03*
%TO.P,U2,14,GND*%
%TO.N,GND*%
X57759600Y-120548400D03*
%TO.P,U2,15,D3*%
%TO.N,D3*%
X72999600Y-120548400D03*
%TO.P,U2,16,D4*%
%TO.N,D4*%
X72999600Y-118008400D03*
%TO.P,U2,17,D5*%
%TO.N,D5*%
X72999600Y-115468400D03*
%TO.P,U2,18,D6*%
%TO.N,D6*%
X72999600Y-112928400D03*
%TO.P,U2,19,D7*%
%TO.N,D7*%
X72999600Y-110388400D03*
%TO.P,U2,20,~{CS}*%
%TO.N,A15*%
X72999600Y-107848400D03*
%TO.P,U2,21,A10*%
%TO.N,A10*%
X72999600Y-105308400D03*
%TO.P,U2,22,~{OE}*%
%TO.N,~{READ}*%
X72999600Y-102768400D03*
%TO.P,U2,23,A11*%
%TO.N,A11*%
X72999600Y-100228400D03*
%TO.P,U2,24,A9*%
%TO.N,A9*%
X72999600Y-97688400D03*
%TO.P,U2,25,A8*%
%TO.N,A8*%
X72999600Y-95148400D03*
%TO.P,U2,26,A13*%
%TO.N,A13*%
X72999600Y-92608400D03*
%TO.P,U2,27,~{WE}*%
%TO.N,~{WRITE}*%
X72999600Y-90068400D03*
%TO.P,U2,28,VCC*%
%TO.N,5V*%
X72999600Y-87528400D03*
%TD*%
%TO.P,U3,1,VPP*%
%TO.N,5V*%
X78435200Y-87630000D03*
%TO.P,U3,2,A12*%
%TO.N,A12*%
X78435200Y-90170000D03*
%TO.P,U3,3,A7*%
%TO.N,A7*%
X78435200Y-92710000D03*
%TO.P,U3,4,A6*%
%TO.N,A6*%
X78435200Y-95250000D03*
%TO.P,U3,5,A5*%
%TO.N,A5*%
X78435200Y-97790000D03*
%TO.P,U3,6,A4*%
%TO.N,A4*%
X78435200Y-100330000D03*
%TO.P,U3,7,A3*%
%TO.N,A3*%
X78435200Y-102870000D03*
%TO.P,U3,8,A2*%
%TO.N,A2*%
X78435200Y-105410000D03*
%TO.P,U3,9,A1*%
%TO.N,A1*%
X78435200Y-107950000D03*
%TO.P,U3,10,A0*%
%TO.N,A0*%
X78435200Y-110490000D03*
%TO.P,U3,11,D0*%
%TO.N,D0*%
X78435200Y-113030000D03*
%TO.P,U3,12,D1*%
%TO.N,D1*%
X78435200Y-115570000D03*
%TO.P,U3,13,D2*%
%TO.N,D2*%
X78435200Y-118110000D03*
%TO.P,U3,14,GND*%
%TO.N,GND*%
X78435200Y-120650000D03*
%TO.P,U3,15,D3*%
%TO.N,D3*%
X93675200Y-120650000D03*
%TO.P,U3,16,D4*%
%TO.N,D4*%
X93675200Y-118110000D03*
%TO.P,U3,17,D5*%
%TO.N,D5*%
X93675200Y-115570000D03*
%TO.P,U3,18,D6*%
%TO.N,D6*%
X93675200Y-113030000D03*
%TO.P,U3,19,D7*%
%TO.N,D7*%
X93675200Y-110490000D03*
%TO.P,U3,20,CE*%
%TO.N,CS_ROM*%
X93675200Y-107950000D03*
%TO.P,U3,21,A10*%
%TO.N,A10*%
X93675200Y-105410000D03*
%TO.P,U3,22,OE*%
%TO.N,~{READ}*%
X93675200Y-102870000D03*
%TO.P,U3,23,A11*%
%TO.N,A11*%
X93675200Y-100330000D03*
%TO.P,U3,24,A9*%
%TO.N,A9*%
X93675200Y-97790000D03*
%TO.P,U3,25,A8*%
%TO.N,A8*%
X93675200Y-95250000D03*
%TO.P,U3,26,A13*%
%TO.N,A13*%
X93675200Y-92710000D03*
%TO.P,U3,27,A14*%
%TO.N,A14*%
X93675200Y-90170000D03*
%TO.P,U3,28,VCC*%
%TO.N,5V*%
X93675200Y-87630000D03*
%TD*%
%TO.P,U5,1,GND*%
%TO.N,GND*%
X99263200Y-92710000D03*
%TO.P,U5,2,Rx*%
%TO.N,TTL_Rx*%
X99263200Y-95250000D03*
%TO.P,U5,3,RxClk*%
%TO.N,BAUDCLK*%
X99263200Y-97790000D03*
%TO.P,U5,4,TxClk*%
X99263200Y-100330000D03*
%TO.P,U5,5,~{RTS}*%
%TO.N,unconnected-(U5-Pad5)*%
X99263200Y-102870000D03*
%TO.P,U5,6,Tx*%
%TO.N,TTL_Tx*%
X99263200Y-105410000D03*
%TO.P,U5,7,~{IRQ}*%
%TO.N,unconnected-(U5-Pad7)*%
X99263200Y-107950000D03*
%TO.P,U5,8,CS0*%
%TO.N,CS_ACIA*%
X99263200Y-110490000D03*
%TO.P,U5,9,~{CS2}*%
%TO.N,A11*%
X99263200Y-113030000D03*
%TO.P,U5,10,CS1*%
%TO.N,5V*%
X99263200Y-115570000D03*
%TO.P,U5,11,RS*%
%TO.N,A0*%
X99263200Y-118110000D03*
%TO.P,U5,12,Vcc*%
%TO.N,5V*%
X99263200Y-120650000D03*
%TO.P,U5,13,R/~{W}*%
%TO.N,R{slash}~{W}*%
X114503200Y-120650000D03*
%TO.P,U5,14,E*%
%TO.N,Phi2*%
X114503200Y-118110000D03*
%TO.P,U5,15,D7*%
%TO.N,D7*%
X114503200Y-115570000D03*
%TO.P,U5,16,D6*%
%TO.N,D6*%
X114503200Y-113030000D03*
%TO.P,U5,17,D5*%
%TO.N,D5*%
X114503200Y-110490000D03*
%TO.P,U5,18,D4*%
%TO.N,D4*%
X114503200Y-107950000D03*
%TO.P,U5,19,D3*%
%TO.N,D3*%
X114503200Y-105410000D03*
%TO.P,U5,20,D2*%
%TO.N,D2*%
X114503200Y-102870000D03*
%TO.P,U5,21,D1*%
%TO.N,D1*%
X114503200Y-100330000D03*
%TO.P,U5,22,D0*%
%TO.N,D0*%
X114503200Y-97790000D03*
%TO.P,U5,23,~{DCD}*%
%TO.N,GND*%
X114503200Y-95250000D03*
%TO.P,U5,24,~{CTS}*%
X114503200Y-92710000D03*
%TD*%
D19*
%TO.P,D1,1,K*%
%TO.N,GND*%
X42722800Y-40894000D03*
D20*
%TO.P,D1,2,A*%
%TO.N,Net-(D1-Pad2)*%
X45262800Y-40894000D03*
%TD*%
D15*
%TO.P,R4,1*%
%TO.N,5V*%
X56489600Y-51308000D03*
%TO.P,R4,2*%
%TO.N,Net-(D1-Pad2)*%
X46329600Y-51308000D03*
%TD*%
D21*
%TO.P,C1,1*%
%TO.N,Net-(C1-Pad1)*%
X112115600Y-52324000D03*
D22*
%TO.P,C1,2*%
%TO.N,Net-(C1-Pad2)*%
X112115600Y-54824000D03*
%TD*%
D21*
%TO.P,C2,1*%
%TO.N,Net-(C2-Pad1)*%
X112217200Y-59944000D03*
D22*
%TO.P,C2,2*%
%TO.N,Net-(C2-Pad2)*%
X112217200Y-62444000D03*
%TD*%
D21*
%TO.P,C3,1*%
%TO.N,Net-(C3-Pad1)*%
X129184400Y-53289200D03*
D22*
%TO.P,C3,2*%
%TO.N,5V*%
X129184400Y-50789200D03*
%TD*%
D21*
%TO.P,C4,1*%
%TO.N,GND*%
X128930400Y-60909200D03*
D22*
%TO.P,C4,2*%
%TO.N,Net-(C4-Pad2)*%
X128930400Y-63409200D03*
%TD*%
D23*
%TO.P,SW2,1,1*%
%TO.N,GND*%
X50850800Y-45212000D03*
%TO.P,SW2,2,2*%
%TO.N,Net-(CON1-Pad2)*%
X50850800Y-39212000D03*
%TO.P,SW2,3,3*%
%TO.N,5V*%
X54850800Y-45212000D03*
%TO.P,SW2,4,4*%
%TO.N,Net-(CON1-Pad1)*%
X54850800Y-39212000D03*
%TD*%
D24*
%TO.P,P2,1,P1*%
%TO.N,5V*%
X110286800Y-43434000D03*
D25*
%TO.P,P2,2,P2*%
%TO.N,TTL_Rx*%
X112826800Y-43434000D03*
%TO.P,P2,3,P3*%
%TO.N,TTL_Tx*%
X115366800Y-43434000D03*
%TO.P,P2,4,P4*%
%TO.N,GND*%
X117906800Y-43434000D03*
%TD*%
D13*
%TO.P,P3,1,P1*%
%TO.N,5V*%
X34696400Y-75082400D03*
D14*
%TO.P,P3,2,P2*%
%TO.N,~{IRQ}*%
X34696400Y-77622400D03*
%TD*%
D13*
%TO.P,P4,1,P1*%
%TO.N,5V*%
X34848800Y-90220800D03*
D14*
%TO.P,P4,2,P2*%
%TO.N,~{NMI}*%
X34848800Y-87680800D03*
%TD*%
D26*
%TO.P,J1,*%
%TO.N,*%
X77139800Y-46380400D03*
X102539800Y-46380400D03*
D27*
%TO.P,J1,1,1*%
%TO.N,unconnected-(J1-Pad1)*%
X95300800Y-48920400D03*
D28*
%TO.P,J1,2,2*%
%TO.N,Rx*%
X92506800Y-48920400D03*
%TO.P,J1,3,3*%
%TO.N,Tx*%
X89712800Y-48920400D03*
%TO.P,J1,4,4*%
%TO.N,unconnected-(J1-Pad4)*%
X87045800Y-48920400D03*
%TO.P,J1,5,5*%
%TO.N,GND*%
X84251800Y-48920400D03*
%TO.P,J1,6,P6*%
%TO.N,unconnected-(J1-Pad6)*%
X93903800Y-46380400D03*
%TO.P,J1,7,P7*%
%TO.N,unconnected-(J1-Pad7)*%
X91109800Y-46380400D03*
%TO.P,J1,8,P8*%
%TO.N,unconnected-(J1-Pad8)*%
X88442800Y-46380400D03*
%TO.P,J1,9,P9*%
%TO.N,unconnected-(J1-Pad9)*%
X85648800Y-46380400D03*
%TD*%
D29*
%TO.N,Net-(C6-Pad1)*%
X61772800Y-56997600D03*
%TO.N,5V*%
X84480400Y-59690000D03*
%TO.N,GND*%
X83515200Y-80873600D03*
%TO.N,Rx*%
X92440800Y-51854400D03*
%TO.N,1MHz*%
X83413600Y-68884800D03*
%TO.N,Net-(R3-Pad1)*%
X62890400Y-58572400D03*
%TO.N,A0*%
X45415200Y-109270800D03*
X95300800Y-111861600D03*
%TO.N,A3*%
X50190400Y-105359200D03*
%TO.N,A4*%
X41198800Y-101498400D03*
%TO.N,A5*%
X42214800Y-99060000D03*
%TO.N,A6*%
X43383200Y-96570800D03*
%TO.N,A7*%
X44145200Y-93980000D03*
%TO.N,A10*%
X60452000Y-103987600D03*
X48564800Y-118059200D03*
%TO.N,A11*%
X103784400Y-112928400D03*
X103835200Y-104140000D03*
X95605600Y-104394000D03*
X76301600Y-98958400D03*
%TO.N,A12*%
X95148400Y-91389200D03*
X64058800Y-120548400D03*
X104698800Y-78892400D03*
X64008000Y-91541600D03*
%TO.N,A13*%
X113131600Y-84988400D03*
X108153200Y-89916000D03*
X101447600Y-93065600D03*
%TO.N,A14*%
X113030000Y-87528400D03*
X103124000Y-87274400D03*
X49682400Y-86410800D03*
X115824000Y-84683600D03*
X46990000Y-111963200D03*
%TO.N,A15*%
X62026800Y-113385600D03*
X62179200Y-107391200D03*
X117652800Y-105562400D03*
%TO.N,D7*%
X103174800Y-115773200D03*
%TO.N,D6*%
X61214000Y-106527600D03*
X61214000Y-111658400D03*
%TO.N,D5*%
X111760000Y-114198400D03*
X62941200Y-102768400D03*
X63042800Y-115468400D03*
%TO.N,D4*%
X110947200Y-116840000D03*
X59893200Y-116128800D03*
X59791600Y-98958400D03*
%TO.N,D3*%
X106934000Y-119430800D03*
X65938400Y-97688400D03*
X65887600Y-120599200D03*
X107035600Y-105714800D03*
%TO.N,D2*%
X86969600Y-118110000D03*
X105867200Y-103530400D03*
X64922400Y-119380000D03*
X64719200Y-95300800D03*
%TO.N,D1*%
X48971200Y-114300000D03*
X88239600Y-115671600D03*
X106680000Y-100330000D03*
%TO.N,D0*%
X91287600Y-99161600D03*
X90982800Y-114300000D03*
X48006000Y-111353600D03*
%TO.N,R{slash}~{W}*%
X68732400Y-90220800D03*
X99364800Y-83921600D03*
X63500000Y-84734400D03*
X96012000Y-84785200D03*
%TO.N,~{READ}*%
X106629200Y-85191600D03*
X103936800Y-101600000D03*
%TO.N,BAUDCLK*%
X105714800Y-73710800D03*
%TO.N,CS_ACIA*%
X96316800Y-95199200D03*
X72948800Y-85750400D03*
%TO.N,Net-(U11-Pad2)*%
X65786000Y-84074000D03*
X118262400Y-96520000D03*
%TO.N,Fxxx*%
X103784400Y-86258400D03*
%TO.N,Net-(U10-Pad4)*%
X63246000Y-82397600D03*
%TO.N,Bxxx*%
X130149600Y-75336400D03*
X110693200Y-68021200D03*
%TO.N,Axxx*%
X125831600Y-79756000D03*
X115265200Y-75946000D03*
%TO.N,Net-(U10-Pad3)*%
X129641600Y-71983600D03*
X118872000Y-71628000D03*
%TO.N,TTL_Rx*%
X119430800Y-60350400D03*
X114401600Y-85090000D03*
X109829600Y-95199200D03*
X124968000Y-81178400D03*
%TO.N,TTL_Tx*%
X116586000Y-99060000D03*
X102971600Y-105410000D03*
X103073200Y-99364800D03*
%TO.N,~{WRITE}*%
X75031600Y-89814400D03*
%TD*%
D30*
%TO.N,5V*%
X67360800Y-51308000D02*
X68834000Y-52781200D01*
X56489600Y-51308000D02*
X67360800Y-51308000D01*
D31*
%TO.N,A6*%
X45770800Y-96418400D02*
X43535600Y-96418400D01*
X43535600Y-96418400D02*
X43383200Y-96570800D01*
X45821600Y-96469200D02*
X45770800Y-96418400D01*
X54356000Y-96469200D02*
X45821600Y-96469200D01*
X57759600Y-95148400D02*
X55676800Y-95148400D01*
X55676800Y-95148400D02*
X54356000Y-96469200D01*
%TO.N,Rx*%
X105098800Y-61112400D02*
X103628800Y-59642400D01*
X117652800Y-61112400D02*
X105098800Y-61112400D01*
X119430800Y-59334400D02*
X117652800Y-61112400D01*
X119938800Y-59334400D02*
X119430800Y-59334400D01*
X120548400Y-59944000D02*
X119938800Y-59334400D01*
X124358400Y-59944000D02*
X120548400Y-59944000D01*
X103628800Y-59642400D02*
X95840800Y-51854400D01*
%TO.N,Tx*%
X104190800Y-58572400D02*
X104165400Y-58597800D01*
X118922800Y-58572400D02*
X104190800Y-58572400D01*
X120091200Y-57404000D02*
X118922800Y-58572400D01*
X124358400Y-57404000D02*
X120091200Y-57404000D01*
X104165400Y-58597800D02*
X97031400Y-51463800D01*
D30*
%TO.N,5V*%
X34899600Y-90170000D02*
X34848800Y-90220800D01*
X37846000Y-90170000D02*
X34899600Y-90170000D01*
X39319200Y-90170000D02*
X37846000Y-90170000D01*
X40284400Y-89204800D02*
X39319200Y-90170000D01*
X40284400Y-88239600D02*
X40284400Y-89204800D01*
X99263200Y-122174000D02*
X99263200Y-120650000D01*
D31*
%TO.N,Net-(C1-Pad1)*%
X112115600Y-52324000D02*
X116738400Y-52324000D01*
%TO.N,Net-(C1-Pad2)*%
X114695600Y-57404000D02*
X112115600Y-54824000D01*
X116738400Y-57404000D02*
X114695600Y-57404000D01*
%TO.N,Net-(C2-Pad1)*%
X116738400Y-59944000D02*
X112217200Y-59944000D01*
%TO.N,Net-(C2-Pad2)*%
X112257200Y-62484000D02*
X112217200Y-62444000D01*
X116738400Y-62484000D02*
X112257200Y-62484000D01*
%TO.N,Net-(C3-Pad1)*%
X126949200Y-53289200D02*
X126542800Y-53695600D01*
X126542800Y-53695600D02*
X121208800Y-53695600D01*
X121208800Y-53695600D02*
X120040400Y-54864000D01*
X120040400Y-54864000D02*
X116738400Y-54864000D01*
X129184400Y-53289200D02*
X126949200Y-53289200D01*
%TO.N,Net-(C4-Pad2)*%
X119684800Y-65024000D02*
X121056400Y-63652400D01*
X121056400Y-63652400D02*
X128687200Y-63652400D01*
X128687200Y-63652400D02*
X128930400Y-63409200D01*
X116738400Y-65024000D02*
X119684800Y-65024000D01*
%TO.N,Net-(C6-Pad1)*%
X87680800Y-55829200D02*
X87630000Y-55880000D01*
X85344000Y-55930800D02*
X87579200Y-55930800D01*
X87579200Y-55930800D02*
X87630000Y-55880000D01*
X79933800Y-50520600D02*
X85344000Y-55930800D01*
X75920600Y-50520600D02*
X73914000Y-52527200D01*
X73914000Y-52527200D02*
X73914000Y-54813200D01*
X73914000Y-54813200D02*
X71729600Y-56997600D01*
X71729600Y-56997600D02*
X61772800Y-56997600D01*
X79933800Y-50520600D02*
X75920600Y-50520600D01*
X92252800Y-55829200D02*
X87680800Y-55829200D01*
%TO.N,Net-(C6-Pad2)*%
X88747600Y-52222400D02*
X90271600Y-53746400D01*
X90271600Y-53746400D02*
X92670000Y-53746400D01*
X92670000Y-53746400D02*
X94752800Y-55829200D01*
X87376000Y-52222400D02*
X88747600Y-52222400D01*
D30*
%TO.N,5V*%
X125171200Y-52324000D02*
X126706000Y-50789200D01*
X126706000Y-50789200D02*
X129184400Y-50789200D01*
D31*
X124460000Y-52222400D02*
X124358400Y-52324000D01*
D30*
X56489600Y-46850800D02*
X54850800Y-45212000D01*
X131216400Y-100482400D02*
X131216400Y-78638400D01*
X131216400Y-78638400D02*
X130048000Y-77470000D01*
X130048000Y-77470000D02*
X127762000Y-77470000D01*
X129184400Y-50850800D02*
X131216400Y-52882800D01*
X131216400Y-52882800D02*
X131216400Y-78638400D01*
X126136400Y-77470000D02*
X122885200Y-74218800D01*
X122885200Y-74218800D02*
X115265200Y-74218800D01*
X112420400Y-71323200D02*
X111048800Y-69951600D01*
X109575600Y-69951600D02*
X111048800Y-69951600D01*
D31*
X73101200Y-87630000D02*
X72999600Y-87528400D01*
D30*
X90982800Y-59639200D02*
X94284800Y-62941200D01*
D31*
X34442400Y-53441600D02*
X34594800Y-53289200D01*
D30*
X34594800Y-53289200D02*
X54508400Y-53289200D01*
X54508400Y-53289200D02*
X56489600Y-51308000D01*
X34442400Y-53746400D02*
X33985200Y-54203600D01*
X33985200Y-54203600D02*
X33985200Y-57505600D01*
X102565200Y-62941200D02*
X109575600Y-69951600D01*
X56489600Y-47853600D02*
X56489600Y-46850800D01*
X84480400Y-59690000D02*
X84480400Y-59639200D01*
X84480400Y-59639200D02*
X90982800Y-59639200D01*
X131216400Y-117602000D02*
X125323600Y-123494800D01*
X125323600Y-123494800D02*
X100584000Y-123494800D01*
X100584000Y-123494800D02*
X99263200Y-122174000D01*
X131216400Y-103276400D02*
X131216400Y-117602000D01*
X34442400Y-57962800D02*
X33985200Y-57505600D01*
X124460000Y-45212000D02*
X120243600Y-40995600D01*
X120243600Y-40995600D02*
X110845600Y-40995600D01*
X110845600Y-40995600D02*
X110286800Y-41554400D01*
X110286800Y-41554400D02*
X110286800Y-43434000D01*
X40284400Y-88239600D02*
X40284400Y-73660000D01*
X40284400Y-71628000D02*
X38252400Y-69596000D01*
X38252400Y-69596000D02*
X35915600Y-69596000D01*
X35915600Y-69596000D02*
X34442400Y-68122800D01*
X34442400Y-68122800D02*
X34442400Y-57962800D01*
X39014400Y-74930000D02*
X40284400Y-73660000D01*
X40284400Y-73660000D02*
X40284400Y-71628000D01*
X37693600Y-75082400D02*
X37846000Y-74930000D01*
X114706400Y-73609200D02*
X114706400Y-73660000D01*
X114706400Y-73660000D02*
X115265200Y-74218800D01*
X115265200Y-74218800D02*
X115163600Y-74218800D01*
X75590400Y-40995600D02*
X110845600Y-40995600D01*
X124460000Y-47447200D02*
X124460000Y-52222400D01*
D31*
X129184400Y-50789200D02*
X129184400Y-50850800D01*
D30*
X94284800Y-62941200D02*
X102565200Y-62941200D01*
X72466200Y-44119800D02*
X75590400Y-40995600D01*
X94284800Y-78181200D02*
X86664800Y-78181200D01*
X127762000Y-77470000D02*
X126136400Y-77470000D01*
X68834000Y-55067200D02*
X68834000Y-52781200D01*
X72466200Y-49149000D02*
X72466200Y-44119800D01*
X78435200Y-87630000D02*
X73101200Y-87630000D01*
X56489600Y-51308000D02*
X56489600Y-47853600D01*
X127508000Y-103276400D02*
X131216400Y-103276400D01*
X124358400Y-52324000D02*
X125171200Y-52324000D01*
X69900800Y-51714400D02*
X72466200Y-49149000D01*
X78435200Y-87630000D02*
X93675200Y-87630000D01*
D31*
X109575600Y-69951600D02*
X102971600Y-63347600D01*
D30*
X94284800Y-80721200D02*
X94284800Y-78181200D01*
X37846000Y-74930000D02*
X39014400Y-74930000D01*
X34696400Y-75082400D02*
X37693600Y-75082400D01*
X112420400Y-71323200D02*
X114706400Y-73609200D01*
X124460000Y-47447200D02*
X124460000Y-45212000D01*
X131216400Y-100482400D02*
X131216400Y-103276400D01*
X68834000Y-52781200D02*
X69900800Y-51714400D01*
X34442400Y-53441600D02*
X34442400Y-53746400D01*
%TO.N,GND*%
X125374400Y-54864000D02*
X129032000Y-58521600D01*
X129032000Y-58521600D02*
X129032000Y-60807600D01*
D31*
X129032000Y-60807600D02*
X128930400Y-60909200D01*
D30*
X43332400Y-49987200D02*
X43332400Y-46380400D01*
X43332400Y-46380400D02*
X42722800Y-45770800D01*
X42722800Y-45770800D02*
X42722800Y-40894000D01*
X117297200Y-95250000D02*
X114503200Y-95250000D01*
X99263200Y-90932000D02*
X101600000Y-88595200D01*
D31*
X101600000Y-88595200D02*
X102158800Y-88595200D01*
D30*
X111404400Y-88595200D02*
X105359200Y-88595200D01*
X117144800Y-88595200D02*
X118110000Y-87630000D01*
X118110000Y-87630000D02*
X120142000Y-87630000D01*
X78435200Y-120954800D02*
X76149200Y-123240800D01*
X76149200Y-123240800D02*
X60452000Y-123240800D01*
X60452000Y-123240800D02*
X57759600Y-120548400D01*
X121869200Y-95250000D02*
X124612400Y-97536000D01*
X124612400Y-97536000D02*
X124612400Y-116687600D01*
X124612400Y-116687600D02*
X122021600Y-118516400D01*
X122021600Y-118516400D02*
X119888000Y-118516400D01*
X86664800Y-70561200D02*
X86664800Y-73101200D01*
X86664800Y-73101200D02*
X86664800Y-75641200D01*
X114503200Y-88595200D02*
X117144800Y-88595200D01*
D31*
X101955600Y-88392000D02*
X102158800Y-88595200D01*
D30*
X102158800Y-88595200D02*
X105359200Y-88595200D01*
X85750400Y-75641200D02*
X83616800Y-77774800D01*
X83616800Y-77774800D02*
X83616800Y-80924400D01*
D31*
X83820000Y-80721200D02*
X86664800Y-80721200D01*
X86487000Y-80899000D02*
X86664800Y-80721200D01*
D30*
X58166000Y-79298800D02*
X59766200Y-80899000D01*
X59766200Y-80899000D02*
X72821800Y-80899000D01*
D31*
X83515200Y-80873600D02*
X83515200Y-80899000D01*
D30*
X83515200Y-80899000D02*
X86487000Y-80899000D01*
D31*
X60655200Y-78181200D02*
X61925200Y-76911200D01*
X61925200Y-76911200D02*
X71221600Y-76911200D01*
X71221600Y-76911200D02*
X72390000Y-78079600D01*
D30*
X54152800Y-123240800D02*
X53086000Y-122174000D01*
X53086000Y-122174000D02*
X53086000Y-120650000D01*
X72821800Y-80899000D02*
X83515200Y-80899000D01*
X58166000Y-78181200D02*
X58166000Y-79298800D01*
D31*
X58166000Y-78181200D02*
X60655200Y-78181200D01*
D30*
X114503200Y-91643200D02*
X114503200Y-88595200D01*
X86664800Y-75641200D02*
X85750400Y-75641200D01*
X120142000Y-87630000D02*
X120142000Y-85090000D01*
D31*
X78435200Y-120650000D02*
X78435200Y-120954800D01*
D30*
X114503200Y-92710000D02*
X114503200Y-91643200D01*
X101955600Y-85191600D02*
X101955600Y-88392000D01*
X72390000Y-78079600D02*
X72390000Y-80467200D01*
X124358400Y-54864000D02*
X125374400Y-54864000D01*
X99263200Y-92710000D02*
X99263200Y-90932000D01*
X60452000Y-123240800D02*
X54152800Y-123240800D01*
X35712400Y-49987200D02*
X43332400Y-49987200D01*
X120142000Y-95250000D02*
X121869200Y-95250000D01*
X111404400Y-88595200D02*
X114503200Y-88595200D01*
X114503200Y-95250000D02*
X114503200Y-92710000D01*
X86664800Y-68021200D02*
X86664800Y-70561200D01*
X120142000Y-95250000D02*
X117297200Y-95250000D01*
D31*
%TO.N,Rx*%
X95840800Y-51854400D02*
X92440800Y-51854400D01*
%TO.N,Tx*%
X97031400Y-51463800D02*
X97028000Y-51460400D01*
X97031400Y-51445000D02*
X96440800Y-50854400D01*
X96440800Y-50854400D02*
X90440800Y-50854400D01*
X90440800Y-50854400D02*
X89712800Y-50126400D01*
X89712800Y-50126400D02*
X89712800Y-48920400D01*
X97031400Y-51463800D02*
X97031400Y-51445000D01*
%TO.N,CLOCK*%
X50393600Y-80010000D02*
X48971200Y-78587600D01*
X48971200Y-78587600D02*
X48971200Y-72694800D01*
X48971200Y-72694800D02*
X44297600Y-68021200D01*
X44297600Y-68021200D02*
X39471600Y-68021200D01*
X39471600Y-68021200D02*
X37642800Y-65684400D01*
X37642800Y-63144400D02*
X37642800Y-65684400D01*
X53086000Y-80010000D02*
X50393600Y-80010000D01*
%TO.N,2MHz*%
X49225200Y-63144400D02*
X49936400Y-62433200D01*
X49936400Y-62433200D02*
X53289200Y-62433200D01*
X53289200Y-62433200D02*
X55067200Y-64211200D01*
X55067200Y-64211200D02*
X71221600Y-64211200D01*
X71221600Y-64211200D02*
X72390000Y-65379600D01*
X74015600Y-75539600D02*
X74625200Y-74930000D01*
X76098400Y-72186800D02*
X77825600Y-70459600D01*
X77825600Y-70459600D02*
X80010000Y-70459600D01*
X74625200Y-73660000D02*
X76098400Y-72186800D01*
X40182800Y-63144400D02*
X49225200Y-63144400D01*
X74625200Y-74930000D02*
X74625200Y-73660000D01*
X72390000Y-75539600D02*
X74015600Y-75539600D01*
%TO.N,1MHz*%
X48564800Y-65684400D02*
X51155600Y-63093600D01*
X51155600Y-63093600D02*
X52781200Y-63093600D01*
X52781200Y-63093600D02*
X56489600Y-66802000D01*
X56489600Y-66802000D02*
X68935600Y-66802000D01*
X68935600Y-66802000D02*
X69138800Y-66598800D01*
X69138800Y-66598800D02*
X77165200Y-66598800D01*
X77165200Y-66598800D02*
X78486000Y-67919600D01*
X78486000Y-67919600D02*
X80010000Y-67919600D01*
X80111600Y-78079600D02*
X82270600Y-75920600D01*
X82270600Y-70027800D02*
X83413600Y-68884800D01*
X40182800Y-65684400D02*
X48564800Y-65684400D01*
X80010000Y-78079600D02*
X80111600Y-78079600D01*
X82270600Y-75920600D02*
X82270600Y-70027800D01*
%TO.N,Net-(R2-Pad2)*%
X75539600Y-52222400D02*
X77216000Y-52222400D01*
X55422800Y-62941200D02*
X52070000Y-59588400D01*
X52070000Y-58470800D02*
X52882800Y-57658000D01*
X52882800Y-57658000D02*
X72745600Y-57658000D01*
X72745600Y-57658000D02*
X75184000Y-55219600D01*
X75184000Y-55219600D02*
X75184000Y-52578000D01*
X75184000Y-52578000D02*
X75539600Y-52222400D01*
X58166000Y-62941200D02*
X55422800Y-62941200D01*
X52070000Y-59588400D02*
X52070000Y-58470800D01*
%TO.N,Net-(R3-Pad1)*%
X52070000Y-66141600D02*
X56489600Y-70561200D01*
X56489600Y-70561200D02*
X58166000Y-70561200D01*
X75996800Y-55880000D02*
X73304400Y-58572400D01*
X73304400Y-58572400D02*
X62890400Y-58572400D01*
X77470000Y-55880000D02*
X75996800Y-55880000D01*
X52070000Y-64668400D02*
X52070000Y-66141600D01*
X58166000Y-73101200D02*
X58166000Y-70561200D01*
%TO.N,A0*%
X61264800Y-110388400D02*
X62484000Y-111607600D01*
X62484000Y-111607600D02*
X75184000Y-111607600D01*
X75184000Y-111607600D02*
X76301600Y-110490000D01*
X76301600Y-110490000D02*
X78435200Y-110490000D01*
X88950800Y-110490000D02*
X90322400Y-111861600D01*
X90322400Y-111861600D02*
X94386400Y-111861600D01*
X94386400Y-111861600D02*
X95300800Y-111861600D01*
X55168800Y-110388400D02*
X54051200Y-109270800D01*
X54051200Y-109270800D02*
X45415200Y-109270800D01*
X78435200Y-110490000D02*
X88950800Y-110490000D01*
X57759600Y-110388400D02*
X61264800Y-110388400D01*
X57759600Y-110388400D02*
X55168800Y-110388400D01*
%TO.N,A1*%
X61468000Y-107848400D02*
X62738000Y-109118400D01*
X62738000Y-109118400D02*
X74523600Y-109118400D01*
X74523600Y-109118400D02*
X75692000Y-107950000D01*
X75692000Y-107950000D02*
X78435200Y-107950000D01*
X56286400Y-107848400D02*
X55118000Y-106680000D01*
X55118000Y-106680000D02*
X41148000Y-106680000D01*
X41148000Y-106680000D02*
X35966400Y-106680000D01*
X35915600Y-106680000D02*
X35255200Y-106019600D01*
X35255200Y-106019600D02*
X35255200Y-96012000D01*
X36169600Y-95250000D02*
X37846000Y-95250000D01*
X36017200Y-95250000D02*
X35255200Y-96012000D01*
X57759600Y-107848400D02*
X61468000Y-107848400D01*
X57759600Y-107848400D02*
X56286400Y-107848400D01*
X35966400Y-106680000D02*
X35915600Y-106680000D01*
X36169600Y-95250000D02*
X36017200Y-95250000D01*
%TO.N,A2*%
X61163200Y-105308400D02*
X62484000Y-106629200D01*
X62484000Y-106629200D02*
X75184000Y-106629200D01*
X75184000Y-106629200D02*
X76403200Y-105410000D01*
X76403200Y-105410000D02*
X78435200Y-105410000D01*
X55930800Y-105308400D02*
X54762400Y-104140000D01*
X54762400Y-104140000D02*
X40894000Y-104140000D01*
X40894000Y-104140000D02*
X40335200Y-103581200D01*
X40335200Y-103581200D02*
X40335200Y-98806000D01*
X40335200Y-98806000D02*
X39319200Y-97790000D01*
X39319200Y-97790000D02*
X37846000Y-97790000D01*
X57759600Y-105308400D02*
X61163200Y-105308400D01*
X57759600Y-105308400D02*
X55930800Y-105308400D01*
%TO.N,A3*%
X61315600Y-102768400D02*
X62534800Y-103987600D01*
X62534800Y-103987600D02*
X74625200Y-103987600D01*
X74625200Y-103987600D02*
X75742800Y-102870000D01*
X75742800Y-102870000D02*
X78435200Y-102870000D01*
X39116000Y-100330000D02*
X39471600Y-100685600D01*
X39471600Y-100685600D02*
X39471600Y-104546400D01*
X39471600Y-104546400D02*
X40284400Y-105359200D01*
X40284400Y-105359200D02*
X50190400Y-105359200D01*
X37846000Y-100330000D02*
X39116000Y-100330000D01*
X57759600Y-102768400D02*
X61315600Y-102768400D01*
%TO.N,A4*%
X61518800Y-100228400D02*
X62738000Y-101447600D01*
X62738000Y-101447600D02*
X74980800Y-101447600D01*
X74980800Y-101447600D02*
X76098400Y-100330000D01*
X76098400Y-100330000D02*
X78435200Y-100330000D01*
X56134000Y-100228400D02*
X54864000Y-101498400D01*
X54864000Y-101498400D02*
X41198800Y-101447600D01*
X41198800Y-101498400D02*
X41198800Y-101447600D01*
X57759600Y-100228400D02*
X61518800Y-100228400D01*
X57759600Y-100228400D02*
X56134000Y-100228400D01*
%TO.N,A5*%
X61518800Y-97688400D02*
X62687200Y-98856800D01*
X62687200Y-98856800D02*
X75082400Y-98856800D01*
X75082400Y-98856800D02*
X76149200Y-97790000D01*
X76149200Y-97790000D02*
X78435200Y-97790000D01*
X55727600Y-97688400D02*
X54305200Y-99110800D01*
X54305200Y-99110800D02*
X42214800Y-99060000D01*
X57759600Y-97688400D02*
X55727600Y-97688400D01*
X57759600Y-97688400D02*
X61518800Y-97688400D01*
%TO.N,A6*%
X61518800Y-95148400D02*
X62788800Y-96418400D01*
X62788800Y-96418400D02*
X75234800Y-96418400D01*
X75234800Y-96418400D02*
X76403200Y-95250000D01*
X76403200Y-95250000D02*
X78435200Y-95250000D01*
X57759600Y-95148400D02*
X61518800Y-95148400D01*
%TO.N,A7*%
X61163200Y-92608400D02*
X62382400Y-93827600D01*
X62382400Y-93827600D02*
X75082400Y-93827600D01*
X75082400Y-93827600D02*
X76200000Y-92710000D01*
X76200000Y-92710000D02*
X78435200Y-92710000D01*
X55880000Y-92608400D02*
X54813200Y-91541600D01*
X54813200Y-91541600D02*
X50139600Y-91541600D01*
X44145200Y-93980000D02*
X46583600Y-91541600D01*
X46583600Y-91541600D02*
X48412400Y-91541600D01*
X48412400Y-91541600D02*
X50139600Y-91541600D01*
X57759600Y-92608400D02*
X61163200Y-92608400D01*
X57759600Y-92608400D02*
X55930800Y-92608400D01*
X55930800Y-92608400D02*
X55880000Y-92608400D01*
%TO.N,A8*%
X89763600Y-93878400D02*
X91135200Y-95250000D01*
X91135200Y-95250000D02*
X93675200Y-95250000D01*
X75184000Y-95148400D02*
X76454000Y-93878400D01*
X76454000Y-93878400D02*
X77216000Y-93878400D01*
X77216000Y-93878400D02*
X89763600Y-93878400D01*
X72999600Y-95148400D02*
X74574400Y-95148400D01*
X74574400Y-95148400D02*
X75184000Y-95148400D01*
%TO.N,A9*%
X74980800Y-97688400D02*
X76200000Y-96469200D01*
X76200000Y-96469200D02*
X89712800Y-96469200D01*
X89712800Y-96469200D02*
X91033600Y-97790000D01*
X91033600Y-97790000D02*
X93675200Y-97790000D01*
X72999600Y-97688400D02*
X74980800Y-97688400D01*
%TO.N,A10*%
X74422000Y-105308400D02*
X75641200Y-104089200D01*
X75641200Y-104089200D02*
X89408000Y-104089200D01*
X89408000Y-104089200D02*
X90728800Y-105410000D01*
X90728800Y-105410000D02*
X93675200Y-105410000D01*
X62128400Y-105308400D02*
X62077600Y-105257600D01*
X48514000Y-118110000D02*
X48564800Y-118059200D01*
X62077600Y-104952800D02*
X61112400Y-103987600D01*
X61112400Y-103987600D02*
X60452000Y-103987600D01*
X62636400Y-105308400D02*
X62128400Y-105308400D01*
X62636400Y-105308400D02*
X72999600Y-105308400D01*
X72999600Y-105308400D02*
X74422000Y-105308400D01*
X37846000Y-118110000D02*
X48514000Y-118110000D01*
X62077600Y-105257600D02*
X62077600Y-104952800D01*
%TO.N,A11*%
X74574400Y-100228400D02*
X75793600Y-99009200D01*
X75793600Y-99009200D02*
X76301600Y-99009200D01*
X89560400Y-99009200D02*
X90881200Y-100330000D01*
X90881200Y-100330000D02*
X93675200Y-100330000D01*
X76301600Y-98958400D02*
X76301600Y-99009200D01*
X76301600Y-99009200D02*
X89560400Y-99009200D01*
X95605600Y-104394000D02*
X95859600Y-104140000D01*
X95859600Y-104140000D02*
X103835200Y-104140000D01*
X103784400Y-112928400D02*
X103682800Y-113030000D01*
X103682800Y-113030000D02*
X99263200Y-113030000D01*
X72999600Y-100228400D02*
X74574400Y-100228400D01*
%TO.N,A12*%
X75996800Y-90170000D02*
X74777600Y-91389200D01*
X74777600Y-91389200D02*
X64008000Y-91541600D01*
X91033600Y-90170000D02*
X92252800Y-91389200D01*
X92252800Y-91389200D02*
X95148400Y-91389200D01*
X104698800Y-78892400D02*
X104800400Y-78790800D01*
X104800400Y-78790800D02*
X116586000Y-78790800D01*
X116586000Y-78790800D02*
X117906800Y-77470000D01*
X117906800Y-77470000D02*
X120142000Y-77470000D01*
X55016400Y-118110000D02*
X56235600Y-119329200D01*
X56235600Y-119329200D02*
X59639200Y-119329200D01*
X59639200Y-119329200D02*
X60858400Y-120548400D01*
X62382400Y-91541600D02*
X60909200Y-90068400D01*
X60909200Y-90068400D02*
X60299600Y-90068400D01*
X60299600Y-90068400D02*
X57759600Y-90068400D01*
X78435200Y-90170000D02*
X75996800Y-90170000D01*
X78435200Y-90170000D02*
X91033600Y-90170000D01*
X60858400Y-120548400D02*
X64058800Y-120548400D01*
X55016400Y-118110000D02*
X53086000Y-118110000D01*
X64008000Y-91541600D02*
X62382400Y-91541600D01*
%TO.N,A13*%
X75082400Y-92608400D02*
X76352400Y-91338400D01*
X76352400Y-91338400D02*
X90678000Y-91338400D01*
X90678000Y-91338400D02*
X92049600Y-92710000D01*
X92049600Y-92710000D02*
X93675200Y-92710000D01*
X113131600Y-84988400D02*
X113334800Y-84785200D01*
X113334800Y-84785200D02*
X113334800Y-81381600D01*
X113334800Y-81381600D02*
X114706400Y-80010000D01*
X114706400Y-80010000D02*
X120142000Y-80010000D01*
X101447600Y-93065600D02*
X101346000Y-92964000D01*
X101346000Y-92964000D02*
X101346000Y-91389200D01*
X101346000Y-91389200D02*
X102819200Y-89916000D01*
X102819200Y-89916000D02*
X108153200Y-89916000D01*
X72999600Y-92608400D02*
X75082400Y-92608400D01*
%TO.N,A14*%
X61620400Y-87528400D02*
X62839600Y-88747600D01*
X62839600Y-88747600D02*
X76911200Y-88747600D01*
X76911200Y-88747600D02*
X77012800Y-88849200D01*
X77012800Y-88849200D02*
X91186000Y-88849200D01*
X91186000Y-88849200D02*
X92506800Y-90170000D01*
X92506800Y-90170000D02*
X93675200Y-90170000D01*
X55981600Y-87528400D02*
X54813200Y-86360000D01*
X54813200Y-86360000D02*
X49733200Y-86360000D01*
X49733200Y-86360000D02*
X49682400Y-86410800D01*
X47345600Y-113030000D02*
X46990000Y-112674400D01*
X46990000Y-112674400D02*
X46990000Y-111963200D01*
X103124000Y-87274400D02*
X103378000Y-87528400D01*
X103378000Y-87528400D02*
X113030000Y-87528400D01*
X115824000Y-84683600D02*
X117957600Y-82550000D01*
X117957600Y-82550000D02*
X120142000Y-82550000D01*
X47802800Y-113030000D02*
X47345600Y-113030000D01*
X57759600Y-87528400D02*
X61620400Y-87528400D01*
X53086000Y-113030000D02*
X47802800Y-113030000D01*
X57759600Y-87528400D02*
X55981600Y-87528400D01*
%TO.N,A15*%
X74879200Y-107848400D02*
X76047600Y-106680000D01*
X76047600Y-106680000D02*
X116535200Y-106680000D01*
X116535200Y-106680000D02*
X117652800Y-105562400D01*
X62636400Y-107848400D02*
X62179200Y-107391200D01*
X62026800Y-113385600D02*
X60299600Y-111658400D01*
X60299600Y-111658400D02*
X55118000Y-111658400D01*
X55118000Y-111658400D02*
X53949600Y-110490000D01*
X53949600Y-110490000D02*
X53086000Y-110490000D01*
X72999600Y-107848400D02*
X62636400Y-107848400D01*
X72999600Y-107848400D02*
X74879200Y-107848400D01*
%TO.N,D7*%
X74930000Y-110388400D02*
X76149200Y-109169200D01*
X76149200Y-109169200D02*
X89052400Y-109169200D01*
X89052400Y-109169200D02*
X90373200Y-110490000D01*
X90373200Y-110490000D02*
X93675200Y-110490000D01*
X103174800Y-115773200D02*
X103327200Y-115620800D01*
X103327200Y-115620800D02*
X114503200Y-115570000D01*
X62484000Y-110388400D02*
X61264800Y-109169200D01*
X61264800Y-109169200D02*
X55829200Y-109169200D01*
X55829200Y-109169200D02*
X54610000Y-107950000D01*
X54610000Y-107950000D02*
X53086000Y-107950000D01*
X72999600Y-110388400D02*
X62484000Y-110388400D01*
X72999600Y-110388400D02*
X74930000Y-110388400D01*
%TO.N,D6*%
X75184000Y-112928400D02*
X76250800Y-111861600D01*
X76250800Y-111861600D02*
X88950800Y-111861600D01*
X88950800Y-111861600D02*
X90119200Y-113030000D01*
X90119200Y-113030000D02*
X93675200Y-113030000D01*
X96418400Y-113030000D02*
X97688400Y-111760000D01*
X97688400Y-111760000D02*
X111302800Y-111760000D01*
X111302800Y-111760000D02*
X112572800Y-113030000D01*
X112572800Y-113030000D02*
X114503200Y-113030000D01*
X55016400Y-105410000D02*
X56184800Y-106578400D01*
X56184800Y-106578400D02*
X61264800Y-106578400D01*
X62484000Y-112928400D02*
X61214000Y-111658400D01*
X61214000Y-106527600D02*
X61264800Y-106578400D01*
X53086000Y-105410000D02*
X55016400Y-105410000D01*
X62636400Y-112928400D02*
X62484000Y-112928400D01*
X93675200Y-113030000D02*
X96418400Y-113030000D01*
X72999600Y-112928400D02*
X62636400Y-112928400D01*
X72999600Y-112928400D02*
X75184000Y-112928400D01*
%TO.N,D5*%
X75031600Y-115468400D02*
X76250800Y-114249200D01*
X76250800Y-114249200D02*
X88950800Y-114249200D01*
X88950800Y-114249200D02*
X90271600Y-115570000D01*
X90271600Y-115570000D02*
X93675200Y-115570000D01*
X95707200Y-115570000D02*
X97078800Y-114198400D01*
X97078800Y-114198400D02*
X111760000Y-114198400D01*
X62941200Y-102768400D02*
X62585600Y-102768400D01*
X62585600Y-102768400D02*
X61366400Y-101549200D01*
X61366400Y-101549200D02*
X56337200Y-101549200D01*
X56337200Y-101549200D02*
X55219600Y-102666800D01*
X55016400Y-102870000D02*
X55219600Y-102666800D01*
X73304400Y-115468400D02*
X75031600Y-115468400D01*
X93675200Y-115570000D02*
X95707200Y-115570000D01*
X73304400Y-115468400D02*
X63449200Y-115468400D01*
X63449200Y-115468400D02*
X63042800Y-115468400D01*
X53086000Y-102870000D02*
X55016400Y-102870000D01*
%TO.N,D4*%
X90271600Y-118110000D02*
X89001600Y-116840000D01*
X89001600Y-116840000D02*
X76657200Y-116840000D01*
X76657200Y-116840000D02*
X75488800Y-118008400D01*
X75488800Y-118008400D02*
X72999600Y-118008400D01*
X95504000Y-118110000D02*
X96774000Y-116840000D01*
X96774000Y-116840000D02*
X110947200Y-116840000D01*
X61823600Y-118008400D02*
X59842400Y-116078000D01*
X54610000Y-100330000D02*
X55981600Y-98958400D01*
X55981600Y-98958400D02*
X59791600Y-98958400D01*
X59893200Y-116128800D02*
X59842400Y-116078000D01*
X72999600Y-118008400D02*
X61823600Y-118008400D01*
X93675200Y-118110000D02*
X90271600Y-118110000D01*
X53086000Y-100330000D02*
X54610000Y-100330000D01*
X93675200Y-118110000D02*
X95504000Y-118110000D01*
%TO.N,D3*%
X90779600Y-120650000D02*
X89509600Y-119380000D01*
X89509600Y-119380000D02*
X76911200Y-119380000D01*
X76911200Y-119380000D02*
X75742800Y-120548400D01*
X75742800Y-120548400D02*
X72999600Y-120548400D01*
X95148400Y-120650000D02*
X96469200Y-119329200D01*
X96469200Y-119329200D02*
X106934000Y-119329200D01*
X106934000Y-119430800D02*
X106934000Y-119329200D01*
X54305200Y-97790000D02*
X55727600Y-96367600D01*
X55727600Y-96367600D02*
X61417200Y-96367600D01*
X61417200Y-96367600D02*
X62738000Y-97688400D01*
X62738000Y-97688400D02*
X65938400Y-97688400D01*
X65887600Y-120599200D02*
X65887600Y-120548400D01*
X107340400Y-105410000D02*
X107035600Y-105714800D01*
X72999600Y-120548400D02*
X65887600Y-120548400D01*
X93675200Y-120650000D02*
X95148400Y-120650000D01*
X114503200Y-105410000D02*
X107340400Y-105410000D01*
X93675200Y-120650000D02*
X90779600Y-120650000D01*
X53086000Y-97790000D02*
X54305200Y-97790000D01*
%TO.N,D2*%
X76708000Y-118110000D02*
X75488800Y-119329200D01*
X75488800Y-119329200D02*
X64922400Y-119329200D01*
X61925200Y-119329200D02*
X60604400Y-118008400D01*
X60604400Y-118008400D02*
X57759600Y-118008400D01*
X53848000Y-95250000D02*
X55270400Y-93827600D01*
X55270400Y-93827600D02*
X61366400Y-93827600D01*
X61366400Y-93827600D02*
X62839600Y-95300800D01*
X62839600Y-95300800D02*
X64719200Y-95300800D01*
X64922400Y-119380000D02*
X64922400Y-119329200D01*
X64922400Y-119329200D02*
X61925200Y-119329200D01*
X86969600Y-118110000D02*
X78435200Y-118110000D01*
X106527600Y-102870000D02*
X105867200Y-103530400D01*
X78435200Y-118110000D02*
X76708000Y-118110000D01*
X53086000Y-95250000D02*
X53848000Y-95250000D01*
X114503200Y-102870000D02*
X106527600Y-102870000D01*
%TO.N,D1*%
X76301600Y-115570000D02*
X75133200Y-116738400D01*
X75133200Y-116738400D02*
X62687200Y-116738400D01*
X55981600Y-115468400D02*
X54813200Y-114300000D01*
X54813200Y-114300000D02*
X48971200Y-114300000D01*
X58521600Y-115468400D02*
X59283600Y-114706400D01*
X59283600Y-114706400D02*
X60655200Y-114706400D01*
X60655200Y-114706400D02*
X62687200Y-116738400D01*
X88239600Y-115671600D02*
X88138000Y-115570000D01*
X88138000Y-115570000D02*
X78435200Y-115570000D01*
X106680000Y-100330000D02*
X106781600Y-100228400D01*
X106781600Y-100228400D02*
X106883200Y-100330000D01*
X57759600Y-115468400D02*
X58521600Y-115468400D01*
X114503200Y-100330000D02*
X106883200Y-100330000D01*
X78435200Y-115570000D02*
X76301600Y-115570000D01*
X57759600Y-115468400D02*
X55981600Y-115468400D01*
%TO.N,D0*%
X60604400Y-112928400D02*
X61925200Y-114249200D01*
X61925200Y-114249200D02*
X74828400Y-114249200D01*
X74828400Y-114249200D02*
X76047600Y-113030000D01*
X76047600Y-113030000D02*
X78435200Y-113030000D01*
X48006000Y-111353600D02*
X48412400Y-111760000D01*
X48412400Y-111760000D02*
X53898800Y-111760000D01*
X53898800Y-111760000D02*
X55067200Y-112928400D01*
X55067200Y-112928400D02*
X57759600Y-112928400D01*
X88950800Y-113030000D02*
X90220800Y-114300000D01*
X90220800Y-114300000D02*
X90982800Y-114300000D01*
X102870000Y-97790000D02*
X101549200Y-99110800D01*
X101549200Y-99110800D02*
X91338400Y-99110800D01*
X91338400Y-99110800D02*
X91287600Y-99161600D01*
X114503200Y-97790000D02*
X102870000Y-97790000D01*
X78435200Y-113030000D02*
X88950800Y-113030000D01*
X57759600Y-112928400D02*
X60604400Y-112928400D01*
%TO.N,R{slash}~{W}*%
X101244400Y-83921600D02*
X106629200Y-83921600D01*
X106629200Y-83921600D02*
X107899200Y-82651600D01*
X107899200Y-82651600D02*
X109575600Y-82651600D01*
X99364800Y-83921600D02*
X101244400Y-83921600D01*
X65379600Y-84785200D02*
X96012000Y-84785200D01*
X63550800Y-84785200D02*
X63500000Y-84734400D01*
X54559200Y-87630000D02*
X55727600Y-88798400D01*
X55727600Y-88798400D02*
X61214000Y-88798400D01*
X61214000Y-88798400D02*
X62636400Y-90220800D01*
X62636400Y-90220800D02*
X68732400Y-90220800D01*
X65379600Y-84785200D02*
X63550800Y-84785200D01*
X53086000Y-87630000D02*
X54356000Y-87630000D01*
X54356000Y-87630000D02*
X54559200Y-87630000D01*
%TO.N,Phi2*%
X54457600Y-74930000D02*
X55778400Y-76250800D01*
X55778400Y-76250800D02*
X55778400Y-80721200D01*
X55778400Y-80721200D02*
X58166000Y-83108800D01*
X99314000Y-80111600D02*
X96316800Y-83108800D01*
X101955600Y-80111600D02*
X99314000Y-80111600D01*
X101955600Y-80111600D02*
X109575600Y-80111600D01*
X58166000Y-83108800D02*
X96316800Y-83108800D01*
X53086000Y-74930000D02*
X54457600Y-74930000D01*
%TO.N,~{READ}*%
X74980800Y-102768400D02*
X76149200Y-101600000D01*
X76149200Y-101600000D02*
X89814400Y-101600000D01*
X89814400Y-101600000D02*
X91084400Y-102870000D01*
X91084400Y-102870000D02*
X93675200Y-102870000D01*
X96113600Y-102870000D02*
X97383600Y-101600000D01*
X97383600Y-101600000D02*
X103936800Y-101600000D01*
X95605600Y-102870000D02*
X96113600Y-102870000D01*
X109575600Y-85191600D02*
X106629200Y-85191600D01*
X72999600Y-102768400D02*
X74980800Y-102768400D01*
X93675200Y-102870000D02*
X95605600Y-102870000D01*
%TO.N,CS_ROM*%
X94945200Y-107950000D02*
X96113600Y-109118400D01*
X96113600Y-109118400D02*
X116382800Y-109118400D01*
X116382800Y-109118400D02*
X118160800Y-110896400D01*
X118160800Y-110896400D02*
X119888000Y-110896400D01*
X93675200Y-107950000D02*
X94945200Y-107950000D01*
%TO.N,BAUDCLK*%
X105765600Y-73761600D02*
X107035600Y-72491600D01*
X107035600Y-72491600D02*
X107188000Y-72491600D01*
X105714800Y-73710800D02*
X105765600Y-73761600D01*
X107188000Y-72491600D02*
X109575600Y-72491600D01*
X106680000Y-72491600D02*
X105359200Y-71170800D01*
X105359200Y-71170800D02*
X100330000Y-71170800D01*
X100330000Y-71170800D02*
X95859600Y-75641200D01*
X107188000Y-72491600D02*
X106680000Y-72491600D01*
X94284800Y-75641200D02*
X95859600Y-75641200D01*
%TO.N,CS_ACIA*%
X72948800Y-85750400D02*
X73355200Y-86156800D01*
X73355200Y-86156800D02*
X92202000Y-86156800D01*
X96266000Y-86156800D02*
X96316800Y-86207600D01*
X96316800Y-86207600D02*
X96316800Y-95199200D01*
X92202000Y-86156800D02*
X96266000Y-86156800D01*
%TO.N,4MHz*%
X85547200Y-65481200D02*
X81889600Y-69138800D01*
X81889600Y-69138800D02*
X75285600Y-69138800D01*
X75285600Y-69138800D02*
X74066400Y-67919600D01*
X74066400Y-67919600D02*
X72390000Y-67919600D01*
X69443600Y-67919600D02*
X68072000Y-69291200D01*
X60604400Y-74472800D02*
X59436000Y-75641200D01*
X59436000Y-75641200D02*
X58166000Y-75641200D01*
X68072000Y-73456800D02*
X67157600Y-74371200D01*
X67157600Y-74371200D02*
X60706000Y-74371200D01*
X60706000Y-74371200D02*
X60604400Y-74472800D01*
X68072000Y-69291200D02*
X68072000Y-73456800D01*
X72390000Y-67919600D02*
X69443600Y-67919600D01*
X86664800Y-65481200D02*
X85547200Y-65481200D01*
%TO.N,Net-(U11-Pad2)*%
X115417600Y-96418400D02*
X97688400Y-96418400D01*
X97688400Y-96418400D02*
X97256600Y-95986600D01*
X97256600Y-85064600D02*
X97180400Y-84988400D01*
X97256600Y-84759800D02*
X96215200Y-83718400D01*
X96215200Y-83718400D02*
X68884800Y-83718400D01*
X66141600Y-83718400D02*
X65786000Y-84074000D01*
X118160800Y-96418400D02*
X118262400Y-96520000D01*
X97256600Y-85064600D02*
X97256600Y-84759800D01*
X115417600Y-96418400D02*
X118160800Y-96418400D01*
X97256600Y-95986600D02*
X97256600Y-87223600D01*
X97256600Y-85420200D02*
X97256600Y-85064600D01*
X68884800Y-83718400D02*
X66141600Y-83718400D01*
X97256600Y-87223600D02*
X97256600Y-85420200D01*
%TO.N,Fxxx*%
X103784400Y-86258400D02*
X104343200Y-86817200D01*
X104343200Y-86817200D02*
X115366800Y-86817200D01*
X115366800Y-86817200D02*
X118262400Y-83921600D01*
X118262400Y-83921600D02*
X122021600Y-83921600D01*
X122021600Y-83921600D02*
X122529600Y-84429600D01*
X122529600Y-84429600D02*
X122529600Y-91998800D01*
X122529600Y-91998800D02*
X121818400Y-92710000D01*
X121818400Y-92710000D02*
X120142000Y-92710000D01*
%TO.N,Net-(U10-Pad4)*%
X100584000Y-77571600D02*
X101955600Y-77571600D01*
X95808800Y-82346800D02*
X100584000Y-77571600D01*
X63296800Y-82346800D02*
X63246000Y-82397600D01*
X95808800Y-82346800D02*
X63296800Y-82346800D01*
%TO.N,Net-(U10-Pad11)*%
X90373200Y-62941200D02*
X91643200Y-64211200D01*
X91643200Y-64211200D02*
X101549200Y-64211200D01*
X101549200Y-64211200D02*
X107492800Y-70154800D01*
X110794800Y-71170800D02*
X111607600Y-71983600D01*
X111607600Y-71983600D02*
X111607600Y-76758800D01*
X111607600Y-76758800D02*
X110794800Y-77571600D01*
X110794800Y-77571600D02*
X109575600Y-77571600D01*
X107492800Y-70205600D02*
X108458000Y-71170800D01*
X108458000Y-71170800D02*
X110794800Y-71170800D01*
X107492800Y-70154800D02*
X107492800Y-70205600D01*
X86664800Y-62941200D02*
X90373200Y-62941200D01*
%TO.N,Net-(U10-Pad12)*%
X93421200Y-73101200D02*
X92456000Y-74066400D01*
X92456000Y-74066400D02*
X92456000Y-76200000D01*
X92456000Y-76200000D02*
X93167200Y-76911200D01*
X93167200Y-76911200D02*
X100025200Y-76911200D01*
X100025200Y-76911200D02*
X100584000Y-76352400D01*
X100584000Y-76352400D02*
X105918000Y-76352400D01*
X105918000Y-76352400D02*
X107238800Y-75031600D01*
X107238800Y-75031600D02*
X109575600Y-75031600D01*
X94284800Y-73101200D02*
X93421200Y-73101200D01*
%TO.N,Bxxx*%
X115163600Y-72237600D02*
X115214400Y-72288400D01*
X115214400Y-72288400D02*
X127203200Y-72390000D01*
X127203200Y-72390000D02*
X130149600Y-75336400D01*
X114909600Y-72237600D02*
X110693200Y-68021200D01*
X115163600Y-72237600D02*
X114909600Y-72237600D01*
%TO.N,Axxx*%
X125831600Y-79756000D02*
X123240800Y-79756000D01*
X123240800Y-79756000D02*
X122174000Y-78689200D01*
X122174000Y-78689200D02*
X122174000Y-76657200D01*
X122174000Y-76657200D02*
X121412000Y-75895200D01*
X121412000Y-75895200D02*
X115265200Y-75895200D01*
X115265200Y-75946000D02*
X115265200Y-75895200D01*
%TO.N,Net-(U10-Pad3)*%
X129641600Y-71983600D02*
X129286000Y-71628000D01*
X129286000Y-71628000D02*
X118872000Y-71628000D01*
%TO.N,Net-(U11-Pad1)*%
X121259600Y-103276400D02*
X122986800Y-104546400D01*
X122986800Y-104546400D02*
X122986800Y-111963200D01*
X122986800Y-111963200D02*
X121056400Y-113436400D01*
X121056400Y-113436400D02*
X119888000Y-113436400D01*
X119888000Y-103276400D02*
X121259600Y-103276400D01*
D30*
%TO.N,Net-(CON1-Pad2)*%
X53393860Y-41755060D02*
X50850800Y-39212000D01*
X64820800Y-41755060D02*
X53393860Y-41755060D01*
%TO.N,Net-(D1-Pad2)*%
X46329600Y-41960800D02*
X45262800Y-40894000D01*
X46329600Y-51308000D02*
X46329600Y-41960800D01*
D31*
%TO.N,TTL_Rx*%
X119430800Y-60350400D02*
X121564400Y-62484000D01*
X121564400Y-62484000D02*
X124358400Y-62484000D01*
X114401600Y-85090000D02*
X118262400Y-81229200D01*
X118262400Y-81229200D02*
X121310400Y-81229200D01*
X109829600Y-95199200D02*
X109778800Y-95250000D01*
X109778800Y-95250000D02*
X104190800Y-95250000D01*
X124917200Y-81229200D02*
X124968000Y-81178400D01*
X99263200Y-95250000D02*
X104190800Y-95250000D01*
X121310400Y-81229200D02*
X124917200Y-81229200D01*
%TO.N,TTL_Tx*%
X113080800Y-99060000D02*
X116586000Y-99060000D01*
X103378000Y-99060000D02*
X103073200Y-99364800D01*
X102971600Y-105410000D02*
X99263200Y-105410000D01*
X112064800Y-99060000D02*
X103378000Y-99060000D01*
X113080800Y-99060000D02*
X112064800Y-99060000D01*
D30*
%TO.N,~{IRQ}*%
X35458400Y-80010000D02*
X34696400Y-79248000D01*
X34696400Y-79248000D02*
X34696400Y-77622400D01*
X37846000Y-80010000D02*
X35458400Y-80010000D01*
%TO.N,~{NMI}*%
X36017200Y-85090000D02*
X34848800Y-86258400D01*
X34848800Y-86258400D02*
X34848800Y-87680800D01*
X37846000Y-85090000D02*
X36017200Y-85090000D01*
D32*
%TO.N,RESET*%
X43332400Y-55067200D02*
X35712400Y-55067200D01*
D31*
X55118000Y-55067200D02*
X58674000Y-55067200D01*
X43332400Y-55067200D02*
X55118000Y-55067200D01*
%TO.N,~{WRITE}*%
X74777600Y-90068400D02*
X75031600Y-89814400D01*
X72999600Y-90068400D02*
X74777600Y-90068400D01*
%TD*%
M02*
