%TF.GenerationSoftware,KiCad,Pcbnew,(6.0.2)*%
%TF.CreationDate,2022-05-20T20:48:01-04:00*%
%TF.ProjectId,MicroUK101,4d696372-6f55-44b3-9130-312e6b696361,rev?*%
%TF.SameCoordinates,Original*%
%TF.FileFunction,Soldermask,Bot*%
%TF.FilePolarity,Negative*%
%FSLAX46Y46*%
G04 Gerber Fmt 4.6, Leading zero omitted, Abs format (unit mm)*
G04 Created by KiCad (PCBNEW (6.0.2)) date 2022-05-20 20:48:01*
%MOMM*%
%LPD*%
G01*
G04 APERTURE LIST*
%ADD10R,1.200000X1.200000*%
%ADD11C,1.200000*%
%ADD12R,3.500120X3.500120*%
%ADD13R,1.727200X1.727200*%
%ADD14O,1.727200X1.727200*%
%ADD15C,1.998980*%
%ADD16C,1.397000*%
%ADD17O,2.300000X1.600000*%
%ADD18C,1.778000*%
%ADD19R,2.000000X2.000000*%
%ADD20C,2.000000*%
%ADD21R,1.300000X1.300000*%
%ADD22C,1.300000*%
%ADD23C,1.700000*%
%ADD24R,1.727200X2.032000*%
%ADD25O,1.727200X2.032000*%
%ADD26C,3.810000*%
%ADD27R,1.524000X1.524000*%
%ADD28C,1.524000*%
G04 APERTURE END LIST*
D10*
%TO.C,C5*%
X124460000Y-47447200D03*
D11*
X121960000Y-47447200D03*
%TD*%
D10*
%TO.C,C6*%
X92252800Y-55829200D03*
D11*
X94752800Y-55829200D03*
%TD*%
D12*
%TO.C,CON1*%
X64820800Y-47754540D03*
X64820800Y-41755060D03*
X60121800Y-44754800D03*
%TD*%
D13*
%TO.C,P1*%
X37642800Y-63144400D03*
D14*
X40182800Y-63144400D03*
X37642800Y-65684400D03*
X40182800Y-65684400D03*
%TD*%
D15*
%TO.C,R1*%
X68834000Y-55067200D03*
X58674000Y-55067200D03*
%TD*%
%TO.C,R2*%
X87376000Y-52222400D03*
X77216000Y-52222400D03*
%TD*%
%TO.C,R3*%
X77470000Y-55880000D03*
X87630000Y-55880000D03*
%TD*%
D16*
%TO.C,SW1*%
X35712400Y-55067200D03*
X43332400Y-55067200D03*
X43332400Y-49987200D03*
X35712400Y-49987200D03*
%TD*%
D17*
%TO.C,U1*%
X37846000Y-72390000D03*
X37846000Y-74930000D03*
X37846000Y-77470000D03*
X37846000Y-80010000D03*
X37846000Y-82550000D03*
X37846000Y-85090000D03*
X37846000Y-87630000D03*
X37846000Y-90170000D03*
X37846000Y-92710000D03*
X37846000Y-95250000D03*
X37846000Y-97790000D03*
X37846000Y-100330000D03*
X37846000Y-102870000D03*
X37846000Y-105410000D03*
X37846000Y-107950000D03*
X37846000Y-110490000D03*
X37846000Y-113030000D03*
X37846000Y-115570000D03*
X37846000Y-118110000D03*
X37846000Y-120650000D03*
X53086000Y-120650000D03*
X53086000Y-118110000D03*
X53086000Y-115570000D03*
X53086000Y-113030000D03*
X53086000Y-110490000D03*
X53086000Y-107950000D03*
X53086000Y-105410000D03*
X53086000Y-102870000D03*
X53086000Y-100330000D03*
X53086000Y-97790000D03*
X53086000Y-95250000D03*
X53086000Y-92710000D03*
X53086000Y-90170000D03*
X53086000Y-87630000D03*
X53086000Y-85090000D03*
X53086000Y-82550000D03*
X53086000Y-80010000D03*
X53086000Y-77470000D03*
X53086000Y-74930000D03*
X53086000Y-72390000D03*
%TD*%
%TO.C,U4*%
X116738400Y-52324000D03*
X116738400Y-54864000D03*
X116738400Y-57404000D03*
X116738400Y-59944000D03*
X116738400Y-62484000D03*
X116738400Y-65024000D03*
X116738400Y-67564000D03*
X116738400Y-70104000D03*
X124358400Y-70104000D03*
X124358400Y-67564000D03*
X124358400Y-65024000D03*
X124358400Y-62484000D03*
X124358400Y-59944000D03*
X124358400Y-57404000D03*
X124358400Y-54864000D03*
X124358400Y-52324000D03*
%TD*%
%TO.C,U6*%
X58166000Y-62941200D03*
X58166000Y-65481200D03*
X58166000Y-68021200D03*
X58166000Y-70561200D03*
X58166000Y-73101200D03*
X58166000Y-75641200D03*
X58166000Y-78181200D03*
X65786000Y-78181200D03*
X65786000Y-75641200D03*
X65786000Y-73101200D03*
X65786000Y-70561200D03*
X65786000Y-68021200D03*
X65786000Y-65481200D03*
X65786000Y-62941200D03*
%TD*%
%TO.C,U7*%
X86664800Y-62941200D03*
X86664800Y-65481200D03*
X86664800Y-68021200D03*
X86664800Y-70561200D03*
X86664800Y-73101200D03*
X86664800Y-75641200D03*
X86664800Y-78181200D03*
X86664800Y-80721200D03*
X94284800Y-80721200D03*
X94284800Y-78181200D03*
X94284800Y-75641200D03*
X94284800Y-73101200D03*
X94284800Y-70561200D03*
X94284800Y-68021200D03*
X94284800Y-65481200D03*
X94284800Y-62941200D03*
%TD*%
%TO.C,U8*%
X72390000Y-62839600D03*
X72390000Y-65379600D03*
X72390000Y-67919600D03*
X72390000Y-70459600D03*
X72390000Y-72999600D03*
X72390000Y-75539600D03*
X72390000Y-78079600D03*
X80010000Y-78079600D03*
X80010000Y-75539600D03*
X80010000Y-72999600D03*
X80010000Y-70459600D03*
X80010000Y-67919600D03*
X80010000Y-65379600D03*
X80010000Y-62839600D03*
%TD*%
%TO.C,U9*%
X120142000Y-77470000D03*
X120142000Y-80010000D03*
X120142000Y-82550000D03*
X120142000Y-85090000D03*
X120142000Y-87630000D03*
X120142000Y-90170000D03*
X120142000Y-92710000D03*
X120142000Y-95250000D03*
X127762000Y-95250000D03*
X127762000Y-92710000D03*
X127762000Y-90170000D03*
X127762000Y-87630000D03*
X127762000Y-85090000D03*
X127762000Y-82550000D03*
X127762000Y-80010000D03*
X127762000Y-77470000D03*
%TD*%
%TO.C,U10*%
X101955600Y-69951600D03*
X101955600Y-72491600D03*
X101955600Y-75031600D03*
X101955600Y-77571600D03*
X101955600Y-80111600D03*
X101955600Y-82651600D03*
X101955600Y-85191600D03*
X109575600Y-85191600D03*
X109575600Y-82651600D03*
X109575600Y-80111600D03*
X109575600Y-77571600D03*
X109575600Y-75031600D03*
X109575600Y-72491600D03*
X109575600Y-69951600D03*
%TD*%
%TO.C,U11*%
X119888000Y-103276400D03*
X119888000Y-105816400D03*
X119888000Y-108356400D03*
X119888000Y-110896400D03*
X119888000Y-113436400D03*
X119888000Y-115976400D03*
X119888000Y-118516400D03*
X127508000Y-118516400D03*
X127508000Y-115976400D03*
X127508000Y-113436400D03*
X127508000Y-110896400D03*
X127508000Y-108356400D03*
X127508000Y-105816400D03*
X127508000Y-103276400D03*
%TD*%
D18*
%TO.C,X1*%
X52070000Y-59588400D03*
X52070000Y-64668400D03*
%TD*%
D17*
%TO.C,U2*%
X57759600Y-87528400D03*
X57759600Y-90068400D03*
X57759600Y-92608400D03*
X57759600Y-95148400D03*
X57759600Y-97688400D03*
X57759600Y-100228400D03*
X57759600Y-102768400D03*
X57759600Y-105308400D03*
X57759600Y-107848400D03*
X57759600Y-110388400D03*
X57759600Y-112928400D03*
X57759600Y-115468400D03*
X57759600Y-118008400D03*
X57759600Y-120548400D03*
X72999600Y-120548400D03*
X72999600Y-118008400D03*
X72999600Y-115468400D03*
X72999600Y-112928400D03*
X72999600Y-110388400D03*
X72999600Y-107848400D03*
X72999600Y-105308400D03*
X72999600Y-102768400D03*
X72999600Y-100228400D03*
X72999600Y-97688400D03*
X72999600Y-95148400D03*
X72999600Y-92608400D03*
X72999600Y-90068400D03*
X72999600Y-87528400D03*
%TD*%
%TO.C,U3*%
X78435200Y-87630000D03*
X78435200Y-90170000D03*
X78435200Y-92710000D03*
X78435200Y-95250000D03*
X78435200Y-97790000D03*
X78435200Y-100330000D03*
X78435200Y-102870000D03*
X78435200Y-105410000D03*
X78435200Y-107950000D03*
X78435200Y-110490000D03*
X78435200Y-113030000D03*
X78435200Y-115570000D03*
X78435200Y-118110000D03*
X78435200Y-120650000D03*
X93675200Y-120650000D03*
X93675200Y-118110000D03*
X93675200Y-115570000D03*
X93675200Y-113030000D03*
X93675200Y-110490000D03*
X93675200Y-107950000D03*
X93675200Y-105410000D03*
X93675200Y-102870000D03*
X93675200Y-100330000D03*
X93675200Y-97790000D03*
X93675200Y-95250000D03*
X93675200Y-92710000D03*
X93675200Y-90170000D03*
X93675200Y-87630000D03*
%TD*%
%TO.C,U5*%
X99263200Y-92710000D03*
X99263200Y-95250000D03*
X99263200Y-97790000D03*
X99263200Y-100330000D03*
X99263200Y-102870000D03*
X99263200Y-105410000D03*
X99263200Y-107950000D03*
X99263200Y-110490000D03*
X99263200Y-113030000D03*
X99263200Y-115570000D03*
X99263200Y-118110000D03*
X99263200Y-120650000D03*
X114503200Y-120650000D03*
X114503200Y-118110000D03*
X114503200Y-115570000D03*
X114503200Y-113030000D03*
X114503200Y-110490000D03*
X114503200Y-107950000D03*
X114503200Y-105410000D03*
X114503200Y-102870000D03*
X114503200Y-100330000D03*
X114503200Y-97790000D03*
X114503200Y-95250000D03*
X114503200Y-92710000D03*
%TD*%
D19*
%TO.C,D1*%
X42722800Y-40894000D03*
D20*
X45262800Y-40894000D03*
%TD*%
D15*
%TO.C,R4*%
X56489600Y-51308000D03*
X46329600Y-51308000D03*
%TD*%
D21*
%TO.C,C1*%
X112115600Y-52324000D03*
D22*
X112115600Y-54824000D03*
%TD*%
D21*
%TO.C,C2*%
X112217200Y-59944000D03*
D22*
X112217200Y-62444000D03*
%TD*%
D21*
%TO.C,C3*%
X129184400Y-53289200D03*
D22*
X129184400Y-50789200D03*
%TD*%
D21*
%TO.C,C4*%
X128930400Y-60909200D03*
D22*
X128930400Y-63409200D03*
%TD*%
D23*
%TO.C,SW2*%
X50850800Y-45212000D03*
X50850800Y-39212000D03*
X54850800Y-45212000D03*
X54850800Y-39212000D03*
%TD*%
D24*
%TO.C,P2*%
X110286800Y-43434000D03*
D25*
X112826800Y-43434000D03*
X115366800Y-43434000D03*
X117906800Y-43434000D03*
%TD*%
D13*
%TO.C,P3*%
X34696400Y-75082400D03*
D14*
X34696400Y-77622400D03*
%TD*%
D13*
%TO.C,P4*%
X34848800Y-90220800D03*
D14*
X34848800Y-87680800D03*
%TD*%
D26*
%TO.C,J1*%
X77139800Y-46380400D03*
X102539800Y-46380400D03*
D27*
X95300800Y-48920400D03*
D28*
X92506800Y-48920400D03*
X89712800Y-48920400D03*
X87045800Y-48920400D03*
X84251800Y-48920400D03*
X93903800Y-46380400D03*
X91109800Y-46380400D03*
X88442800Y-46380400D03*
X85648800Y-46380400D03*
%TD*%
M02*
