%TF.GenerationSoftware,KiCad,Pcbnew,(6.0.2)*%
%TF.CreationDate,2022-04-19T16:16:49-04:00*%
%TF.ProjectId,MicroUK101,4d696372-6f55-44b3-9130-312e6b696361,rev?*%
%TF.SameCoordinates,Original*%
%TF.FileFunction,Legend,Top*%
%TF.FilePolarity,Positive*%
%FSLAX46Y46*%
G04 Gerber Fmt 4.6, Leading zero omitted, Abs format (unit mm)*
G04 Created by KiCad (PCBNEW (6.0.2)) date 2022-04-19 16:16:49*
%MOMM*%
%LPD*%
G01*
G04 APERTURE LIST*
%ADD10C,0.250000*%
%ADD11C,0.300000*%
%ADD12C,0.500000*%
%ADD13C,0.150000*%
%ADD14C,0.100000*%
%ADD15C,1.414214*%
%ADD16R,1.200000X1.200000*%
%ADD17C,1.200000*%
%ADD18R,3.500120X3.500120*%
%ADD19R,1.727200X1.727200*%
%ADD20O,1.727200X1.727200*%
%ADD21C,1.998980*%
%ADD22C,1.397000*%
%ADD23O,2.300000X1.600000*%
%ADD24C,1.778000*%
%ADD25R,2.000000X2.000000*%
%ADD26C,2.000000*%
%ADD27R,1.300000X1.300000*%
%ADD28C,1.300000*%
%ADD29R,1.727200X2.032000*%
%ADD30O,1.727200X2.032000*%
%ADD31C,3.810000*%
%ADD32R,1.524000X1.524000*%
%ADD33C,1.524000*%
G04 APERTURE END LIST*
D10*
X109766628Y-45723257D02*
X109195200Y-45723257D01*
X109138057Y-46294685D01*
X109195200Y-46237542D01*
X109309485Y-46180400D01*
X109595200Y-46180400D01*
X109709485Y-46237542D01*
X109766628Y-46294685D01*
X109823771Y-46408971D01*
X109823771Y-46694685D01*
X109766628Y-46808971D01*
X109709485Y-46866114D01*
X109595200Y-46923257D01*
X109309485Y-46923257D01*
X109195200Y-46866114D01*
X109138057Y-46808971D01*
X110166628Y-45723257D02*
X110566628Y-46923257D01*
X110966628Y-45723257D01*
X112966628Y-46923257D02*
X112566628Y-46351828D01*
X112280914Y-46923257D02*
X112280914Y-45723257D01*
X112738057Y-45723257D01*
X112852342Y-45780400D01*
X112909485Y-45837542D01*
X112966628Y-45951828D01*
X112966628Y-46123257D01*
X112909485Y-46237542D01*
X112852342Y-46294685D01*
X112738057Y-46351828D01*
X112280914Y-46351828D01*
X113366628Y-46923257D02*
X113995200Y-46123257D01*
X113366628Y-46123257D02*
X113995200Y-46923257D01*
X115195200Y-45723257D02*
X115880914Y-45723257D01*
X115538057Y-46923257D02*
X115538057Y-45723257D01*
X116166628Y-46923257D02*
X116795200Y-46123257D01*
X116166628Y-46123257D02*
X116795200Y-46923257D01*
X118795200Y-45780400D02*
X118680914Y-45723257D01*
X118509485Y-45723257D01*
X118338057Y-45780400D01*
X118223771Y-45894685D01*
X118166628Y-46008971D01*
X118109485Y-46237542D01*
X118109485Y-46408971D01*
X118166628Y-46637542D01*
X118223771Y-46751828D01*
X118338057Y-46866114D01*
X118509485Y-46923257D01*
X118623771Y-46923257D01*
X118795200Y-46866114D01*
X118852342Y-46808971D01*
X118852342Y-46408971D01*
X118623771Y-46408971D01*
D11*
X70452942Y-128592971D02*
X70452942Y-127092971D01*
X71024371Y-127092971D01*
X71167228Y-127164400D01*
X71238657Y-127235828D01*
X71310085Y-127378685D01*
X71310085Y-127592971D01*
X71238657Y-127735828D01*
X71167228Y-127807257D01*
X71024371Y-127878685D01*
X70452942Y-127878685D01*
X72810085Y-128450114D02*
X72738657Y-128521542D01*
X72524371Y-128592971D01*
X72381514Y-128592971D01*
X72167228Y-128521542D01*
X72024371Y-128378685D01*
X71952942Y-128235828D01*
X71881514Y-127950114D01*
X71881514Y-127735828D01*
X71952942Y-127450114D01*
X72024371Y-127307257D01*
X72167228Y-127164400D01*
X72381514Y-127092971D01*
X72524371Y-127092971D01*
X72738657Y-127164400D01*
X72810085Y-127235828D01*
X73952942Y-127807257D02*
X74167228Y-127878685D01*
X74238657Y-127950114D01*
X74310085Y-128092971D01*
X74310085Y-128307257D01*
X74238657Y-128450114D01*
X74167228Y-128521542D01*
X74024371Y-128592971D01*
X73452942Y-128592971D01*
X73452942Y-127092971D01*
X73952942Y-127092971D01*
X74095800Y-127164400D01*
X74167228Y-127235828D01*
X74238657Y-127378685D01*
X74238657Y-127521542D01*
X74167228Y-127664400D01*
X74095800Y-127735828D01*
X73952942Y-127807257D01*
X73452942Y-127807257D01*
X74952942Y-128021542D02*
X76095800Y-128021542D01*
X75524371Y-128592971D02*
X75524371Y-127450114D01*
X76810085Y-128592971D02*
X76810085Y-127092971D01*
X77310085Y-128164400D01*
X77810085Y-127092971D01*
X77810085Y-128592971D01*
X78738657Y-128592971D02*
X78595800Y-128521542D01*
X78524371Y-128450114D01*
X78452942Y-128307257D01*
X78452942Y-127878685D01*
X78524371Y-127735828D01*
X78595800Y-127664400D01*
X78738657Y-127592971D01*
X78952942Y-127592971D01*
X79095800Y-127664400D01*
X79167228Y-127735828D01*
X79238657Y-127878685D01*
X79238657Y-128307257D01*
X79167228Y-128450114D01*
X79095800Y-128521542D01*
X78952942Y-128592971D01*
X78738657Y-128592971D01*
X80524371Y-128592971D02*
X80524371Y-127092971D01*
X80524371Y-128521542D02*
X80381514Y-128592971D01*
X80095800Y-128592971D01*
X79952942Y-128521542D01*
X79881514Y-128450114D01*
X79810085Y-128307257D01*
X79810085Y-127878685D01*
X79881514Y-127735828D01*
X79952942Y-127664400D01*
X80095800Y-127592971D01*
X80381514Y-127592971D01*
X80524371Y-127664400D01*
X81167228Y-128521542D02*
X81310085Y-128592971D01*
X81595800Y-128592971D01*
X81738657Y-128521542D01*
X81810085Y-128378685D01*
X81810085Y-128307257D01*
X81738657Y-128164400D01*
X81595800Y-128092971D01*
X81381514Y-128092971D01*
X81238657Y-128021542D01*
X81167228Y-127878685D01*
X81167228Y-127807257D01*
X81238657Y-127664400D01*
X81381514Y-127592971D01*
X81595800Y-127592971D01*
X81738657Y-127664400D01*
X83595800Y-128592971D02*
X83595800Y-127092971D01*
X83595800Y-127664400D02*
X83738657Y-127592971D01*
X84024371Y-127592971D01*
X84167228Y-127664400D01*
X84238657Y-127735828D01*
X84310085Y-127878685D01*
X84310085Y-128307257D01*
X84238657Y-128450114D01*
X84167228Y-128521542D01*
X84024371Y-128592971D01*
X83738657Y-128592971D01*
X83595800Y-128521542D01*
X84810085Y-127592971D02*
X85167228Y-128592971D01*
X85524371Y-127592971D02*
X85167228Y-128592971D01*
X85024371Y-128950114D01*
X84952942Y-129021542D01*
X84810085Y-129092971D01*
X87167228Y-128521542D02*
X87381514Y-128592971D01*
X87738657Y-128592971D01*
X87881514Y-128521542D01*
X87952942Y-128450114D01*
X88024371Y-128307257D01*
X88024371Y-128164400D01*
X87952942Y-128021542D01*
X87881514Y-127950114D01*
X87738657Y-127878685D01*
X87452942Y-127807257D01*
X87310085Y-127735828D01*
X87238657Y-127664400D01*
X87167228Y-127521542D01*
X87167228Y-127378685D01*
X87238657Y-127235828D01*
X87310085Y-127164400D01*
X87452942Y-127092971D01*
X87810085Y-127092971D01*
X88024371Y-127164400D01*
X88452942Y-127592971D02*
X89024371Y-127592971D01*
X88667228Y-127092971D02*
X88667228Y-128378685D01*
X88738657Y-128521542D01*
X88881514Y-128592971D01*
X89024371Y-128592971D01*
X90095800Y-128521542D02*
X89952942Y-128592971D01*
X89667228Y-128592971D01*
X89524371Y-128521542D01*
X89452942Y-128378685D01*
X89452942Y-127807257D01*
X89524371Y-127664400D01*
X89667228Y-127592971D01*
X89952942Y-127592971D01*
X90095800Y-127664400D01*
X90167228Y-127807257D01*
X90167228Y-127950114D01*
X89452942Y-128092971D01*
X90667228Y-127592971D02*
X91024371Y-128592971D01*
X91381514Y-127592971D01*
X92524371Y-128521542D02*
X92381514Y-128592971D01*
X92095800Y-128592971D01*
X91952942Y-128521542D01*
X91881514Y-128378685D01*
X91881514Y-127807257D01*
X91952942Y-127664400D01*
X92095800Y-127592971D01*
X92381514Y-127592971D01*
X92524371Y-127664400D01*
X92595800Y-127807257D01*
X92595800Y-127950114D01*
X91881514Y-128092971D01*
X95167228Y-127164400D02*
X95024371Y-127092971D01*
X94810085Y-127092971D01*
X94595800Y-127164400D01*
X94452942Y-127307257D01*
X94381514Y-127450114D01*
X94310085Y-127735828D01*
X94310085Y-127950114D01*
X94381514Y-128235828D01*
X94452942Y-128378685D01*
X94595800Y-128521542D01*
X94810085Y-128592971D01*
X94952942Y-128592971D01*
X95167228Y-128521542D01*
X95238657Y-128450114D01*
X95238657Y-127950114D01*
X94952942Y-127950114D01*
X95881514Y-128592971D02*
X95881514Y-127592971D01*
X95881514Y-127878685D02*
X95952942Y-127735828D01*
X96024371Y-127664400D01*
X96167228Y-127592971D01*
X96310085Y-127592971D01*
X97452942Y-128592971D02*
X97452942Y-127807257D01*
X97381514Y-127664400D01*
X97238657Y-127592971D01*
X96952942Y-127592971D01*
X96810085Y-127664400D01*
X97452942Y-128521542D02*
X97310085Y-128592971D01*
X96952942Y-128592971D01*
X96810085Y-128521542D01*
X96738657Y-128378685D01*
X96738657Y-128235828D01*
X96810085Y-128092971D01*
X96952942Y-128021542D01*
X97310085Y-128021542D01*
X97452942Y-127950114D01*
X98024371Y-127592971D02*
X98381514Y-128592971D01*
X98738657Y-127592971D02*
X98381514Y-128592971D01*
X98238657Y-128950114D01*
X98167228Y-129021542D01*
X98024371Y-129092971D01*
X100310085Y-127592971D02*
X100667228Y-128592971D01*
X101024371Y-127592971D01*
X102381514Y-128592971D02*
X101524371Y-128592971D01*
X101952942Y-128592971D02*
X101952942Y-127092971D01*
X101810085Y-127307257D01*
X101667228Y-127450114D01*
X101524371Y-127521542D01*
X103024371Y-128450114D02*
X103095800Y-128521542D01*
X103024371Y-128592971D01*
X102952942Y-128521542D01*
X103024371Y-128450114D01*
X103024371Y-128592971D01*
X104024371Y-127092971D02*
X104167228Y-127092971D01*
X104310085Y-127164400D01*
X104381514Y-127235828D01*
X104452942Y-127378685D01*
X104524371Y-127664400D01*
X104524371Y-128021542D01*
X104452942Y-128307257D01*
X104381514Y-128450114D01*
X104310085Y-128521542D01*
X104167228Y-128592971D01*
X104024371Y-128592971D01*
X103881514Y-128521542D01*
X103810085Y-128450114D01*
X103738657Y-128307257D01*
X103667228Y-128021542D01*
X103667228Y-127664400D01*
X103738657Y-127378685D01*
X103810085Y-127235828D01*
X103881514Y-127164400D01*
X104024371Y-127092971D01*
X106238657Y-127235828D02*
X106310085Y-127164400D01*
X106452942Y-127092971D01*
X106810085Y-127092971D01*
X106952942Y-127164400D01*
X107024371Y-127235828D01*
X107095800Y-127378685D01*
X107095800Y-127521542D01*
X107024371Y-127735828D01*
X106167228Y-128592971D01*
X107095800Y-128592971D01*
X108024371Y-127092971D02*
X108167228Y-127092971D01*
X108310085Y-127164400D01*
X108381514Y-127235828D01*
X108452942Y-127378685D01*
X108524371Y-127664400D01*
X108524371Y-128021542D01*
X108452942Y-128307257D01*
X108381514Y-128450114D01*
X108310085Y-128521542D01*
X108167228Y-128592971D01*
X108024371Y-128592971D01*
X107881514Y-128521542D01*
X107810085Y-128450114D01*
X107738657Y-128307257D01*
X107667228Y-128021542D01*
X107667228Y-127664400D01*
X107738657Y-127378685D01*
X107810085Y-127235828D01*
X107881514Y-127164400D01*
X108024371Y-127092971D01*
X109095799Y-127235828D02*
X109167228Y-127164400D01*
X109310085Y-127092971D01*
X109667228Y-127092971D01*
X109810085Y-127164400D01*
X109881514Y-127235828D01*
X109952942Y-127378685D01*
X109952942Y-127521542D01*
X109881514Y-127735828D01*
X109024371Y-128592971D01*
X109952942Y-128592971D01*
X110524371Y-127235828D02*
X110595799Y-127164400D01*
X110738657Y-127092971D01*
X111095799Y-127092971D01*
X111238657Y-127164400D01*
X111310085Y-127235828D01*
X111381514Y-127378685D01*
X111381514Y-127521542D01*
X111310085Y-127735828D01*
X110452942Y-128592971D01*
X111381514Y-128592971D01*
X112024371Y-128021542D02*
X113167228Y-128021542D01*
X114167228Y-127092971D02*
X114310085Y-127092971D01*
X114452942Y-127164400D01*
X114524371Y-127235828D01*
X114595799Y-127378685D01*
X114667228Y-127664400D01*
X114667228Y-128021542D01*
X114595799Y-128307257D01*
X114524371Y-128450114D01*
X114452942Y-128521542D01*
X114310085Y-128592971D01*
X114167228Y-128592971D01*
X114024371Y-128521542D01*
X113952942Y-128450114D01*
X113881514Y-128307257D01*
X113810085Y-128021542D01*
X113810085Y-127664400D01*
X113881514Y-127378685D01*
X113952942Y-127235828D01*
X114024371Y-127164400D01*
X114167228Y-127092971D01*
X115952942Y-127592971D02*
X115952942Y-128592971D01*
X115595799Y-127021542D02*
X115238657Y-128092971D01*
X116167228Y-128092971D01*
X116738657Y-128021542D02*
X117881514Y-128021542D01*
X119381514Y-128592971D02*
X118524371Y-128592971D01*
X118952942Y-128592971D02*
X118952942Y-127092971D01*
X118810085Y-127307257D01*
X118667228Y-127450114D01*
X118524371Y-127521542D01*
X120095799Y-128592971D02*
X120381514Y-128592971D01*
X120524371Y-128521542D01*
X120595799Y-128450114D01*
X120738657Y-128235828D01*
X120810085Y-127950114D01*
X120810085Y-127378685D01*
X120738657Y-127235828D01*
X120667228Y-127164400D01*
X120524371Y-127092971D01*
X120238657Y-127092971D01*
X120095799Y-127164400D01*
X120024371Y-127235828D01*
X119952942Y-127378685D01*
X119952942Y-127735828D01*
X120024371Y-127878685D01*
X120095799Y-127950114D01*
X120238657Y-128021542D01*
X120524371Y-128021542D01*
X120667228Y-127950114D01*
X120738657Y-127878685D01*
X120810085Y-127735828D01*
X108219028Y-38904171D02*
X109076171Y-38904171D01*
X108647600Y-40404171D02*
X108647600Y-38904171D01*
X109361885Y-38904171D02*
X110219028Y-38904171D01*
X109790457Y-40404171D02*
X109790457Y-38904171D01*
X111433314Y-40404171D02*
X110719028Y-40404171D01*
X110719028Y-38904171D01*
X113004742Y-40332742D02*
X113219028Y-40404171D01*
X113576171Y-40404171D01*
X113719028Y-40332742D01*
X113790457Y-40261314D01*
X113861885Y-40118457D01*
X113861885Y-39975600D01*
X113790457Y-39832742D01*
X113719028Y-39761314D01*
X113576171Y-39689885D01*
X113290457Y-39618457D01*
X113147600Y-39547028D01*
X113076171Y-39475600D01*
X113004742Y-39332742D01*
X113004742Y-39189885D01*
X113076171Y-39047028D01*
X113147600Y-38975600D01*
X113290457Y-38904171D01*
X113647600Y-38904171D01*
X113861885Y-38975600D01*
X114504742Y-39618457D02*
X115004742Y-39618457D01*
X115219028Y-40404171D02*
X114504742Y-40404171D01*
X114504742Y-38904171D01*
X115219028Y-38904171D01*
X116719028Y-40404171D02*
X116219028Y-39689885D01*
X115861885Y-40404171D02*
X115861885Y-38904171D01*
X116433314Y-38904171D01*
X116576171Y-38975600D01*
X116647600Y-39047028D01*
X116719028Y-39189885D01*
X116719028Y-39404171D01*
X116647600Y-39547028D01*
X116576171Y-39618457D01*
X116433314Y-39689885D01*
X115861885Y-39689885D01*
X117361885Y-40404171D02*
X117361885Y-38904171D01*
X118004742Y-39975600D02*
X118719028Y-39975600D01*
X117861885Y-40404171D02*
X118361885Y-38904171D01*
X118861885Y-40404171D01*
X120076171Y-40404171D02*
X119361885Y-40404171D01*
X119361885Y-38904171D01*
X42533428Y-62629928D02*
X42604857Y-62558500D01*
X42747714Y-62487071D01*
X43104857Y-62487071D01*
X43247714Y-62558500D01*
X43319142Y-62629928D01*
X43390571Y-62772785D01*
X43390571Y-62915642D01*
X43319142Y-63129928D01*
X42462000Y-63987071D01*
X43390571Y-63987071D01*
X44033428Y-63987071D02*
X44033428Y-62487071D01*
X44533428Y-63558500D01*
X45033428Y-62487071D01*
X45033428Y-63987071D01*
X45747714Y-63987071D02*
X45747714Y-62487071D01*
X45747714Y-63201357D02*
X46604857Y-63201357D01*
X46604857Y-63987071D02*
X46604857Y-62487071D01*
X47176285Y-62987071D02*
X47962000Y-62987071D01*
X47176285Y-63987071D01*
X47962000Y-63987071D01*
X43390571Y-66402071D02*
X42533428Y-66402071D01*
X42962000Y-66402071D02*
X42962000Y-64902071D01*
X42819142Y-65116357D01*
X42676285Y-65259214D01*
X42533428Y-65330642D01*
X44033428Y-66402071D02*
X44033428Y-64902071D01*
X44533428Y-65973500D01*
X45033428Y-64902071D01*
X45033428Y-66402071D01*
X45747714Y-66402071D02*
X45747714Y-64902071D01*
X45747714Y-65616357D02*
X46604857Y-65616357D01*
X46604857Y-66402071D02*
X46604857Y-64902071D01*
X47176285Y-65402071D02*
X47962000Y-65402071D01*
X47176285Y-66402071D01*
X47962000Y-66402071D01*
X36289314Y-60784514D02*
X36217885Y-60855942D01*
X36003600Y-60927371D01*
X35860742Y-60927371D01*
X35646457Y-60855942D01*
X35503600Y-60713085D01*
X35432171Y-60570228D01*
X35360742Y-60284514D01*
X35360742Y-60070228D01*
X35432171Y-59784514D01*
X35503600Y-59641657D01*
X35646457Y-59498800D01*
X35860742Y-59427371D01*
X36003600Y-59427371D01*
X36217885Y-59498800D01*
X36289314Y-59570228D01*
X36932171Y-60927371D02*
X36932171Y-59427371D01*
X37503600Y-59427371D01*
X37646457Y-59498800D01*
X37717885Y-59570228D01*
X37789314Y-59713085D01*
X37789314Y-59927371D01*
X37717885Y-60070228D01*
X37646457Y-60141657D01*
X37503600Y-60213085D01*
X36932171Y-60213085D01*
X38432171Y-59427371D02*
X38432171Y-60641657D01*
X38503600Y-60784514D01*
X38575028Y-60855942D01*
X38717885Y-60927371D01*
X39003600Y-60927371D01*
X39146457Y-60855942D01*
X39217885Y-60784514D01*
X39289314Y-60641657D01*
X39289314Y-59427371D01*
X41075028Y-60855942D02*
X41289314Y-60927371D01*
X41646457Y-60927371D01*
X41789314Y-60855942D01*
X41860742Y-60784514D01*
X41932171Y-60641657D01*
X41932171Y-60498800D01*
X41860742Y-60355942D01*
X41789314Y-60284514D01*
X41646457Y-60213085D01*
X41360742Y-60141657D01*
X41217885Y-60070228D01*
X41146457Y-59998800D01*
X41075028Y-59855942D01*
X41075028Y-59713085D01*
X41146457Y-59570228D01*
X41217885Y-59498800D01*
X41360742Y-59427371D01*
X41717885Y-59427371D01*
X41932171Y-59498800D01*
X42575028Y-60927371D02*
X42575028Y-59427371D01*
X43146457Y-59427371D01*
X43289314Y-59498800D01*
X43360742Y-59570228D01*
X43432171Y-59713085D01*
X43432171Y-59927371D01*
X43360742Y-60070228D01*
X43289314Y-60141657D01*
X43146457Y-60213085D01*
X42575028Y-60213085D01*
X44075028Y-60141657D02*
X44575028Y-60141657D01*
X44789314Y-60927371D02*
X44075028Y-60927371D01*
X44075028Y-59427371D01*
X44789314Y-59427371D01*
X45432171Y-60141657D02*
X45932171Y-60141657D01*
X46146457Y-60927371D02*
X45432171Y-60927371D01*
X45432171Y-59427371D01*
X46146457Y-59427371D01*
X46789314Y-60927371D02*
X46789314Y-59427371D01*
X47146457Y-59427371D01*
X47360742Y-59498800D01*
X47503600Y-59641657D01*
X47575028Y-59784514D01*
X47646457Y-60070228D01*
X47646457Y-60284514D01*
X47575028Y-60570228D01*
X47503600Y-60713085D01*
X47360742Y-60855942D01*
X47146457Y-60927371D01*
X46789314Y-60927371D01*
X95139428Y-52974761D02*
X94472761Y-52022380D01*
X93996571Y-52974761D02*
X93996571Y-50974761D01*
X94758476Y-50974761D01*
X94948952Y-51070000D01*
X95044190Y-51165238D01*
X95139428Y-51355714D01*
X95139428Y-51641428D01*
X95044190Y-51831904D01*
X94948952Y-51927142D01*
X94758476Y-52022380D01*
X93996571Y-52022380D01*
X95901333Y-52879523D02*
X96187047Y-52974761D01*
X96663238Y-52974761D01*
X96853714Y-52879523D01*
X96948952Y-52784285D01*
X97044190Y-52593809D01*
X97044190Y-52403333D01*
X96948952Y-52212857D01*
X96853714Y-52117619D01*
X96663238Y-52022380D01*
X96282285Y-51927142D01*
X96091809Y-51831904D01*
X95996571Y-51736666D01*
X95901333Y-51546190D01*
X95901333Y-51355714D01*
X95996571Y-51165238D01*
X96091809Y-51070000D01*
X96282285Y-50974761D01*
X96758476Y-50974761D01*
X97044190Y-51070000D01*
X97901333Y-52212857D02*
X99425142Y-52212857D01*
X100282285Y-51165238D02*
X100377523Y-51070000D01*
X100568000Y-50974761D01*
X101044190Y-50974761D01*
X101234666Y-51070000D01*
X101329904Y-51165238D01*
X101425142Y-51355714D01*
X101425142Y-51546190D01*
X101329904Y-51831904D01*
X100187047Y-52974761D01*
X101425142Y-52974761D01*
X102091809Y-50974761D02*
X103329904Y-50974761D01*
X102663238Y-51736666D01*
X102948952Y-51736666D01*
X103139428Y-51831904D01*
X103234666Y-51927142D01*
X103329904Y-52117619D01*
X103329904Y-52593809D01*
X103234666Y-52784285D01*
X103139428Y-52879523D01*
X102948952Y-52974761D01*
X102377523Y-52974761D01*
X102187047Y-52879523D01*
X102091809Y-52784285D01*
X104091809Y-51165238D02*
X104187047Y-51070000D01*
X104377523Y-50974761D01*
X104853714Y-50974761D01*
X105044190Y-51070000D01*
X105139428Y-51165238D01*
X105234666Y-51355714D01*
X105234666Y-51546190D01*
X105139428Y-51831904D01*
X103996571Y-52974761D01*
X105234666Y-52974761D01*
X63071238Y-65377085D02*
X63071238Y-66710419D01*
X61071238Y-65853276D01*
X62404571Y-68329466D02*
X61071238Y-68329466D01*
X63166476Y-67853276D02*
X61737904Y-67377085D01*
X61737904Y-68615180D01*
X61071238Y-70329466D02*
X61071238Y-69377085D01*
X63071238Y-69377085D01*
X61166476Y-70900895D02*
X61071238Y-71186609D01*
X61071238Y-71662800D01*
X61166476Y-71853276D01*
X61261714Y-71948514D01*
X61452190Y-72043752D01*
X61642666Y-72043752D01*
X61833142Y-71948514D01*
X61928380Y-71853276D01*
X62023619Y-71662800D01*
X62118857Y-71281847D01*
X62214095Y-71091371D01*
X62309333Y-70996133D01*
X62499809Y-70900895D01*
X62690285Y-70900895D01*
X62880761Y-70996133D01*
X62976000Y-71091371D01*
X63071238Y-71281847D01*
X63071238Y-71758038D01*
X62976000Y-72043752D01*
X63071238Y-73281847D02*
X63071238Y-73472323D01*
X62976000Y-73662800D01*
X62880761Y-73758038D01*
X62690285Y-73853276D01*
X62309333Y-73948514D01*
X61833142Y-73948514D01*
X61452190Y-73853276D01*
X61261714Y-73758038D01*
X61166476Y-73662800D01*
X61071238Y-73472323D01*
X61071238Y-73281847D01*
X61166476Y-73091371D01*
X61261714Y-72996133D01*
X61452190Y-72900895D01*
X61833142Y-72805657D01*
X62309333Y-72805657D01*
X62690285Y-72900895D01*
X62880761Y-72996133D01*
X62976000Y-73091371D01*
X63071238Y-73281847D01*
X62404571Y-75662800D02*
X61071238Y-75662800D01*
X63166476Y-75186609D02*
X61737904Y-74710419D01*
X61737904Y-75948514D01*
X76939638Y-65123085D02*
X76939638Y-66456419D01*
X74939638Y-65599276D01*
X76272971Y-68075466D02*
X74939638Y-68075466D01*
X77034876Y-67599276D02*
X75606304Y-67123085D01*
X75606304Y-68361180D01*
X74939638Y-70075466D02*
X74939638Y-69123085D01*
X76939638Y-69123085D01*
X75034876Y-70646895D02*
X74939638Y-70932609D01*
X74939638Y-71408800D01*
X75034876Y-71599276D01*
X75130114Y-71694514D01*
X75320590Y-71789752D01*
X75511066Y-71789752D01*
X75701542Y-71694514D01*
X75796780Y-71599276D01*
X75892019Y-71408800D01*
X75987257Y-71027847D01*
X76082495Y-70837371D01*
X76177733Y-70742133D01*
X76368209Y-70646895D01*
X76558685Y-70646895D01*
X76749161Y-70742133D01*
X76844400Y-70837371D01*
X76939638Y-71027847D01*
X76939638Y-71504038D01*
X76844400Y-71789752D01*
X76939638Y-72456419D02*
X76939638Y-73789752D01*
X74939638Y-72932609D01*
X76272971Y-75408800D02*
X74939638Y-75408800D01*
X77034876Y-74932609D02*
X75606304Y-74456419D01*
X75606304Y-75694514D01*
X106556038Y-71269885D02*
X106556038Y-72603219D01*
X104556038Y-71746076D01*
X105889371Y-74222266D02*
X104556038Y-74222266D01*
X106651276Y-73746076D02*
X105222704Y-73269885D01*
X105222704Y-74507980D01*
X104556038Y-76222266D02*
X104556038Y-75269885D01*
X106556038Y-75269885D01*
X104651276Y-76793695D02*
X104556038Y-77079409D01*
X104556038Y-77555600D01*
X104651276Y-77746076D01*
X104746514Y-77841314D01*
X104936990Y-77936552D01*
X105127466Y-77936552D01*
X105317942Y-77841314D01*
X105413180Y-77746076D01*
X105508419Y-77555600D01*
X105603657Y-77174647D01*
X105698895Y-76984171D01*
X105794133Y-76888933D01*
X105984609Y-76793695D01*
X106175085Y-76793695D01*
X106365561Y-76888933D01*
X106460800Y-76984171D01*
X106556038Y-77174647D01*
X106556038Y-77650838D01*
X106460800Y-77936552D01*
X106556038Y-79174647D02*
X106556038Y-79365123D01*
X106460800Y-79555600D01*
X106365561Y-79650838D01*
X106175085Y-79746076D01*
X105794133Y-79841314D01*
X105317942Y-79841314D01*
X104936990Y-79746076D01*
X104746514Y-79650838D01*
X104651276Y-79555600D01*
X104556038Y-79365123D01*
X104556038Y-79174647D01*
X104651276Y-78984171D01*
X104746514Y-78888933D01*
X104936990Y-78793695D01*
X105317942Y-78698457D01*
X105794133Y-78698457D01*
X106175085Y-78793695D01*
X106365561Y-78888933D01*
X106460800Y-78984171D01*
X106556038Y-79174647D01*
X106556038Y-81079409D02*
X106556038Y-81269885D01*
X106460800Y-81460361D01*
X106365561Y-81555600D01*
X106175085Y-81650838D01*
X105794133Y-81746076D01*
X105317942Y-81746076D01*
X104936990Y-81650838D01*
X104746514Y-81555600D01*
X104651276Y-81460361D01*
X104556038Y-81269885D01*
X104556038Y-81079409D01*
X104651276Y-80888933D01*
X104746514Y-80793695D01*
X104936990Y-80698457D01*
X105317942Y-80603219D01*
X105794133Y-80603219D01*
X106175085Y-80698457D01*
X106365561Y-80793695D01*
X106460800Y-80888933D01*
X106556038Y-81079409D01*
X91417638Y-66050304D02*
X91417638Y-67383638D01*
X89417638Y-66526495D01*
X90750971Y-69002685D02*
X89417638Y-69002685D01*
X91512876Y-68526495D02*
X90084304Y-68050304D01*
X90084304Y-69288400D01*
X89417638Y-71002685D02*
X89417638Y-70050304D01*
X91417638Y-70050304D01*
X89512876Y-71574114D02*
X89417638Y-71859828D01*
X89417638Y-72336019D01*
X89512876Y-72526495D01*
X89608114Y-72621733D01*
X89798590Y-72716971D01*
X89989066Y-72716971D01*
X90179542Y-72621733D01*
X90274780Y-72526495D01*
X90370019Y-72336019D01*
X90465257Y-71955066D01*
X90560495Y-71764590D01*
X90655733Y-71669352D01*
X90846209Y-71574114D01*
X91036685Y-71574114D01*
X91227161Y-71669352D01*
X91322400Y-71764590D01*
X91417638Y-71955066D01*
X91417638Y-72431257D01*
X91322400Y-72716971D01*
X89417638Y-74621733D02*
X89417638Y-73478876D01*
X89417638Y-74050304D02*
X91417638Y-74050304D01*
X91131923Y-73859828D01*
X90941447Y-73669352D01*
X90846209Y-73478876D01*
X91417638Y-76336019D02*
X91417638Y-75955066D01*
X91322400Y-75764590D01*
X91227161Y-75669352D01*
X90941447Y-75478876D01*
X90560495Y-75383638D01*
X89798590Y-75383638D01*
X89608114Y-75478876D01*
X89512876Y-75574114D01*
X89417638Y-75764590D01*
X89417638Y-76145542D01*
X89512876Y-76336019D01*
X89608114Y-76431257D01*
X89798590Y-76526495D01*
X90274780Y-76526495D01*
X90465257Y-76431257D01*
X90560495Y-76336019D01*
X90655733Y-76145542D01*
X90655733Y-75764590D01*
X90560495Y-75574114D01*
X90465257Y-75478876D01*
X90274780Y-75383638D01*
X91417638Y-77193161D02*
X91417638Y-78431257D01*
X90655733Y-77764590D01*
X90655733Y-78050304D01*
X90560495Y-78240780D01*
X90465257Y-78336019D01*
X90274780Y-78431257D01*
X89798590Y-78431257D01*
X89608114Y-78336019D01*
X89512876Y-78240780D01*
X89417638Y-78050304D01*
X89417638Y-77478876D01*
X89512876Y-77288400D01*
X89608114Y-77193161D01*
X119796038Y-56541066D02*
X121796038Y-56541066D01*
X120367466Y-57207733D01*
X121796038Y-57874400D01*
X119796038Y-57874400D01*
X120367466Y-58731542D02*
X120367466Y-59683923D01*
X119796038Y-58541066D02*
X121796038Y-59207733D01*
X119796038Y-59874400D01*
X121796038Y-60350590D02*
X119796038Y-61683923D01*
X121796038Y-61683923D02*
X119796038Y-60350590D01*
X121605561Y-62350590D02*
X121700800Y-62445828D01*
X121796038Y-62636304D01*
X121796038Y-63112495D01*
X121700800Y-63302971D01*
X121605561Y-63398209D01*
X121415085Y-63493447D01*
X121224609Y-63493447D01*
X120938895Y-63398209D01*
X119796038Y-62255352D01*
X119796038Y-63493447D01*
X121796038Y-64160114D02*
X121796038Y-65398209D01*
X121034133Y-64731542D01*
X121034133Y-65017257D01*
X120938895Y-65207733D01*
X120843657Y-65302971D01*
X120653180Y-65398209D01*
X120176990Y-65398209D01*
X119986514Y-65302971D01*
X119891276Y-65207733D01*
X119796038Y-65017257D01*
X119796038Y-64445828D01*
X119891276Y-64255352D01*
X119986514Y-64160114D01*
X121605561Y-66160114D02*
X121700800Y-66255352D01*
X121796038Y-66445828D01*
X121796038Y-66922019D01*
X121700800Y-67112495D01*
X121605561Y-67207733D01*
X121415085Y-67302971D01*
X121224609Y-67302971D01*
X120938895Y-67207733D01*
X119796038Y-66064876D01*
X119796038Y-67302971D01*
X124742438Y-80883904D02*
X124742438Y-82217238D01*
X122742438Y-81360095D01*
X124075771Y-83836285D02*
X122742438Y-83836285D01*
X124837676Y-83360095D02*
X123409104Y-82883904D01*
X123409104Y-84122000D01*
X122742438Y-85836285D02*
X122742438Y-84883904D01*
X124742438Y-84883904D01*
X122837676Y-86407714D02*
X122742438Y-86693428D01*
X122742438Y-87169619D01*
X122837676Y-87360095D01*
X122932914Y-87455333D01*
X123123390Y-87550571D01*
X123313866Y-87550571D01*
X123504342Y-87455333D01*
X123599580Y-87360095D01*
X123694819Y-87169619D01*
X123790057Y-86788666D01*
X123885295Y-86598190D01*
X123980533Y-86502952D01*
X124171009Y-86407714D01*
X124361485Y-86407714D01*
X124551961Y-86502952D01*
X124647200Y-86598190D01*
X124742438Y-86788666D01*
X124742438Y-87264857D01*
X124647200Y-87550571D01*
X122742438Y-89455333D02*
X122742438Y-88312476D01*
X122742438Y-88883904D02*
X124742438Y-88883904D01*
X124456723Y-88693428D01*
X124266247Y-88502952D01*
X124171009Y-88312476D01*
X124742438Y-90122000D02*
X124742438Y-91360095D01*
X123980533Y-90693428D01*
X123980533Y-90979142D01*
X123885295Y-91169619D01*
X123790057Y-91264857D01*
X123599580Y-91360095D01*
X123123390Y-91360095D01*
X122932914Y-91264857D01*
X122837676Y-91169619D01*
X122742438Y-90979142D01*
X122742438Y-90407714D01*
X122837676Y-90217238D01*
X122932914Y-90122000D01*
X123885295Y-92502952D02*
X123980533Y-92312476D01*
X124075771Y-92217238D01*
X124266247Y-92122000D01*
X124361485Y-92122000D01*
X124551961Y-92217238D01*
X124647200Y-92312476D01*
X124742438Y-92502952D01*
X124742438Y-92883904D01*
X124647200Y-93074380D01*
X124551961Y-93169619D01*
X124361485Y-93264857D01*
X124266247Y-93264857D01*
X124075771Y-93169619D01*
X123980533Y-93074380D01*
X123885295Y-92883904D01*
X123885295Y-92502952D01*
X123790057Y-92312476D01*
X123694819Y-92217238D01*
X123504342Y-92122000D01*
X123123390Y-92122000D01*
X122932914Y-92217238D01*
X122837676Y-92312476D01*
X122742438Y-92502952D01*
X122742438Y-92883904D01*
X122837676Y-93074380D01*
X122932914Y-93169619D01*
X123123390Y-93264857D01*
X123504342Y-93264857D01*
X123694819Y-93169619D01*
X123790057Y-93074380D01*
X123885295Y-92883904D01*
X124894838Y-107490285D02*
X124894838Y-108823619D01*
X122894838Y-107966476D01*
X124228171Y-110442666D02*
X122894838Y-110442666D01*
X124990076Y-109966476D02*
X123561504Y-109490285D01*
X123561504Y-110728380D01*
X122894838Y-112442666D02*
X122894838Y-111490285D01*
X124894838Y-111490285D01*
X122990076Y-113014095D02*
X122894838Y-113299809D01*
X122894838Y-113776000D01*
X122990076Y-113966476D01*
X123085314Y-114061714D01*
X123275790Y-114156952D01*
X123466266Y-114156952D01*
X123656742Y-114061714D01*
X123751980Y-113966476D01*
X123847219Y-113776000D01*
X123942457Y-113395047D01*
X124037695Y-113204571D01*
X124132933Y-113109333D01*
X124323409Y-113014095D01*
X124513885Y-113014095D01*
X124704361Y-113109333D01*
X124799600Y-113204571D01*
X124894838Y-113395047D01*
X124894838Y-113871238D01*
X124799600Y-114156952D01*
X124894838Y-115395047D02*
X124894838Y-115585523D01*
X124799600Y-115776000D01*
X124704361Y-115871238D01*
X124513885Y-115966476D01*
X124132933Y-116061714D01*
X123656742Y-116061714D01*
X123275790Y-115966476D01*
X123085314Y-115871238D01*
X122990076Y-115776000D01*
X122894838Y-115585523D01*
X122894838Y-115395047D01*
X122990076Y-115204571D01*
X123085314Y-115109333D01*
X123275790Y-115014095D01*
X123656742Y-114918857D01*
X124132933Y-114918857D01*
X124513885Y-115014095D01*
X124704361Y-115109333D01*
X124799600Y-115204571D01*
X124894838Y-115395047D01*
X124704361Y-116823619D02*
X124799600Y-116918857D01*
X124894838Y-117109333D01*
X124894838Y-117585523D01*
X124799600Y-117776000D01*
X124704361Y-117871238D01*
X124513885Y-117966476D01*
X124323409Y-117966476D01*
X124037695Y-117871238D01*
X122894838Y-116728380D01*
X122894838Y-117966476D01*
X108373657Y-96729257D02*
X108373657Y-96157828D01*
X108230800Y-95872114D01*
X108087942Y-95729257D01*
X107659371Y-95443542D01*
X107087942Y-95300685D01*
X105945085Y-95300685D01*
X105659371Y-95443542D01*
X105516514Y-95586400D01*
X105373657Y-95872114D01*
X105373657Y-96443542D01*
X105516514Y-96729257D01*
X105659371Y-96872114D01*
X105945085Y-97014971D01*
X106659371Y-97014971D01*
X106945085Y-96872114D01*
X107087942Y-96729257D01*
X107230800Y-96443542D01*
X107230800Y-95872114D01*
X107087942Y-95586400D01*
X106945085Y-95443542D01*
X106659371Y-95300685D01*
X107087942Y-98729257D02*
X107230800Y-98443542D01*
X107373657Y-98300685D01*
X107659371Y-98157828D01*
X107802228Y-98157828D01*
X108087942Y-98300685D01*
X108230800Y-98443542D01*
X108373657Y-98729257D01*
X108373657Y-99300685D01*
X108230800Y-99586400D01*
X108087942Y-99729257D01*
X107802228Y-99872114D01*
X107659371Y-99872114D01*
X107373657Y-99729257D01*
X107230800Y-99586400D01*
X107087942Y-99300685D01*
X107087942Y-98729257D01*
X106945085Y-98443542D01*
X106802228Y-98300685D01*
X106516514Y-98157828D01*
X105945085Y-98157828D01*
X105659371Y-98300685D01*
X105516514Y-98443542D01*
X105373657Y-98729257D01*
X105373657Y-99300685D01*
X105516514Y-99586400D01*
X105659371Y-99729257D01*
X105945085Y-99872114D01*
X106516514Y-99872114D01*
X106802228Y-99729257D01*
X106945085Y-99586400D01*
X107087942Y-99300685D01*
X108373657Y-102586400D02*
X108373657Y-101157828D01*
X106945085Y-101014971D01*
X107087942Y-101157828D01*
X107230800Y-101443542D01*
X107230800Y-102157828D01*
X107087942Y-102443542D01*
X106945085Y-102586400D01*
X106659371Y-102729257D01*
X105945085Y-102729257D01*
X105659371Y-102586400D01*
X105516514Y-102443542D01*
X105373657Y-102157828D01*
X105373657Y-101443542D01*
X105516514Y-101157828D01*
X105659371Y-101014971D01*
X108373657Y-104586400D02*
X108373657Y-104872114D01*
X108230800Y-105157828D01*
X108087942Y-105300685D01*
X107802228Y-105443542D01*
X107230800Y-105586400D01*
X106516514Y-105586400D01*
X105945085Y-105443542D01*
X105659371Y-105300685D01*
X105516514Y-105157828D01*
X105373657Y-104872114D01*
X105373657Y-104586400D01*
X105516514Y-104300685D01*
X105659371Y-104157828D01*
X105945085Y-104014971D01*
X106516514Y-103872114D01*
X107230800Y-103872114D01*
X107802228Y-104014971D01*
X108087942Y-104157828D01*
X108230800Y-104300685D01*
X108373657Y-104586400D01*
X108373657Y-109157828D02*
X105945085Y-109157828D01*
X105659371Y-109300685D01*
X105516514Y-109443542D01*
X105373657Y-109729257D01*
X105373657Y-110300685D01*
X105516514Y-110586400D01*
X105659371Y-110729257D01*
X105945085Y-110872114D01*
X108373657Y-110872114D01*
X106230800Y-112157828D02*
X106230800Y-113586400D01*
X105373657Y-111872114D02*
X108373657Y-112872114D01*
X105373657Y-113872114D01*
X105373657Y-116586400D02*
X106802228Y-115586400D01*
X105373657Y-114872114D02*
X108373657Y-114872114D01*
X108373657Y-116014971D01*
X108230800Y-116300685D01*
X108087942Y-116443542D01*
X107802228Y-116586400D01*
X107373657Y-116586400D01*
X107087942Y-116443542D01*
X106945085Y-116300685D01*
X106802228Y-116014971D01*
X106802228Y-114872114D01*
X108373657Y-117443542D02*
X108373657Y-119157828D01*
X105373657Y-118300685D02*
X108373657Y-118300685D01*
X87056742Y-90103657D02*
X87199600Y-90246514D01*
X87342457Y-90532228D01*
X87342457Y-91246514D01*
X87199600Y-91532228D01*
X87056742Y-91675085D01*
X86771028Y-91817942D01*
X86485314Y-91817942D01*
X86056742Y-91675085D01*
X84342457Y-89960800D01*
X84342457Y-91817942D01*
X87342457Y-92817942D02*
X87342457Y-94817942D01*
X84342457Y-93532228D01*
X87056742Y-95817942D02*
X87199600Y-95960800D01*
X87342457Y-96246514D01*
X87342457Y-96960800D01*
X87199600Y-97246514D01*
X87056742Y-97389371D01*
X86771028Y-97532228D01*
X86485314Y-97532228D01*
X86056742Y-97389371D01*
X84342457Y-95675085D01*
X84342457Y-97532228D01*
X87342457Y-100246514D02*
X87342457Y-98817942D01*
X85913885Y-98675085D01*
X86056742Y-98817942D01*
X86199600Y-99103657D01*
X86199600Y-99817942D01*
X86056742Y-100103657D01*
X85913885Y-100246514D01*
X85628171Y-100389371D01*
X84913885Y-100389371D01*
X84628171Y-100246514D01*
X84485314Y-100103657D01*
X84342457Y-99817942D01*
X84342457Y-99103657D01*
X84485314Y-98817942D01*
X84628171Y-98675085D01*
X87342457Y-102960800D02*
X87342457Y-102389371D01*
X87199600Y-102103657D01*
X87056742Y-101960800D01*
X86628171Y-101675085D01*
X86056742Y-101532228D01*
X84913885Y-101532228D01*
X84628171Y-101675085D01*
X84485314Y-101817942D01*
X84342457Y-102103657D01*
X84342457Y-102675085D01*
X84485314Y-102960800D01*
X84628171Y-103103657D01*
X84913885Y-103246514D01*
X85628171Y-103246514D01*
X85913885Y-103103657D01*
X86056742Y-102960800D01*
X86199600Y-102675085D01*
X86199600Y-102103657D01*
X86056742Y-101817942D01*
X85913885Y-101675085D01*
X85628171Y-101532228D01*
X85913885Y-106817942D02*
X85913885Y-107817942D01*
X84342457Y-108246514D02*
X84342457Y-106817942D01*
X87342457Y-106817942D01*
X87342457Y-108246514D01*
X84342457Y-109532228D02*
X87342457Y-109532228D01*
X87342457Y-110675085D01*
X87199600Y-110960800D01*
X87056742Y-111103657D01*
X86771028Y-111246514D01*
X86342457Y-111246514D01*
X86056742Y-111103657D01*
X85913885Y-110960800D01*
X85771028Y-110675085D01*
X85771028Y-109532228D01*
X84342457Y-114246514D02*
X85771028Y-113246514D01*
X84342457Y-112532228D02*
X87342457Y-112532228D01*
X87342457Y-113675085D01*
X87199600Y-113960800D01*
X87056742Y-114103657D01*
X86771028Y-114246514D01*
X86342457Y-114246514D01*
X86056742Y-114103657D01*
X85913885Y-113960800D01*
X85771028Y-113675085D01*
X85771028Y-112532228D01*
X87342457Y-116103657D02*
X87342457Y-116675085D01*
X87199600Y-116960800D01*
X86913885Y-117246514D01*
X86342457Y-117389371D01*
X85342457Y-117389371D01*
X84771028Y-117246514D01*
X84485314Y-116960800D01*
X84342457Y-116675085D01*
X84342457Y-116103657D01*
X84485314Y-115817942D01*
X84771028Y-115532228D01*
X85342457Y-115389371D01*
X86342457Y-115389371D01*
X86913885Y-115532228D01*
X87199600Y-115817942D01*
X87342457Y-116103657D01*
X84342457Y-118675085D02*
X87342457Y-118675085D01*
X85199600Y-119675085D01*
X87342457Y-120675085D01*
X84342457Y-120675085D01*
X66717657Y-92643085D02*
X66717657Y-92071657D01*
X66574800Y-91785942D01*
X66431942Y-91643085D01*
X66003371Y-91357371D01*
X65431942Y-91214514D01*
X64289085Y-91214514D01*
X64003371Y-91357371D01*
X63860514Y-91500228D01*
X63717657Y-91785942D01*
X63717657Y-92357371D01*
X63860514Y-92643085D01*
X64003371Y-92785942D01*
X64289085Y-92928800D01*
X65003371Y-92928800D01*
X65289085Y-92785942D01*
X65431942Y-92643085D01*
X65574800Y-92357371D01*
X65574800Y-91785942D01*
X65431942Y-91500228D01*
X65289085Y-91357371D01*
X65003371Y-91214514D01*
X66431942Y-94071657D02*
X66574800Y-94214514D01*
X66717657Y-94500228D01*
X66717657Y-95214514D01*
X66574800Y-95500228D01*
X66431942Y-95643085D01*
X66146228Y-95785942D01*
X65860514Y-95785942D01*
X65431942Y-95643085D01*
X63717657Y-93928800D01*
X63717657Y-95785942D01*
X66431942Y-96928800D02*
X66574800Y-97071657D01*
X66717657Y-97357371D01*
X66717657Y-98071657D01*
X66574800Y-98357371D01*
X66431942Y-98500228D01*
X66146228Y-98643085D01*
X65860514Y-98643085D01*
X65431942Y-98500228D01*
X63717657Y-96785942D01*
X63717657Y-98643085D01*
X66717657Y-101357371D02*
X66717657Y-99928800D01*
X65289085Y-99785942D01*
X65431942Y-99928800D01*
X65574800Y-100214514D01*
X65574800Y-100928800D01*
X65431942Y-101214514D01*
X65289085Y-101357371D01*
X65003371Y-101500228D01*
X64289085Y-101500228D01*
X64003371Y-101357371D01*
X63860514Y-101214514D01*
X63717657Y-100928800D01*
X63717657Y-100214514D01*
X63860514Y-99928800D01*
X64003371Y-99785942D01*
X66717657Y-104071657D02*
X66717657Y-103500228D01*
X66574800Y-103214514D01*
X66431942Y-103071657D01*
X66003371Y-102785942D01*
X65431942Y-102643085D01*
X64289085Y-102643085D01*
X64003371Y-102785942D01*
X63860514Y-102928800D01*
X63717657Y-103214514D01*
X63717657Y-103785942D01*
X63860514Y-104071657D01*
X64003371Y-104214514D01*
X64289085Y-104357371D01*
X65003371Y-104357371D01*
X65289085Y-104214514D01*
X65431942Y-104071657D01*
X65574800Y-103785942D01*
X65574800Y-103214514D01*
X65431942Y-102928800D01*
X65289085Y-102785942D01*
X65003371Y-102643085D01*
X63717657Y-109643085D02*
X65146228Y-108643085D01*
X63717657Y-107928800D02*
X66717657Y-107928800D01*
X66717657Y-109071657D01*
X66574800Y-109357371D01*
X66431942Y-109500228D01*
X66146228Y-109643085D01*
X65717657Y-109643085D01*
X65431942Y-109500228D01*
X65289085Y-109357371D01*
X65146228Y-109071657D01*
X65146228Y-107928800D01*
X64574800Y-110785942D02*
X64574800Y-112214514D01*
X63717657Y-110500228D02*
X66717657Y-111500228D01*
X63717657Y-112500228D01*
X63717657Y-113500228D02*
X66717657Y-113500228D01*
X64574800Y-114500228D01*
X66717657Y-115500228D01*
X63717657Y-115500228D01*
X46600857Y-88717028D02*
X46600857Y-88145600D01*
X46458000Y-87859885D01*
X46315142Y-87717028D01*
X45886571Y-87431314D01*
X45315142Y-87288457D01*
X44172285Y-87288457D01*
X43886571Y-87431314D01*
X43743714Y-87574171D01*
X43600857Y-87859885D01*
X43600857Y-88431314D01*
X43743714Y-88717028D01*
X43886571Y-88859885D01*
X44172285Y-89002742D01*
X44886571Y-89002742D01*
X45172285Y-88859885D01*
X45315142Y-88717028D01*
X45458000Y-88431314D01*
X45458000Y-87859885D01*
X45315142Y-87574171D01*
X45172285Y-87431314D01*
X44886571Y-87288457D01*
X46600857Y-91717028D02*
X46600857Y-90288457D01*
X45172285Y-90145600D01*
X45315142Y-90288457D01*
X45458000Y-90574171D01*
X45458000Y-91288457D01*
X45315142Y-91574171D01*
X45172285Y-91717028D01*
X44886571Y-91859885D01*
X44172285Y-91859885D01*
X43886571Y-91717028D01*
X43743714Y-91574171D01*
X43600857Y-91288457D01*
X43600857Y-90574171D01*
X43743714Y-90288457D01*
X43886571Y-90145600D01*
X46600857Y-93717028D02*
X46600857Y-94002742D01*
X46458000Y-94288457D01*
X46315142Y-94431314D01*
X46029428Y-94574171D01*
X45458000Y-94717028D01*
X44743714Y-94717028D01*
X44172285Y-94574171D01*
X43886571Y-94431314D01*
X43743714Y-94288457D01*
X43600857Y-94002742D01*
X43600857Y-93717028D01*
X43743714Y-93431314D01*
X43886571Y-93288457D01*
X44172285Y-93145600D01*
X44743714Y-93002742D01*
X45458000Y-93002742D01*
X46029428Y-93145600D01*
X46315142Y-93288457D01*
X46458000Y-93431314D01*
X46600857Y-93717028D01*
X46315142Y-95859885D02*
X46458000Y-96002742D01*
X46600857Y-96288457D01*
X46600857Y-97002742D01*
X46458000Y-97288457D01*
X46315142Y-97431314D01*
X46029428Y-97574171D01*
X45743714Y-97574171D01*
X45315142Y-97431314D01*
X43600857Y-95717028D01*
X43600857Y-97574171D01*
X43886571Y-102859885D02*
X43743714Y-102717028D01*
X43600857Y-102288457D01*
X43600857Y-102002742D01*
X43743714Y-101574171D01*
X44029428Y-101288457D01*
X44315142Y-101145600D01*
X44886571Y-101002742D01*
X45315142Y-101002742D01*
X45886571Y-101145600D01*
X46172285Y-101288457D01*
X46458000Y-101574171D01*
X46600857Y-102002742D01*
X46600857Y-102288457D01*
X46458000Y-102717028D01*
X46315142Y-102859885D01*
X43600857Y-104145600D02*
X46600857Y-104145600D01*
X46600857Y-105288457D01*
X46458000Y-105574171D01*
X46315142Y-105717028D01*
X46029428Y-105859885D01*
X45600857Y-105859885D01*
X45315142Y-105717028D01*
X45172285Y-105574171D01*
X45029428Y-105288457D01*
X45029428Y-104145600D01*
X46600857Y-107145600D02*
X44172285Y-107145600D01*
X43886571Y-107288457D01*
X43743714Y-107431314D01*
X43600857Y-107717028D01*
X43600857Y-108288457D01*
X43743714Y-108574171D01*
X43886571Y-108717028D01*
X44172285Y-108859885D01*
X46600857Y-108859885D01*
X37343828Y-47617771D02*
X36843828Y-46903485D01*
X36486685Y-47617771D02*
X36486685Y-46117771D01*
X37058114Y-46117771D01*
X37200971Y-46189200D01*
X37272400Y-46260628D01*
X37343828Y-46403485D01*
X37343828Y-46617771D01*
X37272400Y-46760628D01*
X37200971Y-46832057D01*
X37058114Y-46903485D01*
X36486685Y-46903485D01*
X37986685Y-46832057D02*
X38486685Y-46832057D01*
X38700971Y-47617771D02*
X37986685Y-47617771D01*
X37986685Y-46117771D01*
X38700971Y-46117771D01*
X39272400Y-47546342D02*
X39486685Y-47617771D01*
X39843828Y-47617771D01*
X39986685Y-47546342D01*
X40058114Y-47474914D01*
X40129542Y-47332057D01*
X40129542Y-47189200D01*
X40058114Y-47046342D01*
X39986685Y-46974914D01*
X39843828Y-46903485D01*
X39558114Y-46832057D01*
X39415257Y-46760628D01*
X39343828Y-46689200D01*
X39272400Y-46546342D01*
X39272400Y-46403485D01*
X39343828Y-46260628D01*
X39415257Y-46189200D01*
X39558114Y-46117771D01*
X39915257Y-46117771D01*
X40129542Y-46189200D01*
X40772400Y-46832057D02*
X41272400Y-46832057D01*
X41486685Y-47617771D02*
X40772400Y-47617771D01*
X40772400Y-46117771D01*
X41486685Y-46117771D01*
X41915257Y-46117771D02*
X42772400Y-46117771D01*
X42343828Y-47617771D02*
X42343828Y-46117771D01*
X60606514Y-50892971D02*
X59892228Y-50892971D01*
X59820800Y-51607257D01*
X59892228Y-51535828D01*
X60035085Y-51464400D01*
X60392228Y-51464400D01*
X60535085Y-51535828D01*
X60606514Y-51607257D01*
X60677942Y-51750114D01*
X60677942Y-52107257D01*
X60606514Y-52250114D01*
X60535085Y-52321542D01*
X60392228Y-52392971D01*
X60035085Y-52392971D01*
X59892228Y-52321542D01*
X59820800Y-52250114D01*
X61177942Y-51392971D02*
X61535085Y-52392971D01*
X61892228Y-51392971D01*
X62677942Y-52392971D02*
X62535085Y-52321542D01*
X62463657Y-52250114D01*
X62392228Y-52107257D01*
X62392228Y-51678685D01*
X62463657Y-51535828D01*
X62535085Y-51464400D01*
X62677942Y-51392971D01*
X62892228Y-51392971D01*
X63035085Y-51464400D01*
X63106514Y-51535828D01*
X63177942Y-51678685D01*
X63177942Y-52107257D01*
X63106514Y-52250114D01*
X63035085Y-52321542D01*
X62892228Y-52392971D01*
X62677942Y-52392971D01*
X64035085Y-52392971D02*
X63892228Y-52321542D01*
X63820800Y-52178685D01*
X63820800Y-50892971D01*
X64392228Y-51392971D02*
X64963657Y-51392971D01*
X64606514Y-50892971D02*
X64606514Y-52178685D01*
X64677942Y-52321542D01*
X64820800Y-52392971D01*
X64963657Y-52392971D01*
X67035085Y-52964400D02*
X66963657Y-52892971D01*
X66820800Y-52678685D01*
X66749371Y-52535828D01*
X66677942Y-52321542D01*
X66606514Y-51964400D01*
X66606514Y-51678685D01*
X66677942Y-51321542D01*
X66749371Y-51107257D01*
X66820800Y-50964400D01*
X66963657Y-50750114D01*
X67035085Y-50678685D01*
X67606514Y-51821542D02*
X68749371Y-51821542D01*
X68177942Y-52392971D02*
X68177942Y-51250114D01*
X69320800Y-52964400D02*
X69392228Y-52892971D01*
X69535085Y-52678685D01*
X69606514Y-52535828D01*
X69677942Y-52321542D01*
X69749371Y-51964400D01*
X69749371Y-51678685D01*
X69677942Y-51321542D01*
X69606514Y-51107257D01*
X69535085Y-50964400D01*
X69392228Y-50750114D01*
X69320800Y-50678685D01*
X70452942Y-125951371D02*
X70452942Y-124451371D01*
X70810085Y-124451371D01*
X71024371Y-124522800D01*
X71167228Y-124665657D01*
X71238657Y-124808514D01*
X71310085Y-125094228D01*
X71310085Y-125308514D01*
X71238657Y-125594228D01*
X71167228Y-125737085D01*
X71024371Y-125879942D01*
X70810085Y-125951371D01*
X70452942Y-125951371D01*
X72524371Y-125879942D02*
X72381514Y-125951371D01*
X72095800Y-125951371D01*
X71952942Y-125879942D01*
X71881514Y-125737085D01*
X71881514Y-125165657D01*
X71952942Y-125022800D01*
X72095800Y-124951371D01*
X72381514Y-124951371D01*
X72524371Y-125022800D01*
X72595800Y-125165657D01*
X72595800Y-125308514D01*
X71881514Y-125451371D01*
X73167228Y-125879942D02*
X73310085Y-125951371D01*
X73595800Y-125951371D01*
X73738657Y-125879942D01*
X73810085Y-125737085D01*
X73810085Y-125665657D01*
X73738657Y-125522800D01*
X73595800Y-125451371D01*
X73381514Y-125451371D01*
X73238657Y-125379942D01*
X73167228Y-125237085D01*
X73167228Y-125165657D01*
X73238657Y-125022800D01*
X73381514Y-124951371D01*
X73595800Y-124951371D01*
X73738657Y-125022800D01*
X74452942Y-125951371D02*
X74452942Y-124951371D01*
X74452942Y-124451371D02*
X74381514Y-124522800D01*
X74452942Y-124594228D01*
X74524371Y-124522800D01*
X74452942Y-124451371D01*
X74452942Y-124594228D01*
X75810085Y-124951371D02*
X75810085Y-126165657D01*
X75738657Y-126308514D01*
X75667228Y-126379942D01*
X75524371Y-126451371D01*
X75310085Y-126451371D01*
X75167228Y-126379942D01*
X75810085Y-125879942D02*
X75667228Y-125951371D01*
X75381514Y-125951371D01*
X75238657Y-125879942D01*
X75167228Y-125808514D01*
X75095800Y-125665657D01*
X75095800Y-125237085D01*
X75167228Y-125094228D01*
X75238657Y-125022800D01*
X75381514Y-124951371D01*
X75667228Y-124951371D01*
X75810085Y-125022800D01*
X76524371Y-124951371D02*
X76524371Y-125951371D01*
X76524371Y-125094228D02*
X76595800Y-125022800D01*
X76738657Y-124951371D01*
X76952942Y-124951371D01*
X77095800Y-125022800D01*
X77167228Y-125165657D01*
X77167228Y-125951371D01*
X79024371Y-125951371D02*
X79024371Y-124451371D01*
X79024371Y-125022800D02*
X79167228Y-124951371D01*
X79452942Y-124951371D01*
X79595800Y-125022800D01*
X79667228Y-125094228D01*
X79738657Y-125237085D01*
X79738657Y-125665657D01*
X79667228Y-125808514D01*
X79595800Y-125879942D01*
X79452942Y-125951371D01*
X79167228Y-125951371D01*
X79024371Y-125879942D01*
X80238657Y-124951371D02*
X80595800Y-125951371D01*
X80952942Y-124951371D02*
X80595800Y-125951371D01*
X80452942Y-126308514D01*
X80381514Y-126379942D01*
X80238657Y-126451371D01*
X83452942Y-124522800D02*
X83310085Y-124451371D01*
X83095800Y-124451371D01*
X82881514Y-124522800D01*
X82738657Y-124665657D01*
X82667228Y-124808514D01*
X82595800Y-125094228D01*
X82595800Y-125308514D01*
X82667228Y-125594228D01*
X82738657Y-125737085D01*
X82881514Y-125879942D01*
X83095800Y-125951371D01*
X83238657Y-125951371D01*
X83452942Y-125879942D01*
X83524371Y-125808514D01*
X83524371Y-125308514D01*
X83238657Y-125308514D01*
X84167228Y-125951371D02*
X84167228Y-124951371D01*
X84167228Y-125237085D02*
X84238657Y-125094228D01*
X84310085Y-125022800D01*
X84452942Y-124951371D01*
X84595800Y-124951371D01*
X85738657Y-125951371D02*
X85738657Y-125165657D01*
X85667228Y-125022800D01*
X85524371Y-124951371D01*
X85238657Y-124951371D01*
X85095800Y-125022800D01*
X85738657Y-125879942D02*
X85595800Y-125951371D01*
X85238657Y-125951371D01*
X85095800Y-125879942D01*
X85024371Y-125737085D01*
X85024371Y-125594228D01*
X85095800Y-125451371D01*
X85238657Y-125379942D01*
X85595800Y-125379942D01*
X85738657Y-125308514D01*
X86452942Y-124951371D02*
X86452942Y-125951371D01*
X86452942Y-125094228D02*
X86524371Y-125022800D01*
X86667228Y-124951371D01*
X86881514Y-124951371D01*
X87024371Y-125022800D01*
X87095800Y-125165657D01*
X87095800Y-125951371D01*
X87595800Y-124951371D02*
X88167228Y-124951371D01*
X87810085Y-124451371D02*
X87810085Y-125737085D01*
X87881514Y-125879942D01*
X88024371Y-125951371D01*
X88167228Y-125951371D01*
X89738657Y-125879942D02*
X89952942Y-125951371D01*
X90310085Y-125951371D01*
X90452942Y-125879942D01*
X90524371Y-125808514D01*
X90595800Y-125665657D01*
X90595800Y-125522800D01*
X90524371Y-125379942D01*
X90452942Y-125308514D01*
X90310085Y-125237085D01*
X90024371Y-125165657D01*
X89881514Y-125094228D01*
X89810085Y-125022800D01*
X89738657Y-124879942D01*
X89738657Y-124737085D01*
X89810085Y-124594228D01*
X89881514Y-124522800D01*
X90024371Y-124451371D01*
X90381514Y-124451371D01*
X90595800Y-124522800D01*
X91810085Y-125879942D02*
X91667228Y-125951371D01*
X91381514Y-125951371D01*
X91238657Y-125879942D01*
X91167228Y-125737085D01*
X91167228Y-125165657D01*
X91238657Y-125022800D01*
X91381514Y-124951371D01*
X91667228Y-124951371D01*
X91810085Y-125022800D01*
X91881514Y-125165657D01*
X91881514Y-125308514D01*
X91167228Y-125451371D01*
X93167228Y-125951371D02*
X93167228Y-125165657D01*
X93095800Y-125022800D01*
X92952942Y-124951371D01*
X92667228Y-124951371D01*
X92524371Y-125022800D01*
X93167228Y-125879942D02*
X93024371Y-125951371D01*
X92667228Y-125951371D01*
X92524371Y-125879942D01*
X92452942Y-125737085D01*
X92452942Y-125594228D01*
X92524371Y-125451371D01*
X92667228Y-125379942D01*
X93024371Y-125379942D01*
X93167228Y-125308514D01*
X93881514Y-125951371D02*
X93881514Y-124951371D01*
X93881514Y-125237085D02*
X93952942Y-125094228D01*
X94024371Y-125022800D01*
X94167228Y-124951371D01*
X94310085Y-124951371D01*
X95024371Y-125951371D02*
X94881514Y-125879942D01*
X94810085Y-125737085D01*
X94810085Y-124451371D01*
X96167228Y-125879942D02*
X96024371Y-125951371D01*
X95738657Y-125951371D01*
X95595800Y-125879942D01*
X95524371Y-125737085D01*
X95524371Y-125165657D01*
X95595800Y-125022800D01*
X95738657Y-124951371D01*
X96024371Y-124951371D01*
X96167228Y-125022800D01*
X96238657Y-125165657D01*
X96238657Y-125308514D01*
X95524371Y-125451371D01*
D12*
X43172704Y-128103142D02*
X43172704Y-125103142D01*
X44006038Y-127246000D01*
X44839371Y-125103142D01*
X44839371Y-128103142D01*
X46029847Y-128103142D02*
X46029847Y-126103142D01*
X46029847Y-125103142D02*
X45910800Y-125246000D01*
X46029847Y-125388857D01*
X46148895Y-125246000D01*
X46029847Y-125103142D01*
X46029847Y-125388857D01*
X48291752Y-127960285D02*
X48053657Y-128103142D01*
X47577466Y-128103142D01*
X47339371Y-127960285D01*
X47220323Y-127817428D01*
X47101276Y-127531714D01*
X47101276Y-126674571D01*
X47220323Y-126388857D01*
X47339371Y-126246000D01*
X47577466Y-126103142D01*
X48053657Y-126103142D01*
X48291752Y-126246000D01*
X49363180Y-128103142D02*
X49363180Y-126103142D01*
X49363180Y-126674571D02*
X49482228Y-126388857D01*
X49601276Y-126246000D01*
X49839371Y-126103142D01*
X50077466Y-126103142D01*
X51267942Y-128103142D02*
X51029847Y-127960285D01*
X50910800Y-127817428D01*
X50791752Y-127531714D01*
X50791752Y-126674571D01*
X50910800Y-126388857D01*
X51029847Y-126246000D01*
X51267942Y-126103142D01*
X51625085Y-126103142D01*
X51863180Y-126246000D01*
X51982228Y-126388857D01*
X52101276Y-126674571D01*
X52101276Y-127531714D01*
X51982228Y-127817428D01*
X51863180Y-127960285D01*
X51625085Y-128103142D01*
X51267942Y-128103142D01*
X55077466Y-125103142D02*
X55077466Y-127531714D01*
X55196514Y-127817428D01*
X55315561Y-127960285D01*
X55553657Y-128103142D01*
X56029847Y-128103142D01*
X56267942Y-127960285D01*
X56386990Y-127817428D01*
X56506038Y-127531714D01*
X56506038Y-125103142D01*
X57696514Y-128103142D02*
X57696514Y-125103142D01*
X59125085Y-128103142D02*
X58053657Y-126388857D01*
X59125085Y-125103142D02*
X57696514Y-126817428D01*
X61506038Y-128103142D02*
X60077466Y-128103142D01*
X60791752Y-128103142D02*
X60791752Y-125103142D01*
X60553657Y-125531714D01*
X60315561Y-125817428D01*
X60077466Y-125960285D01*
X63053657Y-125103142D02*
X63291752Y-125103142D01*
X63529847Y-125246000D01*
X63648895Y-125388857D01*
X63767942Y-125674571D01*
X63886990Y-126246000D01*
X63886990Y-126960285D01*
X63767942Y-127531714D01*
X63648895Y-127817428D01*
X63529847Y-127960285D01*
X63291752Y-128103142D01*
X63053657Y-128103142D01*
X62815561Y-127960285D01*
X62696514Y-127817428D01*
X62577466Y-127531714D01*
X62458419Y-126960285D01*
X62458419Y-126246000D01*
X62577466Y-125674571D01*
X62696514Y-125388857D01*
X62815561Y-125246000D01*
X63053657Y-125103142D01*
X66267942Y-128103142D02*
X64839371Y-128103142D01*
X65553657Y-128103142D02*
X65553657Y-125103142D01*
X65315561Y-125531714D01*
X65077466Y-125817428D01*
X64839371Y-125960285D01*
D13*
%TO.C,C5*%
X126528533Y-47905942D02*
X126480914Y-47953561D01*
X126338057Y-48001180D01*
X126242819Y-48001180D01*
X126099961Y-47953561D01*
X126004723Y-47858323D01*
X125957104Y-47763085D01*
X125909485Y-47572609D01*
X125909485Y-47429752D01*
X125957104Y-47239276D01*
X126004723Y-47144038D01*
X126099961Y-47048800D01*
X126242819Y-47001180D01*
X126338057Y-47001180D01*
X126480914Y-47048800D01*
X126528533Y-47096419D01*
X127433295Y-47001180D02*
X126957104Y-47001180D01*
X126909485Y-47477371D01*
X126957104Y-47429752D01*
X127052342Y-47382133D01*
X127290438Y-47382133D01*
X127385676Y-47429752D01*
X127433295Y-47477371D01*
X127480914Y-47572609D01*
X127480914Y-47810704D01*
X127433295Y-47905942D01*
X127385676Y-47953561D01*
X127290438Y-48001180D01*
X127052342Y-48001180D01*
X126957104Y-47953561D01*
X126909485Y-47905942D01*
%TO.C,C6*%
X92086133Y-58726342D02*
X92038514Y-58773961D01*
X91895657Y-58821580D01*
X91800419Y-58821580D01*
X91657561Y-58773961D01*
X91562323Y-58678723D01*
X91514704Y-58583485D01*
X91467085Y-58393009D01*
X91467085Y-58250152D01*
X91514704Y-58059676D01*
X91562323Y-57964438D01*
X91657561Y-57869200D01*
X91800419Y-57821580D01*
X91895657Y-57821580D01*
X92038514Y-57869200D01*
X92086133Y-57916819D01*
X92943276Y-57821580D02*
X92752800Y-57821580D01*
X92657561Y-57869200D01*
X92609942Y-57916819D01*
X92514704Y-58059676D01*
X92467085Y-58250152D01*
X92467085Y-58631104D01*
X92514704Y-58726342D01*
X92562323Y-58773961D01*
X92657561Y-58821580D01*
X92848038Y-58821580D01*
X92943276Y-58773961D01*
X92990895Y-58726342D01*
X93038514Y-58631104D01*
X93038514Y-58393009D01*
X92990895Y-58297771D01*
X92943276Y-58250152D01*
X92848038Y-58202533D01*
X92657561Y-58202533D01*
X92562323Y-58250152D01*
X92514704Y-58297771D01*
X92467085Y-58393009D01*
%TO.C,CON1*%
X63606514Y-36882342D02*
X63558895Y-36929961D01*
X63416038Y-36977580D01*
X63320800Y-36977580D01*
X63177942Y-36929961D01*
X63082704Y-36834723D01*
X63035085Y-36739485D01*
X62987466Y-36549009D01*
X62987466Y-36406152D01*
X63035085Y-36215676D01*
X63082704Y-36120438D01*
X63177942Y-36025200D01*
X63320800Y-35977580D01*
X63416038Y-35977580D01*
X63558895Y-36025200D01*
X63606514Y-36072819D01*
X64225561Y-35977580D02*
X64416038Y-35977580D01*
X64511276Y-36025200D01*
X64606514Y-36120438D01*
X64654133Y-36310914D01*
X64654133Y-36644247D01*
X64606514Y-36834723D01*
X64511276Y-36929961D01*
X64416038Y-36977580D01*
X64225561Y-36977580D01*
X64130323Y-36929961D01*
X64035085Y-36834723D01*
X63987466Y-36644247D01*
X63987466Y-36310914D01*
X64035085Y-36120438D01*
X64130323Y-36025200D01*
X64225561Y-35977580D01*
X65082704Y-36977580D02*
X65082704Y-35977580D01*
X65654133Y-36977580D01*
X65654133Y-35977580D01*
X66654133Y-36977580D02*
X66082704Y-36977580D01*
X66368419Y-36977580D02*
X66368419Y-35977580D01*
X66273180Y-36120438D01*
X66177942Y-36215676D01*
X66082704Y-36263295D01*
%TO.C,P1*%
X40562304Y-68676780D02*
X40562304Y-67676780D01*
X40943257Y-67676780D01*
X41038495Y-67724400D01*
X41086114Y-67772019D01*
X41133733Y-67867257D01*
X41133733Y-68010114D01*
X41086114Y-68105352D01*
X41038495Y-68152971D01*
X40943257Y-68200590D01*
X40562304Y-68200590D01*
X42086114Y-68676780D02*
X41514685Y-68676780D01*
X41800400Y-68676780D02*
X41800400Y-67676780D01*
X41705161Y-67819638D01*
X41609923Y-67914876D01*
X41514685Y-67962495D01*
%TO.C,R1*%
X68565733Y-58008780D02*
X68232400Y-57532590D01*
X67994304Y-58008780D02*
X67994304Y-57008780D01*
X68375257Y-57008780D01*
X68470495Y-57056400D01*
X68518114Y-57104019D01*
X68565733Y-57199257D01*
X68565733Y-57342114D01*
X68518114Y-57437352D01*
X68470495Y-57484971D01*
X68375257Y-57532590D01*
X67994304Y-57532590D01*
X69518114Y-58008780D02*
X68946685Y-58008780D01*
X69232400Y-58008780D02*
X69232400Y-57008780D01*
X69137161Y-57151638D01*
X69041923Y-57246876D01*
X68946685Y-57294495D01*
%TO.C,R2*%
X89901733Y-52776380D02*
X89568400Y-52300190D01*
X89330304Y-52776380D02*
X89330304Y-51776380D01*
X89711257Y-51776380D01*
X89806495Y-51824000D01*
X89854114Y-51871619D01*
X89901733Y-51966857D01*
X89901733Y-52109714D01*
X89854114Y-52204952D01*
X89806495Y-52252571D01*
X89711257Y-52300190D01*
X89330304Y-52300190D01*
X90282685Y-51871619D02*
X90330304Y-51824000D01*
X90425542Y-51776380D01*
X90663638Y-51776380D01*
X90758876Y-51824000D01*
X90806495Y-51871619D01*
X90854114Y-51966857D01*
X90854114Y-52062095D01*
X90806495Y-52204952D01*
X90235066Y-52776380D01*
X90854114Y-52776380D01*
%TO.C,R3*%
X77404933Y-58770780D02*
X77071600Y-58294590D01*
X76833504Y-58770780D02*
X76833504Y-57770780D01*
X77214457Y-57770780D01*
X77309695Y-57818400D01*
X77357314Y-57866019D01*
X77404933Y-57961257D01*
X77404933Y-58104114D01*
X77357314Y-58199352D01*
X77309695Y-58246971D01*
X77214457Y-58294590D01*
X76833504Y-58294590D01*
X77738266Y-57770780D02*
X78357314Y-57770780D01*
X78023980Y-58151733D01*
X78166838Y-58151733D01*
X78262076Y-58199352D01*
X78309695Y-58246971D01*
X78357314Y-58342209D01*
X78357314Y-58580304D01*
X78309695Y-58675542D01*
X78262076Y-58723161D01*
X78166838Y-58770780D01*
X77881123Y-58770780D01*
X77785885Y-58723161D01*
X77738266Y-58675542D01*
%TO.C,SW1*%
X38493866Y-57961161D02*
X38636723Y-58008780D01*
X38874819Y-58008780D01*
X38970057Y-57961161D01*
X39017676Y-57913542D01*
X39065295Y-57818304D01*
X39065295Y-57723066D01*
X39017676Y-57627828D01*
X38970057Y-57580209D01*
X38874819Y-57532590D01*
X38684342Y-57484971D01*
X38589104Y-57437352D01*
X38541485Y-57389733D01*
X38493866Y-57294495D01*
X38493866Y-57199257D01*
X38541485Y-57104019D01*
X38589104Y-57056400D01*
X38684342Y-57008780D01*
X38922438Y-57008780D01*
X39065295Y-57056400D01*
X39398628Y-57008780D02*
X39636723Y-58008780D01*
X39827200Y-57294495D01*
X40017676Y-58008780D01*
X40255771Y-57008780D01*
X41160533Y-58008780D02*
X40589104Y-58008780D01*
X40874819Y-58008780D02*
X40874819Y-57008780D01*
X40779580Y-57151638D01*
X40684342Y-57246876D01*
X40589104Y-57294495D01*
%TO.C,U1*%
X36677695Y-68641980D02*
X36677695Y-69451504D01*
X36725314Y-69546742D01*
X36772933Y-69594361D01*
X36868171Y-69641980D01*
X37058647Y-69641980D01*
X37153885Y-69594361D01*
X37201504Y-69546742D01*
X37249123Y-69451504D01*
X37249123Y-68641980D01*
X38249123Y-69641980D02*
X37677695Y-69641980D01*
X37963409Y-69641980D02*
X37963409Y-68641980D01*
X37868171Y-68784838D01*
X37772933Y-68880076D01*
X37677695Y-68927695D01*
%TO.C,U4*%
X115824095Y-48372780D02*
X115824095Y-49182304D01*
X115871714Y-49277542D01*
X115919333Y-49325161D01*
X116014571Y-49372780D01*
X116205047Y-49372780D01*
X116300285Y-49325161D01*
X116347904Y-49277542D01*
X116395523Y-49182304D01*
X116395523Y-48372780D01*
X117300285Y-48706114D02*
X117300285Y-49372780D01*
X117062190Y-48325161D02*
X116824095Y-49039447D01*
X117443142Y-49039447D01*
%TO.C,U6*%
X57048495Y-58939180D02*
X57048495Y-59748704D01*
X57096114Y-59843942D01*
X57143733Y-59891561D01*
X57238971Y-59939180D01*
X57429447Y-59939180D01*
X57524685Y-59891561D01*
X57572304Y-59843942D01*
X57619923Y-59748704D01*
X57619923Y-58939180D01*
X58524685Y-58939180D02*
X58334209Y-58939180D01*
X58238971Y-58986800D01*
X58191352Y-59034419D01*
X58096114Y-59177276D01*
X58048495Y-59367752D01*
X58048495Y-59748704D01*
X58096114Y-59843942D01*
X58143733Y-59891561D01*
X58238971Y-59939180D01*
X58429447Y-59939180D01*
X58524685Y-59891561D01*
X58572304Y-59843942D01*
X58619923Y-59748704D01*
X58619923Y-59510609D01*
X58572304Y-59415371D01*
X58524685Y-59367752D01*
X58429447Y-59320133D01*
X58238971Y-59320133D01*
X58143733Y-59367752D01*
X58096114Y-59415371D01*
X58048495Y-59510609D01*
%TO.C,U7*%
X85344095Y-58888380D02*
X85344095Y-59697904D01*
X85391714Y-59793142D01*
X85439333Y-59840761D01*
X85534571Y-59888380D01*
X85725047Y-59888380D01*
X85820285Y-59840761D01*
X85867904Y-59793142D01*
X85915523Y-59697904D01*
X85915523Y-58888380D01*
X86296476Y-58888380D02*
X86963142Y-58888380D01*
X86534571Y-59888380D01*
%TO.C,U8*%
X71272495Y-58685180D02*
X71272495Y-59494704D01*
X71320114Y-59589942D01*
X71367733Y-59637561D01*
X71462971Y-59685180D01*
X71653447Y-59685180D01*
X71748685Y-59637561D01*
X71796304Y-59589942D01*
X71843923Y-59494704D01*
X71843923Y-58685180D01*
X72462971Y-59113752D02*
X72367733Y-59066133D01*
X72320114Y-59018514D01*
X72272495Y-58923276D01*
X72272495Y-58875657D01*
X72320114Y-58780419D01*
X72367733Y-58732800D01*
X72462971Y-58685180D01*
X72653447Y-58685180D01*
X72748685Y-58732800D01*
X72796304Y-58780419D01*
X72843923Y-58875657D01*
X72843923Y-58923276D01*
X72796304Y-59018514D01*
X72748685Y-59066133D01*
X72653447Y-59113752D01*
X72462971Y-59113752D01*
X72367733Y-59161371D01*
X72320114Y-59208990D01*
X72272495Y-59304228D01*
X72272495Y-59494704D01*
X72320114Y-59589942D01*
X72367733Y-59637561D01*
X72462971Y-59685180D01*
X72653447Y-59685180D01*
X72748685Y-59637561D01*
X72796304Y-59589942D01*
X72843923Y-59494704D01*
X72843923Y-59304228D01*
X72796304Y-59208990D01*
X72748685Y-59161371D01*
X72653447Y-59113752D01*
%TO.C,U9*%
X118821295Y-73366380D02*
X118821295Y-74175904D01*
X118868914Y-74271142D01*
X118916533Y-74318761D01*
X119011771Y-74366380D01*
X119202247Y-74366380D01*
X119297485Y-74318761D01*
X119345104Y-74271142D01*
X119392723Y-74175904D01*
X119392723Y-73366380D01*
X119916533Y-74366380D02*
X120107009Y-74366380D01*
X120202247Y-74318761D01*
X120249866Y-74271142D01*
X120345104Y-74128285D01*
X120392723Y-73937809D01*
X120392723Y-73556857D01*
X120345104Y-73461619D01*
X120297485Y-73414000D01*
X120202247Y-73366380D01*
X120011771Y-73366380D01*
X119916533Y-73414000D01*
X119868914Y-73461619D01*
X119821295Y-73556857D01*
X119821295Y-73794952D01*
X119868914Y-73890190D01*
X119916533Y-73937809D01*
X120011771Y-73985428D01*
X120202247Y-73985428D01*
X120297485Y-73937809D01*
X120345104Y-73890190D01*
X120392723Y-73794952D01*
%TO.C,U10*%
X100615904Y-65898780D02*
X100615904Y-66708304D01*
X100663523Y-66803542D01*
X100711142Y-66851161D01*
X100806380Y-66898780D01*
X100996857Y-66898780D01*
X101092095Y-66851161D01*
X101139714Y-66803542D01*
X101187333Y-66708304D01*
X101187333Y-65898780D01*
X102187333Y-66898780D02*
X101615904Y-66898780D01*
X101901619Y-66898780D02*
X101901619Y-65898780D01*
X101806380Y-66041638D01*
X101711142Y-66136876D01*
X101615904Y-66184495D01*
X102806380Y-65898780D02*
X102901619Y-65898780D01*
X102996857Y-65946400D01*
X103044476Y-65994019D01*
X103092095Y-66089257D01*
X103139714Y-66279733D01*
X103139714Y-66517828D01*
X103092095Y-66708304D01*
X103044476Y-66803542D01*
X102996857Y-66851161D01*
X102901619Y-66898780D01*
X102806380Y-66898780D01*
X102711142Y-66851161D01*
X102663523Y-66803542D01*
X102615904Y-66708304D01*
X102568285Y-66517828D01*
X102568285Y-66279733D01*
X102615904Y-66089257D01*
X102663523Y-65994019D01*
X102711142Y-65946400D01*
X102806380Y-65898780D01*
%TO.C,U11*%
X118497504Y-99172780D02*
X118497504Y-99982304D01*
X118545123Y-100077542D01*
X118592742Y-100125161D01*
X118687980Y-100172780D01*
X118878457Y-100172780D01*
X118973695Y-100125161D01*
X119021314Y-100077542D01*
X119068933Y-99982304D01*
X119068933Y-99172780D01*
X120068933Y-100172780D02*
X119497504Y-100172780D01*
X119783219Y-100172780D02*
X119783219Y-99172780D01*
X119687980Y-99315638D01*
X119592742Y-99410876D01*
X119497504Y-99458495D01*
X121021314Y-100172780D02*
X120449885Y-100172780D01*
X120735600Y-100172780D02*
X120735600Y-99172780D01*
X120640361Y-99315638D01*
X120545123Y-99410876D01*
X120449885Y-99458495D01*
%TO.C,X1*%
X47653676Y-56551580D02*
X48320342Y-57551580D01*
X48320342Y-56551580D02*
X47653676Y-57551580D01*
X49225104Y-57551580D02*
X48653676Y-57551580D01*
X48939390Y-57551580D02*
X48939390Y-56551580D01*
X48844152Y-56694438D01*
X48748914Y-56789676D01*
X48653676Y-56837295D01*
%TO.C,U2*%
X56591295Y-83323180D02*
X56591295Y-84132704D01*
X56638914Y-84227942D01*
X56686533Y-84275561D01*
X56781771Y-84323180D01*
X56972247Y-84323180D01*
X57067485Y-84275561D01*
X57115104Y-84227942D01*
X57162723Y-84132704D01*
X57162723Y-83323180D01*
X57591295Y-83418419D02*
X57638914Y-83370800D01*
X57734152Y-83323180D01*
X57972247Y-83323180D01*
X58067485Y-83370800D01*
X58115104Y-83418419D01*
X58162723Y-83513657D01*
X58162723Y-83608895D01*
X58115104Y-83751752D01*
X57543676Y-84323180D01*
X58162723Y-84323180D01*
%TO.C,U3*%
X77266895Y-83323180D02*
X77266895Y-84132704D01*
X77314514Y-84227942D01*
X77362133Y-84275561D01*
X77457371Y-84323180D01*
X77647847Y-84323180D01*
X77743085Y-84275561D01*
X77790704Y-84227942D01*
X77838323Y-84132704D01*
X77838323Y-83323180D01*
X78219276Y-83323180D02*
X78838323Y-83323180D01*
X78504990Y-83704133D01*
X78647847Y-83704133D01*
X78743085Y-83751752D01*
X78790704Y-83799371D01*
X78838323Y-83894609D01*
X78838323Y-84132704D01*
X78790704Y-84227942D01*
X78743085Y-84275561D01*
X78647847Y-84323180D01*
X78362133Y-84323180D01*
X78266895Y-84275561D01*
X78219276Y-84227942D01*
%TO.C,U5*%
X97942495Y-88707980D02*
X97942495Y-89517504D01*
X97990114Y-89612742D01*
X98037733Y-89660361D01*
X98132971Y-89707980D01*
X98323447Y-89707980D01*
X98418685Y-89660361D01*
X98466304Y-89612742D01*
X98513923Y-89517504D01*
X98513923Y-88707980D01*
X99466304Y-88707980D02*
X98990114Y-88707980D01*
X98942495Y-89184171D01*
X98990114Y-89136552D01*
X99085352Y-89088933D01*
X99323447Y-89088933D01*
X99418685Y-89136552D01*
X99466304Y-89184171D01*
X99513923Y-89279409D01*
X99513923Y-89517504D01*
X99466304Y-89612742D01*
X99418685Y-89660361D01*
X99323447Y-89707980D01*
X99085352Y-89707980D01*
X98990114Y-89660361D01*
X98942495Y-89612742D01*
%TO.C,D1*%
X43894704Y-44406380D02*
X43894704Y-43406380D01*
X44132800Y-43406380D01*
X44275657Y-43454000D01*
X44370895Y-43549238D01*
X44418514Y-43644476D01*
X44466133Y-43834952D01*
X44466133Y-43977809D01*
X44418514Y-44168285D01*
X44370895Y-44263523D01*
X44275657Y-44358761D01*
X44132800Y-44406380D01*
X43894704Y-44406380D01*
X45418514Y-44406380D02*
X44847085Y-44406380D01*
X45132800Y-44406380D02*
X45132800Y-43406380D01*
X45037561Y-43549238D01*
X44942323Y-43644476D01*
X44847085Y-43692095D01*
X40770895Y-43086380D02*
X40770895Y-42086380D01*
X41342323Y-43086380D02*
X40913752Y-42514952D01*
X41342323Y-42086380D02*
X40770895Y-42657809D01*
%TO.C,R4*%
X46315333Y-49220380D02*
X45982000Y-48744190D01*
X45743904Y-49220380D02*
X45743904Y-48220380D01*
X46124857Y-48220380D01*
X46220095Y-48268000D01*
X46267714Y-48315619D01*
X46315333Y-48410857D01*
X46315333Y-48553714D01*
X46267714Y-48648952D01*
X46220095Y-48696571D01*
X46124857Y-48744190D01*
X45743904Y-48744190D01*
X47172476Y-48553714D02*
X47172476Y-49220380D01*
X46934380Y-48172761D02*
X46696285Y-48887047D01*
X47315333Y-48887047D01*
%TO.C,C1*%
X111999733Y-57608742D02*
X111952114Y-57656361D01*
X111809257Y-57703980D01*
X111714019Y-57703980D01*
X111571161Y-57656361D01*
X111475923Y-57561123D01*
X111428304Y-57465885D01*
X111380685Y-57275409D01*
X111380685Y-57132552D01*
X111428304Y-56942076D01*
X111475923Y-56846838D01*
X111571161Y-56751600D01*
X111714019Y-56703980D01*
X111809257Y-56703980D01*
X111952114Y-56751600D01*
X111999733Y-56799219D01*
X112952114Y-57703980D02*
X112380685Y-57703980D01*
X112666400Y-57703980D02*
X112666400Y-56703980D01*
X112571161Y-56846838D01*
X112475923Y-56942076D01*
X112380685Y-56989695D01*
%TO.C,C2*%
X111898133Y-65533542D02*
X111850514Y-65581161D01*
X111707657Y-65628780D01*
X111612419Y-65628780D01*
X111469561Y-65581161D01*
X111374323Y-65485923D01*
X111326704Y-65390685D01*
X111279085Y-65200209D01*
X111279085Y-65057352D01*
X111326704Y-64866876D01*
X111374323Y-64771638D01*
X111469561Y-64676400D01*
X111612419Y-64628780D01*
X111707657Y-64628780D01*
X111850514Y-64676400D01*
X111898133Y-64724019D01*
X112279085Y-64724019D02*
X112326704Y-64676400D01*
X112421942Y-64628780D01*
X112660038Y-64628780D01*
X112755276Y-64676400D01*
X112802895Y-64724019D01*
X112850514Y-64819257D01*
X112850514Y-64914495D01*
X112802895Y-65057352D01*
X112231466Y-65628780D01*
X112850514Y-65628780D01*
%TO.C,C3*%
X129119333Y-56287942D02*
X129071714Y-56335561D01*
X128928857Y-56383180D01*
X128833619Y-56383180D01*
X128690761Y-56335561D01*
X128595523Y-56240323D01*
X128547904Y-56145085D01*
X128500285Y-55954609D01*
X128500285Y-55811752D01*
X128547904Y-55621276D01*
X128595523Y-55526038D01*
X128690761Y-55430800D01*
X128833619Y-55383180D01*
X128928857Y-55383180D01*
X129071714Y-55430800D01*
X129119333Y-55478419D01*
X129452666Y-55383180D02*
X130071714Y-55383180D01*
X129738380Y-55764133D01*
X129881238Y-55764133D01*
X129976476Y-55811752D01*
X130024095Y-55859371D01*
X130071714Y-55954609D01*
X130071714Y-56192704D01*
X130024095Y-56287942D01*
X129976476Y-56335561D01*
X129881238Y-56383180D01*
X129595523Y-56383180D01*
X129500285Y-56335561D01*
X129452666Y-56287942D01*
%TO.C,C4*%
X128814533Y-66447942D02*
X128766914Y-66495561D01*
X128624057Y-66543180D01*
X128528819Y-66543180D01*
X128385961Y-66495561D01*
X128290723Y-66400323D01*
X128243104Y-66305085D01*
X128195485Y-66114609D01*
X128195485Y-65971752D01*
X128243104Y-65781276D01*
X128290723Y-65686038D01*
X128385961Y-65590800D01*
X128528819Y-65543180D01*
X128624057Y-65543180D01*
X128766914Y-65590800D01*
X128814533Y-65638419D01*
X129671676Y-65876514D02*
X129671676Y-66543180D01*
X129433580Y-65495561D02*
X129195485Y-66209847D01*
X129814533Y-66209847D01*
%TO.C,SW2*%
X51600266Y-47750361D02*
X51743123Y-47797980D01*
X51981219Y-47797980D01*
X52076457Y-47750361D01*
X52124076Y-47702742D01*
X52171695Y-47607504D01*
X52171695Y-47512266D01*
X52124076Y-47417028D01*
X52076457Y-47369409D01*
X51981219Y-47321790D01*
X51790742Y-47274171D01*
X51695504Y-47226552D01*
X51647885Y-47178933D01*
X51600266Y-47083695D01*
X51600266Y-46988457D01*
X51647885Y-46893219D01*
X51695504Y-46845600D01*
X51790742Y-46797980D01*
X52028838Y-46797980D01*
X52171695Y-46845600D01*
X52505028Y-46797980D02*
X52743123Y-47797980D01*
X52933600Y-47083695D01*
X53124076Y-47797980D01*
X53362171Y-46797980D01*
X53695504Y-46893219D02*
X53743123Y-46845600D01*
X53838361Y-46797980D01*
X54076457Y-46797980D01*
X54171695Y-46845600D01*
X54219314Y-46893219D01*
X54266933Y-46988457D01*
X54266933Y-47083695D01*
X54219314Y-47226552D01*
X53647885Y-47797980D01*
X54266933Y-47797980D01*
%TO.C,P2*%
X105639180Y-44172095D02*
X104639180Y-44172095D01*
X104639180Y-43791142D01*
X104686800Y-43695904D01*
X104734419Y-43648285D01*
X104829657Y-43600666D01*
X104972514Y-43600666D01*
X105067752Y-43648285D01*
X105115371Y-43695904D01*
X105162990Y-43791142D01*
X105162990Y-44172095D01*
X104734419Y-43219714D02*
X104686800Y-43172095D01*
X104639180Y-43076857D01*
X104639180Y-42838761D01*
X104686800Y-42743523D01*
X104734419Y-42695904D01*
X104829657Y-42648285D01*
X104924895Y-42648285D01*
X105067752Y-42695904D01*
X105639180Y-43267333D01*
X105639180Y-42648285D01*
%TO.C,P3*%
X35293180Y-72792495D02*
X34293180Y-72792495D01*
X34293180Y-72411542D01*
X34340800Y-72316304D01*
X34388419Y-72268685D01*
X34483657Y-72221066D01*
X34626514Y-72221066D01*
X34721752Y-72268685D01*
X34769371Y-72316304D01*
X34816990Y-72411542D01*
X34816990Y-72792495D01*
X34293180Y-71887733D02*
X34293180Y-71268685D01*
X34674133Y-71602019D01*
X34674133Y-71459161D01*
X34721752Y-71363923D01*
X34769371Y-71316304D01*
X34864609Y-71268685D01*
X35102704Y-71268685D01*
X35197942Y-71316304D01*
X35245561Y-71363923D01*
X35293180Y-71459161D01*
X35293180Y-71744876D01*
X35245561Y-71840114D01*
X35197942Y-71887733D01*
%TO.C,P4*%
X35293180Y-93992495D02*
X34293180Y-93992495D01*
X34293180Y-93611542D01*
X34340800Y-93516304D01*
X34388419Y-93468685D01*
X34483657Y-93421066D01*
X34626514Y-93421066D01*
X34721752Y-93468685D01*
X34769371Y-93516304D01*
X34816990Y-93611542D01*
X34816990Y-93992495D01*
X34626514Y-92563923D02*
X35293180Y-92563923D01*
X34245561Y-92802019D02*
X34959847Y-93040114D01*
X34959847Y-92421066D01*
%TO.C,J1*%
X90649466Y-36942780D02*
X90649466Y-37657066D01*
X90601847Y-37799923D01*
X90506609Y-37895161D01*
X90363752Y-37942780D01*
X90268514Y-37942780D01*
X91649466Y-37942780D02*
X91078038Y-37942780D01*
X91363752Y-37942780D02*
X91363752Y-36942780D01*
X91268514Y-37085638D01*
X91173276Y-37180876D01*
X91078038Y-37228495D01*
%TO.C,C5*%
X125210000Y-48697200D02*
X121210000Y-48697200D01*
X125210000Y-46197200D02*
X121210000Y-46197200D01*
%TO.C,C6*%
X91502800Y-54579200D02*
X95502800Y-54579200D01*
X91502800Y-57079200D02*
X95502800Y-57079200D01*
%TO.C,CON1*%
X69321680Y-37553900D02*
X60319920Y-37553900D01*
X69321680Y-34053780D02*
X60319920Y-34053780D01*
X60319920Y-34053780D02*
X60319920Y-48554640D01*
X60319920Y-48554640D02*
X69321680Y-48554640D01*
X69321680Y-48554640D02*
X69321680Y-34053780D01*
%TO.C,P1*%
X36092800Y-63144400D02*
X36092800Y-61594400D01*
X37642800Y-61594400D02*
X36092800Y-61594400D01*
X36372800Y-64414400D02*
X38912800Y-64414400D01*
X38912800Y-64414400D02*
X38912800Y-61874400D01*
X38912800Y-61874400D02*
X41452800Y-61874400D01*
X41452800Y-61874400D02*
X41452800Y-66954400D01*
X41452800Y-66954400D02*
X36372800Y-66954400D01*
X36372800Y-66954400D02*
X36372800Y-64414400D01*
%TO.C,R1*%
X66294000Y-56337200D02*
X61214000Y-56337200D01*
X61214000Y-56337200D02*
X61214000Y-53797200D01*
X61214000Y-53797200D02*
X66294000Y-53797200D01*
X66294000Y-53797200D02*
X66294000Y-56337200D01*
X66294000Y-55067200D02*
X67564000Y-55067200D01*
X61214000Y-55067200D02*
X59944000Y-55067200D01*
%TO.C,R2*%
X84836000Y-53492400D02*
X79756000Y-53492400D01*
X79756000Y-53492400D02*
X79756000Y-50952400D01*
X79756000Y-50952400D02*
X84836000Y-50952400D01*
X84836000Y-50952400D02*
X84836000Y-53492400D01*
X84836000Y-52222400D02*
X86106000Y-52222400D01*
X79756000Y-52222400D02*
X78486000Y-52222400D01*
%TO.C,R3*%
X80010000Y-54610000D02*
X85090000Y-54610000D01*
X85090000Y-54610000D02*
X85090000Y-57150000D01*
X85090000Y-57150000D02*
X80010000Y-57150000D01*
X80010000Y-57150000D02*
X80010000Y-54610000D01*
X80010000Y-55880000D02*
X78740000Y-55880000D01*
X85090000Y-55880000D02*
X86360000Y-55880000D01*
%TO.C,SW1*%
X42062400Y-52527200D02*
G75*
G03*
X42062400Y-52527200I-2540000J0D01*
G01*
X43332400Y-56337200D02*
X35712400Y-56337200D01*
X35712400Y-56337200D02*
X35712400Y-48717200D01*
X35712400Y-48717200D02*
X43332400Y-48717200D01*
X43332400Y-56337200D02*
X43332400Y-48717200D01*
%TO.C,U1*%
X37981000Y-70095000D02*
X37981000Y-71365000D01*
X52951000Y-70095000D02*
X52951000Y-71365000D01*
X52951000Y-122945000D02*
X52951000Y-121675000D01*
X37981000Y-122945000D02*
X37981000Y-121675000D01*
X37981000Y-70095000D02*
X52951000Y-70095000D01*
X37981000Y-122945000D02*
X52951000Y-122945000D01*
X37981000Y-71365000D02*
X36696000Y-71365000D01*
%TO.C,U4*%
X116873400Y-50029000D02*
X116873400Y-51299000D01*
X124223400Y-50029000D02*
X124223400Y-51299000D01*
X124223400Y-72399000D02*
X124223400Y-71129000D01*
X116873400Y-72399000D02*
X116873400Y-71129000D01*
X116873400Y-50029000D02*
X124223400Y-50029000D01*
X116873400Y-72399000D02*
X124223400Y-72399000D01*
X116873400Y-51299000D02*
X115588400Y-51299000D01*
%TO.C,U6*%
X58301000Y-60646200D02*
X58301000Y-61916200D01*
X65651000Y-60646200D02*
X65651000Y-61916200D01*
X65651000Y-80476200D02*
X65651000Y-79206200D01*
X58301000Y-80476200D02*
X58301000Y-79206200D01*
X58301000Y-60646200D02*
X65651000Y-60646200D01*
X58301000Y-80476200D02*
X65651000Y-80476200D01*
X58301000Y-61916200D02*
X57016000Y-61916200D01*
%TO.C,U7*%
X86799800Y-60646200D02*
X86799800Y-61916200D01*
X94149800Y-60646200D02*
X94149800Y-61916200D01*
X94149800Y-83016200D02*
X94149800Y-81746200D01*
X86799800Y-83016200D02*
X86799800Y-81746200D01*
X86799800Y-60646200D02*
X94149800Y-60646200D01*
X86799800Y-83016200D02*
X94149800Y-83016200D01*
X86799800Y-61916200D02*
X85514800Y-61916200D01*
%TO.C,U8*%
X72525000Y-60544600D02*
X72525000Y-61814600D01*
X79875000Y-60544600D02*
X79875000Y-61814600D01*
X79875000Y-80374600D02*
X79875000Y-79104600D01*
X72525000Y-80374600D02*
X72525000Y-79104600D01*
X72525000Y-60544600D02*
X79875000Y-60544600D01*
X72525000Y-80374600D02*
X79875000Y-80374600D01*
X72525000Y-61814600D02*
X71240000Y-61814600D01*
%TO.C,U9*%
X120277000Y-75175000D02*
X120277000Y-76445000D01*
X127627000Y-75175000D02*
X127627000Y-76445000D01*
X127627000Y-97545000D02*
X127627000Y-96275000D01*
X120277000Y-97545000D02*
X120277000Y-96275000D01*
X120277000Y-75175000D02*
X127627000Y-75175000D01*
X120277000Y-97545000D02*
X127627000Y-97545000D01*
X120277000Y-76445000D02*
X118992000Y-76445000D01*
%TO.C,U10*%
X102090600Y-67656600D02*
X102090600Y-68926600D01*
X109440600Y-67656600D02*
X109440600Y-68926600D01*
X109440600Y-87486600D02*
X109440600Y-86216600D01*
X102090600Y-87486600D02*
X102090600Y-86216600D01*
X102090600Y-67656600D02*
X109440600Y-67656600D01*
X102090600Y-87486600D02*
X109440600Y-87486600D01*
X102090600Y-68926600D02*
X100805600Y-68926600D01*
%TO.C,U11*%
X120023000Y-100981400D02*
X120023000Y-102251400D01*
X127373000Y-100981400D02*
X127373000Y-102251400D01*
X127373000Y-120811400D02*
X127373000Y-119541400D01*
X120023000Y-120811400D02*
X120023000Y-119541400D01*
X120023000Y-100981400D02*
X127373000Y-100981400D01*
X120023000Y-120811400D02*
X127373000Y-120811400D01*
X120023000Y-102251400D02*
X118738000Y-102251400D01*
%TO.C,X1*%
X53340000Y-55143400D02*
X54610000Y-56413400D01*
X54610000Y-67843400D02*
X53340000Y-69113400D01*
X50800000Y-69113400D02*
X49530000Y-67843400D01*
X50800000Y-55143400D02*
X49530000Y-56413400D01*
X54610000Y-56413400D02*
X54610000Y-67843400D01*
X53340000Y-55143400D02*
X50800000Y-55143400D01*
X49530000Y-56413400D02*
X49530000Y-67843400D01*
X50800000Y-69113400D02*
X53340000Y-69113400D01*
%TO.C,U2*%
X57894600Y-85233400D02*
X57894600Y-86503400D01*
X72864600Y-85233400D02*
X72864600Y-86503400D01*
X72864600Y-122843400D02*
X72864600Y-121573400D01*
X57894600Y-122843400D02*
X57894600Y-121573400D01*
X57894600Y-85233400D02*
X72864600Y-85233400D01*
X57894600Y-122843400D02*
X72864600Y-122843400D01*
X57894600Y-86503400D02*
X56609600Y-86503400D01*
%TO.C,U3*%
X78570200Y-85335000D02*
X78570200Y-86605000D01*
X93540200Y-85335000D02*
X93540200Y-86605000D01*
X93540200Y-122945000D02*
X93540200Y-121675000D01*
X78570200Y-122945000D02*
X78570200Y-121675000D01*
X78570200Y-85335000D02*
X93540200Y-85335000D01*
X78570200Y-122945000D02*
X93540200Y-122945000D01*
X78570200Y-86605000D02*
X77285200Y-86605000D01*
%TO.C,U5*%
X99398200Y-90415000D02*
X99398200Y-91685000D01*
X114368200Y-90415000D02*
X114368200Y-91685000D01*
X114368200Y-122945000D02*
X114368200Y-121675000D01*
X99398200Y-122945000D02*
X99398200Y-121675000D01*
X99398200Y-90415000D02*
X114368200Y-90415000D01*
X99398200Y-122945000D02*
X114368200Y-122945000D01*
X99398200Y-91685000D02*
X98113200Y-91685000D01*
%TO.C,D1*%
X42523800Y-42208000D02*
X42523800Y-42008000D01*
X42523800Y-39614000D02*
X42523800Y-39794000D01*
X45751544Y-39924357D02*
G75*
G03*
X42523800Y-39608000I-1727744J-1003643D01*
G01*
X45075806Y-39794932D02*
G75*
G03*
X42972800Y-39794000I-1052006J-1133068D01*
G01*
X42536580Y-42234726D02*
G75*
G03*
X45773800Y-41888000I1497220J1306726D01*
G01*
X43009911Y-42007252D02*
G75*
G03*
X45057800Y-41988000I1013889J1079252D01*
G01*
%TO.C,R4*%
X53949600Y-52578000D02*
X48869600Y-52578000D01*
X48869600Y-52578000D02*
X48869600Y-50038000D01*
X48869600Y-50038000D02*
X53949600Y-50038000D01*
X53949600Y-50038000D02*
X53949600Y-52578000D01*
X53949600Y-51308000D02*
X55219600Y-51308000D01*
X48869600Y-51308000D02*
X47599600Y-51308000D01*
%TO.C,C1*%
X114614600Y-53649000D02*
X109616600Y-53649000D01*
X114606600Y-53789000D02*
X109624600Y-53789000D01*
X114590600Y-53929000D02*
X112210600Y-53929000D01*
X112020600Y-53929000D02*
X109640600Y-53929000D01*
X114566600Y-54069000D02*
X112605600Y-54069000D01*
X111625600Y-54069000D02*
X109664600Y-54069000D01*
X114533600Y-54209000D02*
X112772600Y-54209000D01*
X111458600Y-54209000D02*
X109697600Y-54209000D01*
X114492600Y-54349000D02*
X112879600Y-54349000D01*
X111351600Y-54349000D02*
X109738600Y-54349000D01*
X114442600Y-54489000D02*
X112950600Y-54489000D01*
X111280600Y-54489000D02*
X109788600Y-54489000D01*
X114381600Y-54629000D02*
X112994600Y-54629000D01*
X111236600Y-54629000D02*
X109849600Y-54629000D01*
X114311600Y-54769000D02*
X113013600Y-54769000D01*
X111217600Y-54769000D02*
X109919600Y-54769000D01*
X114229600Y-54909000D02*
X113011600Y-54909000D01*
X111219600Y-54909000D02*
X110001600Y-54909000D01*
X114134600Y-55049000D02*
X112986600Y-55049000D01*
X111244600Y-55049000D02*
X110096600Y-55049000D01*
X114023600Y-55189000D02*
X112938600Y-55189000D01*
X111292600Y-55189000D02*
X110207600Y-55189000D01*
X113895600Y-55329000D02*
X112860600Y-55329000D01*
X111370600Y-55329000D02*
X110335600Y-55329000D01*
X113746600Y-55469000D02*
X112743600Y-55469000D01*
X111487600Y-55469000D02*
X110484600Y-55469000D01*
X113567600Y-55609000D02*
X112555600Y-55609000D01*
X111675600Y-55609000D02*
X110663600Y-55609000D01*
X113348600Y-55749000D02*
X110882600Y-55749000D01*
X113059600Y-55889000D02*
X111171600Y-55889000D01*
X112587600Y-56029000D02*
X111643600Y-56029000D01*
X113015600Y-54824000D02*
G75*
G03*
X113015600Y-54824000I-900000J0D01*
G01*
X114653100Y-53574000D02*
G75*
G03*
X114653100Y-53574000I-2537500J0D01*
G01*
%TO.C,C2*%
X114716200Y-61269000D02*
X109718200Y-61269000D01*
X114708200Y-61409000D02*
X109726200Y-61409000D01*
X114692200Y-61549000D02*
X112312200Y-61549000D01*
X112122200Y-61549000D02*
X109742200Y-61549000D01*
X114668200Y-61689000D02*
X112707200Y-61689000D01*
X111727200Y-61689000D02*
X109766200Y-61689000D01*
X114635200Y-61829000D02*
X112874200Y-61829000D01*
X111560200Y-61829000D02*
X109799200Y-61829000D01*
X114594200Y-61969000D02*
X112981200Y-61969000D01*
X111453200Y-61969000D02*
X109840200Y-61969000D01*
X114544200Y-62109000D02*
X113052200Y-62109000D01*
X111382200Y-62109000D02*
X109890200Y-62109000D01*
X114483200Y-62249000D02*
X113096200Y-62249000D01*
X111338200Y-62249000D02*
X109951200Y-62249000D01*
X114413200Y-62389000D02*
X113115200Y-62389000D01*
X111319200Y-62389000D02*
X110021200Y-62389000D01*
X114331200Y-62529000D02*
X113113200Y-62529000D01*
X111321200Y-62529000D02*
X110103200Y-62529000D01*
X114236200Y-62669000D02*
X113088200Y-62669000D01*
X111346200Y-62669000D02*
X110198200Y-62669000D01*
X114125200Y-62809000D02*
X113040200Y-62809000D01*
X111394200Y-62809000D02*
X110309200Y-62809000D01*
X113997200Y-62949000D02*
X112962200Y-62949000D01*
X111472200Y-62949000D02*
X110437200Y-62949000D01*
X113848200Y-63089000D02*
X112845200Y-63089000D01*
X111589200Y-63089000D02*
X110586200Y-63089000D01*
X113669200Y-63229000D02*
X112657200Y-63229000D01*
X111777200Y-63229000D02*
X110765200Y-63229000D01*
X113450200Y-63369000D02*
X110984200Y-63369000D01*
X113161200Y-63509000D02*
X111273200Y-63509000D01*
X112689200Y-63649000D02*
X111745200Y-63649000D01*
X113117200Y-62444000D02*
G75*
G03*
X113117200Y-62444000I-900000J0D01*
G01*
X114754700Y-61194000D02*
G75*
G03*
X114754700Y-61194000I-2537500J0D01*
G01*
%TO.C,C3*%
X126685400Y-51964200D02*
X131683400Y-51964200D01*
X126693400Y-51824200D02*
X131675400Y-51824200D01*
X126709400Y-51684200D02*
X129089400Y-51684200D01*
X129279400Y-51684200D02*
X131659400Y-51684200D01*
X126733400Y-51544200D02*
X128694400Y-51544200D01*
X129674400Y-51544200D02*
X131635400Y-51544200D01*
X126766400Y-51404200D02*
X128527400Y-51404200D01*
X129841400Y-51404200D02*
X131602400Y-51404200D01*
X126807400Y-51264200D02*
X128420400Y-51264200D01*
X129948400Y-51264200D02*
X131561400Y-51264200D01*
X126857400Y-51124200D02*
X128349400Y-51124200D01*
X130019400Y-51124200D02*
X131511400Y-51124200D01*
X126918400Y-50984200D02*
X128305400Y-50984200D01*
X130063400Y-50984200D02*
X131450400Y-50984200D01*
X126988400Y-50844200D02*
X128286400Y-50844200D01*
X130082400Y-50844200D02*
X131380400Y-50844200D01*
X127070400Y-50704200D02*
X128288400Y-50704200D01*
X130080400Y-50704200D02*
X131298400Y-50704200D01*
X127165400Y-50564200D02*
X128313400Y-50564200D01*
X130055400Y-50564200D02*
X131203400Y-50564200D01*
X127276400Y-50424200D02*
X128361400Y-50424200D01*
X130007400Y-50424200D02*
X131092400Y-50424200D01*
X127404400Y-50284200D02*
X128439400Y-50284200D01*
X129929400Y-50284200D02*
X130964400Y-50284200D01*
X127553400Y-50144200D02*
X128556400Y-50144200D01*
X129812400Y-50144200D02*
X130815400Y-50144200D01*
X127732400Y-50004200D02*
X128744400Y-50004200D01*
X129624400Y-50004200D02*
X130636400Y-50004200D01*
X127951400Y-49864200D02*
X130417400Y-49864200D01*
X128240400Y-49724200D02*
X130128400Y-49724200D01*
X128712400Y-49584200D02*
X129656400Y-49584200D01*
X130084400Y-50789200D02*
G75*
G03*
X130084400Y-50789200I-900000J0D01*
G01*
X131721900Y-52039200D02*
G75*
G03*
X131721900Y-52039200I-2537500J0D01*
G01*
%TO.C,C4*%
X131429400Y-62234200D02*
X126431400Y-62234200D01*
X131421400Y-62374200D02*
X126439400Y-62374200D01*
X131405400Y-62514200D02*
X129025400Y-62514200D01*
X128835400Y-62514200D02*
X126455400Y-62514200D01*
X131381400Y-62654200D02*
X129420400Y-62654200D01*
X128440400Y-62654200D02*
X126479400Y-62654200D01*
X131348400Y-62794200D02*
X129587400Y-62794200D01*
X128273400Y-62794200D02*
X126512400Y-62794200D01*
X131307400Y-62934200D02*
X129694400Y-62934200D01*
X128166400Y-62934200D02*
X126553400Y-62934200D01*
X131257400Y-63074200D02*
X129765400Y-63074200D01*
X128095400Y-63074200D02*
X126603400Y-63074200D01*
X131196400Y-63214200D02*
X129809400Y-63214200D01*
X128051400Y-63214200D02*
X126664400Y-63214200D01*
X131126400Y-63354200D02*
X129828400Y-63354200D01*
X128032400Y-63354200D02*
X126734400Y-63354200D01*
X131044400Y-63494200D02*
X129826400Y-63494200D01*
X128034400Y-63494200D02*
X126816400Y-63494200D01*
X130949400Y-63634200D02*
X129801400Y-63634200D01*
X128059400Y-63634200D02*
X126911400Y-63634200D01*
X130838400Y-63774200D02*
X129753400Y-63774200D01*
X128107400Y-63774200D02*
X127022400Y-63774200D01*
X130710400Y-63914200D02*
X129675400Y-63914200D01*
X128185400Y-63914200D02*
X127150400Y-63914200D01*
X130561400Y-64054200D02*
X129558400Y-64054200D01*
X128302400Y-64054200D02*
X127299400Y-64054200D01*
X130382400Y-64194200D02*
X129370400Y-64194200D01*
X128490400Y-64194200D02*
X127478400Y-64194200D01*
X130163400Y-64334200D02*
X127697400Y-64334200D01*
X129874400Y-64474200D02*
X127986400Y-64474200D01*
X129402400Y-64614200D02*
X128458400Y-64614200D01*
X129830400Y-63409200D02*
G75*
G03*
X129830400Y-63409200I-900000J0D01*
G01*
X131467900Y-62159200D02*
G75*
G03*
X131467900Y-62159200I-2537500J0D01*
G01*
%TO.C,SW2*%
X49850800Y-46162000D02*
X49950800Y-46162000D01*
X49800800Y-46262000D02*
X49800800Y-45912000D01*
X49800800Y-45912000D02*
G75*
G03*
X50150800Y-46262000I1050000J700000D01*
G01*
X49800800Y-46262000D02*
X50150800Y-46262000D01*
X54265014Y-42212000D02*
G75*
G03*
X54265014Y-42212000I-1414214J0D01*
G01*
X55850800Y-44212000D02*
X55850800Y-40212000D01*
X49850800Y-44212000D02*
X49850800Y-40212000D01*
X53600800Y-45212000D02*
X52100800Y-45212000D01*
X52100800Y-39212000D02*
X53600800Y-39212000D01*
D14*
X52850800Y-45212000D02*
X52850800Y-45212000D01*
X55850800Y-40212000D02*
X55850800Y-44212000D01*
X49850800Y-40212000D02*
X49850800Y-44212000D01*
X52850800Y-39212000D02*
X52850800Y-39212000D01*
D15*
X53557907Y-42212000D02*
G75*
G03*
X53557907Y-42212000I-707107J0D01*
G01*
D13*
%TO.C,P2*%
X111556800Y-44704000D02*
X119176800Y-44704000D01*
X111556800Y-42164000D02*
X119176800Y-42164000D01*
X108736800Y-41884000D02*
X110286800Y-41884000D01*
X119176800Y-44704000D02*
X119176800Y-42164000D01*
X111556800Y-42164000D02*
X111556800Y-44704000D01*
X110286800Y-44984000D02*
X108736800Y-44984000D01*
X108736800Y-44984000D02*
X108736800Y-41884000D01*
%TO.C,P3*%
X34696400Y-73532400D02*
X36246400Y-73532400D01*
X36246400Y-75082400D02*
X36246400Y-73532400D01*
X33426400Y-73812400D02*
X33426400Y-76352400D01*
X35966400Y-78892400D02*
X35966400Y-76352400D01*
X35966400Y-76352400D02*
X33426400Y-76352400D01*
X33426400Y-76352400D02*
X33426400Y-78892400D01*
X33426400Y-78892400D02*
X35966400Y-78892400D01*
%TO.C,P4*%
X34848800Y-91770800D02*
X33298800Y-91770800D01*
X33298800Y-90220800D02*
X33298800Y-91770800D01*
X36118800Y-91490800D02*
X36118800Y-88950800D01*
X33578800Y-86410800D02*
X33578800Y-88950800D01*
X33578800Y-88950800D02*
X36118800Y-88950800D01*
X36118800Y-88950800D02*
X36118800Y-86410800D01*
X36118800Y-86410800D02*
X33578800Y-86410800D01*
%TO.C,J1*%
X73583800Y-49936400D02*
X106095800Y-49936400D01*
X106095800Y-49936400D02*
X106095800Y-32156400D01*
X106095800Y-32156400D02*
X73583800Y-32156400D01*
X73583800Y-32156400D02*
X73583800Y-49936400D01*
X80695800Y-32156400D02*
X80695800Y-39776400D01*
X80695800Y-39776400D02*
X98983800Y-39776400D01*
X98983800Y-39776400D02*
X98983800Y-32156400D01*
X82219800Y-32156400D02*
X82219800Y-23520400D01*
X82219800Y-23520400D02*
X97459800Y-23520400D01*
X97459800Y-23520400D02*
X97459800Y-32156400D01*
%TD*%
D16*
%TO.C,C5*%
X124460000Y-47447200D03*
D17*
X121960000Y-47447200D03*
%TD*%
D16*
%TO.C,C6*%
X92252800Y-55829200D03*
D17*
X94752800Y-55829200D03*
%TD*%
D18*
%TO.C,CON1*%
X64820800Y-47754540D03*
X64820800Y-41755060D03*
X60121800Y-44754800D03*
%TD*%
D19*
%TO.C,P1*%
X37642800Y-63144400D03*
D20*
X40182800Y-63144400D03*
X37642800Y-65684400D03*
X40182800Y-65684400D03*
%TD*%
D21*
%TO.C,R1*%
X68834000Y-55067200D03*
X58674000Y-55067200D03*
%TD*%
%TO.C,R2*%
X87376000Y-52222400D03*
X77216000Y-52222400D03*
%TD*%
%TO.C,R3*%
X77470000Y-55880000D03*
X87630000Y-55880000D03*
%TD*%
D22*
%TO.C,SW1*%
X35712400Y-55067200D03*
X35712400Y-49987200D03*
X43332400Y-55067200D03*
X43332400Y-49987200D03*
%TD*%
D23*
%TO.C,U1*%
X37846000Y-72390000D03*
X37846000Y-74930000D03*
X37846000Y-77470000D03*
X37846000Y-80010000D03*
X37846000Y-82550000D03*
X37846000Y-85090000D03*
X37846000Y-87630000D03*
X37846000Y-90170000D03*
X37846000Y-92710000D03*
X37846000Y-95250000D03*
X37846000Y-97790000D03*
X37846000Y-100330000D03*
X37846000Y-102870000D03*
X37846000Y-105410000D03*
X37846000Y-107950000D03*
X37846000Y-110490000D03*
X37846000Y-113030000D03*
X37846000Y-115570000D03*
X37846000Y-118110000D03*
X37846000Y-120650000D03*
X53086000Y-120650000D03*
X53086000Y-118110000D03*
X53086000Y-115570000D03*
X53086000Y-113030000D03*
X53086000Y-110490000D03*
X53086000Y-107950000D03*
X53086000Y-105410000D03*
X53086000Y-102870000D03*
X53086000Y-100330000D03*
X53086000Y-97790000D03*
X53086000Y-95250000D03*
X53086000Y-92710000D03*
X53086000Y-90170000D03*
X53086000Y-87630000D03*
X53086000Y-85090000D03*
X53086000Y-82550000D03*
X53086000Y-80010000D03*
X53086000Y-77470000D03*
X53086000Y-74930000D03*
X53086000Y-72390000D03*
%TD*%
%TO.C,U4*%
X116738400Y-52324000D03*
X116738400Y-54864000D03*
X116738400Y-57404000D03*
X116738400Y-59944000D03*
X116738400Y-62484000D03*
X116738400Y-65024000D03*
X116738400Y-67564000D03*
X116738400Y-70104000D03*
X124358400Y-70104000D03*
X124358400Y-67564000D03*
X124358400Y-65024000D03*
X124358400Y-62484000D03*
X124358400Y-59944000D03*
X124358400Y-57404000D03*
X124358400Y-54864000D03*
X124358400Y-52324000D03*
%TD*%
%TO.C,U6*%
X58166000Y-62941200D03*
X58166000Y-65481200D03*
X58166000Y-68021200D03*
X58166000Y-70561200D03*
X58166000Y-73101200D03*
X58166000Y-75641200D03*
X58166000Y-78181200D03*
X65786000Y-78181200D03*
X65786000Y-75641200D03*
X65786000Y-73101200D03*
X65786000Y-70561200D03*
X65786000Y-68021200D03*
X65786000Y-65481200D03*
X65786000Y-62941200D03*
%TD*%
%TO.C,U7*%
X86664800Y-62941200D03*
X86664800Y-65481200D03*
X86664800Y-68021200D03*
X86664800Y-70561200D03*
X86664800Y-73101200D03*
X86664800Y-75641200D03*
X86664800Y-78181200D03*
X86664800Y-80721200D03*
X94284800Y-80721200D03*
X94284800Y-78181200D03*
X94284800Y-75641200D03*
X94284800Y-73101200D03*
X94284800Y-70561200D03*
X94284800Y-68021200D03*
X94284800Y-65481200D03*
X94284800Y-62941200D03*
%TD*%
%TO.C,U8*%
X72390000Y-62839600D03*
X72390000Y-65379600D03*
X72390000Y-67919600D03*
X72390000Y-70459600D03*
X72390000Y-72999600D03*
X72390000Y-75539600D03*
X72390000Y-78079600D03*
X80010000Y-78079600D03*
X80010000Y-75539600D03*
X80010000Y-72999600D03*
X80010000Y-70459600D03*
X80010000Y-67919600D03*
X80010000Y-65379600D03*
X80010000Y-62839600D03*
%TD*%
%TO.C,U9*%
X120142000Y-77470000D03*
X120142000Y-80010000D03*
X120142000Y-82550000D03*
X120142000Y-85090000D03*
X120142000Y-87630000D03*
X120142000Y-90170000D03*
X120142000Y-92710000D03*
X120142000Y-95250000D03*
X127762000Y-95250000D03*
X127762000Y-92710000D03*
X127762000Y-90170000D03*
X127762000Y-87630000D03*
X127762000Y-85090000D03*
X127762000Y-82550000D03*
X127762000Y-80010000D03*
X127762000Y-77470000D03*
%TD*%
%TO.C,U10*%
X101955600Y-69951600D03*
X101955600Y-72491600D03*
X101955600Y-75031600D03*
X101955600Y-77571600D03*
X101955600Y-80111600D03*
X101955600Y-82651600D03*
X101955600Y-85191600D03*
X109575600Y-85191600D03*
X109575600Y-82651600D03*
X109575600Y-80111600D03*
X109575600Y-77571600D03*
X109575600Y-75031600D03*
X109575600Y-72491600D03*
X109575600Y-69951600D03*
%TD*%
%TO.C,U11*%
X119888000Y-103276400D03*
X119888000Y-105816400D03*
X119888000Y-108356400D03*
X119888000Y-110896400D03*
X119888000Y-113436400D03*
X119888000Y-115976400D03*
X119888000Y-118516400D03*
X127508000Y-118516400D03*
X127508000Y-115976400D03*
X127508000Y-113436400D03*
X127508000Y-110896400D03*
X127508000Y-108356400D03*
X127508000Y-105816400D03*
X127508000Y-103276400D03*
%TD*%
D24*
%TO.C,X1*%
X52070000Y-59588400D03*
X52070000Y-64668400D03*
%TD*%
D23*
%TO.C,U2*%
X57759600Y-87528400D03*
X57759600Y-90068400D03*
X57759600Y-92608400D03*
X57759600Y-95148400D03*
X57759600Y-97688400D03*
X57759600Y-100228400D03*
X57759600Y-102768400D03*
X57759600Y-105308400D03*
X57759600Y-107848400D03*
X57759600Y-110388400D03*
X57759600Y-112928400D03*
X57759600Y-115468400D03*
X57759600Y-118008400D03*
X57759600Y-120548400D03*
X72999600Y-120548400D03*
X72999600Y-118008400D03*
X72999600Y-115468400D03*
X72999600Y-112928400D03*
X72999600Y-110388400D03*
X72999600Y-107848400D03*
X72999600Y-105308400D03*
X72999600Y-102768400D03*
X72999600Y-100228400D03*
X72999600Y-97688400D03*
X72999600Y-95148400D03*
X72999600Y-92608400D03*
X72999600Y-90068400D03*
X72999600Y-87528400D03*
%TD*%
%TO.C,U3*%
X78435200Y-87630000D03*
X78435200Y-90170000D03*
X78435200Y-92710000D03*
X78435200Y-95250000D03*
X78435200Y-97790000D03*
X78435200Y-100330000D03*
X78435200Y-102870000D03*
X78435200Y-105410000D03*
X78435200Y-107950000D03*
X78435200Y-110490000D03*
X78435200Y-113030000D03*
X78435200Y-115570000D03*
X78435200Y-118110000D03*
X78435200Y-120650000D03*
X93675200Y-120650000D03*
X93675200Y-118110000D03*
X93675200Y-115570000D03*
X93675200Y-113030000D03*
X93675200Y-110490000D03*
X93675200Y-107950000D03*
X93675200Y-105410000D03*
X93675200Y-102870000D03*
X93675200Y-100330000D03*
X93675200Y-97790000D03*
X93675200Y-95250000D03*
X93675200Y-92710000D03*
X93675200Y-90170000D03*
X93675200Y-87630000D03*
%TD*%
%TO.C,U5*%
X99263200Y-92710000D03*
X99263200Y-95250000D03*
X99263200Y-97790000D03*
X99263200Y-100330000D03*
X99263200Y-102870000D03*
X99263200Y-105410000D03*
X99263200Y-107950000D03*
X99263200Y-110490000D03*
X99263200Y-113030000D03*
X99263200Y-115570000D03*
X99263200Y-118110000D03*
X99263200Y-120650000D03*
X114503200Y-120650000D03*
X114503200Y-118110000D03*
X114503200Y-115570000D03*
X114503200Y-113030000D03*
X114503200Y-110490000D03*
X114503200Y-107950000D03*
X114503200Y-105410000D03*
X114503200Y-102870000D03*
X114503200Y-100330000D03*
X114503200Y-97790000D03*
X114503200Y-95250000D03*
X114503200Y-92710000D03*
%TD*%
D25*
%TO.C,D1*%
X42722800Y-40894000D03*
D26*
X45262800Y-40894000D03*
%TD*%
D21*
%TO.C,R4*%
X56489600Y-51308000D03*
X46329600Y-51308000D03*
%TD*%
D27*
%TO.C,C1*%
X112115600Y-52324000D03*
D28*
X112115600Y-54824000D03*
%TD*%
D27*
%TO.C,C2*%
X112217200Y-59944000D03*
D28*
X112217200Y-62444000D03*
%TD*%
D27*
%TO.C,C3*%
X129184400Y-53289200D03*
D28*
X129184400Y-50789200D03*
%TD*%
D27*
%TO.C,C4*%
X128930400Y-60909200D03*
D28*
X128930400Y-63409200D03*
%TD*%
D29*
%TO.C,P2*%
X110286800Y-43434000D03*
D30*
X112826800Y-43434000D03*
X115366800Y-43434000D03*
X117906800Y-43434000D03*
%TD*%
D19*
%TO.C,P3*%
X34696400Y-75082400D03*
D20*
X34696400Y-77622400D03*
%TD*%
D19*
%TO.C,P4*%
X34848800Y-90220800D03*
D20*
X34848800Y-87680800D03*
%TD*%
D31*
%TO.C,J1*%
X102539800Y-46380400D03*
X77139800Y-46380400D03*
D32*
X95300800Y-48920400D03*
D33*
X92506800Y-48920400D03*
X89712800Y-48920400D03*
X87045800Y-48920400D03*
X84251800Y-48920400D03*
X85648800Y-46380400D03*
X88442800Y-46380400D03*
X91109800Y-46380400D03*
X93903800Y-46380400D03*
%TD*%
M02*
