%TF.GenerationSoftware,KiCad,Pcbnew,(6.0.2)*%
%TF.CreationDate,2022-04-25T16:03:39-04:00*%
%TF.ProjectId,MicroUK101,4d696372-6f55-44b3-9130-312e6b696361,rev?*%
%TF.SameCoordinates,Original*%
%TF.FileFunction,Copper,L2,Bot*%
%TF.FilePolarity,Positive*%
%FSLAX46Y46*%
G04 Gerber Fmt 4.6, Leading zero omitted, Abs format (unit mm)*
G04 Created by KiCad (PCBNEW (6.0.2)) date 2022-04-25 16:03:39*
%MOMM*%
%LPD*%
G01*
G04 APERTURE LIST*
%TA.AperFunction,ComponentPad*%
%ADD10R,1.200000X1.200000*%
%TD*%
%TA.AperFunction,ComponentPad*%
%ADD11C,1.200000*%
%TD*%
%TA.AperFunction,ComponentPad*%
%ADD12R,3.500120X3.500120*%
%TD*%
%TA.AperFunction,ComponentPad*%
%ADD13R,1.727200X1.727200*%
%TD*%
%TA.AperFunction,ComponentPad*%
%ADD14O,1.727200X1.727200*%
%TD*%
%TA.AperFunction,ComponentPad*%
%ADD15C,1.998980*%
%TD*%
%TA.AperFunction,ComponentPad*%
%ADD16C,1.397000*%
%TD*%
%TA.AperFunction,ComponentPad*%
%ADD17O,2.300000X1.600000*%
%TD*%
%TA.AperFunction,ComponentPad*%
%ADD18C,1.778000*%
%TD*%
%TA.AperFunction,ComponentPad*%
%ADD19R,2.000000X2.000000*%
%TD*%
%TA.AperFunction,ComponentPad*%
%ADD20C,2.000000*%
%TD*%
%TA.AperFunction,ComponentPad*%
%ADD21R,1.300000X1.300000*%
%TD*%
%TA.AperFunction,ComponentPad*%
%ADD22C,1.300000*%
%TD*%
%TA.AperFunction,ComponentPad*%
%ADD23C,1.700000*%
%TD*%
%TA.AperFunction,ComponentPad*%
%ADD24R,1.727200X2.032000*%
%TD*%
%TA.AperFunction,ComponentPad*%
%ADD25O,1.727200X2.032000*%
%TD*%
%TA.AperFunction,ComponentPad*%
%ADD26C,3.810000*%
%TD*%
%TA.AperFunction,ComponentPad*%
%ADD27R,1.524000X1.524000*%
%TD*%
%TA.AperFunction,ComponentPad*%
%ADD28C,1.524000*%
%TD*%
%TA.AperFunction,ViaPad*%
%ADD29C,0.600000*%
%TD*%
%TA.AperFunction,Conductor*%
%ADD30C,0.250000*%
%TD*%
%TA.AperFunction,Conductor*%
%ADD31C,1.000000*%
%TD*%
%TA.AperFunction,Conductor*%
%ADD32C,0.300000*%
%TD*%
G04 APERTURE END LIST*
D10*
%TO.P,C5,1*%
%TO.N,5V*%
X124460000Y-47447200D03*
D11*
%TO.P,C5,2*%
%TO.N,GND*%
X121960000Y-47447200D03*
%TD*%
D10*
%TO.P,C6,1*%
%TO.N,Net-(C6-Pad1)*%
X92252800Y-55829200D03*
D11*
%TO.P,C6,2*%
%TO.N,Net-(C6-Pad2)*%
X94752800Y-55829200D03*
%TD*%
D12*
%TO.P,CON1,1*%
%TO.N,Net-(CON1-Pad1)*%
X64820800Y-47754540D03*
%TO.P,CON1,2*%
%TO.N,Net-(CON1-Pad2)*%
X64820800Y-41755060D03*
%TO.P,CON1,3*%
%TO.N,Net-(CON1-Pad3)*%
X60121800Y-44754800D03*
%TD*%
D13*
%TO.P,P1,1*%
%TO.N,CLOCK*%
X37642800Y-63144400D03*
D14*
%TO.P,P1,2*%
%TO.N,2MHz*%
X40182800Y-63144400D03*
%TO.P,P1,3*%
%TO.N,CLOCK*%
X37642800Y-65684400D03*
%TO.P,P1,4*%
%TO.N,1MHz*%
X40182800Y-65684400D03*
%TD*%
D15*
%TO.P,R1,1*%
%TO.N,5V*%
X68834000Y-55067200D03*
%TO.P,R1,2*%
%TO.N,RESET*%
X58674000Y-55067200D03*
%TD*%
%TO.P,R2,1*%
%TO.N,Net-(C6-Pad2)*%
X87376000Y-52222400D03*
%TO.P,R2,2*%
%TO.N,Net-(R2-Pad2)*%
X77216000Y-52222400D03*
%TD*%
%TO.P,R3,1*%
%TO.N,Net-(R3-Pad1)*%
X77470000Y-55880000D03*
%TO.P,R3,2*%
%TO.N,Net-(C6-Pad1)*%
X87630000Y-55880000D03*
%TD*%
D16*
%TO.P,SW1,1*%
%TO.N,RESET*%
X35712400Y-55067200D03*
X43332400Y-55067200D03*
%TO.P,SW1,2*%
%TO.N,GND*%
X43332400Y-49987200D03*
X35712400Y-49987200D03*
%TD*%
D17*
%TO.P,U1,1*%
%TO.N,VSS*%
X37846000Y-72390000D03*
%TO.P,U1,2*%
%TO.N,5V*%
X37846000Y-74930000D03*
%TO.P,U1,3*%
%TO.N,Net-(U1-Pad3)*%
X37846000Y-77470000D03*
%TO.P,U1,4*%
%TO.N,~{IRQ}*%
X37846000Y-80010000D03*
%TO.P,U1,5*%
%TO.N,Net-(U1-Pad5)*%
X37846000Y-82550000D03*
%TO.P,U1,6*%
%TO.N,~{NMI}*%
X37846000Y-85090000D03*
%TO.P,U1,7*%
%TO.N,Net-(U1-Pad7)*%
X37846000Y-87630000D03*
%TO.P,U1,8*%
%TO.N,5V*%
X37846000Y-90170000D03*
%TO.P,U1,9*%
%TO.N,A0*%
X37846000Y-92710000D03*
%TO.P,U1,10*%
%TO.N,A1*%
X37846000Y-95250000D03*
%TO.P,U1,11*%
%TO.N,A2*%
X37846000Y-97790000D03*
%TO.P,U1,12*%
%TO.N,A3*%
X37846000Y-100330000D03*
%TO.P,U1,13*%
%TO.N,A4*%
X37846000Y-102870000D03*
%TO.P,U1,14*%
%TO.N,A5*%
X37846000Y-105410000D03*
%TO.P,U1,15*%
%TO.N,A6*%
X37846000Y-107950000D03*
%TO.P,U1,16*%
%TO.N,A7*%
X37846000Y-110490000D03*
%TO.P,U1,17*%
%TO.N,A8*%
X37846000Y-113030000D03*
%TO.P,U1,18*%
%TO.N,A9*%
X37846000Y-115570000D03*
%TO.P,U1,19*%
%TO.N,A10*%
X37846000Y-118110000D03*
%TO.P,U1,20*%
%TO.N,A11*%
X37846000Y-120650000D03*
%TO.P,U1,21*%
%TO.N,GND*%
X53086000Y-120650000D03*
%TO.P,U1,22*%
%TO.N,A12*%
X53086000Y-118110000D03*
%TO.P,U1,23*%
%TO.N,A13*%
X53086000Y-115570000D03*
%TO.P,U1,24*%
%TO.N,A14*%
X53086000Y-113030000D03*
%TO.P,U1,25*%
%TO.N,A15*%
X53086000Y-110490000D03*
%TO.P,U1,26*%
%TO.N,D7*%
X53086000Y-107950000D03*
%TO.P,U1,27*%
%TO.N,D6*%
X53086000Y-105410000D03*
%TO.P,U1,28*%
%TO.N,D5*%
X53086000Y-102870000D03*
%TO.P,U1,29*%
%TO.N,D4*%
X53086000Y-100330000D03*
%TO.P,U1,30*%
%TO.N,D3*%
X53086000Y-97790000D03*
%TO.P,U1,31*%
%TO.N,D2*%
X53086000Y-95250000D03*
%TO.P,U1,32*%
%TO.N,D1*%
X53086000Y-92710000D03*
%TO.P,U1,33*%
%TO.N,D0*%
X53086000Y-90170000D03*
%TO.P,U1,34*%
%TO.N,R/~{W}*%
X53086000Y-87630000D03*
%TO.P,U1,35*%
%TO.N,Net-(U1-Pad35)*%
X53086000Y-85090000D03*
%TO.P,U1,36*%
%TO.N,Net-(U1-Pad36)*%
X53086000Y-82550000D03*
%TO.P,U1,37*%
%TO.N,CLOCK*%
X53086000Y-80010000D03*
%TO.P,U1,38*%
%TO.N,Net-(U1-Pad38)*%
X53086000Y-77470000D03*
%TO.P,U1,39*%
%TO.N,Phi2*%
X53086000Y-74930000D03*
%TO.P,U1,40*%
%TO.N,RESET*%
X53086000Y-72390000D03*
%TD*%
%TO.P,U4,1*%
%TO.N,Net-(C1-Pad1)*%
X116738400Y-52324000D03*
%TO.P,U4,2*%
%TO.N,Net-(C3-Pad1)*%
X116738400Y-54864000D03*
%TO.P,U4,3*%
%TO.N,Net-(C1-Pad2)*%
X116738400Y-57404000D03*
%TO.P,U4,4*%
%TO.N,Net-(C2-Pad1)*%
X116738400Y-59944000D03*
%TO.P,U4,5*%
%TO.N,Net-(C2-Pad2)*%
X116738400Y-62484000D03*
%TO.P,U4,6*%
%TO.N,Net-(C4-Pad2)*%
X116738400Y-65024000D03*
%TO.P,U4,7*%
%TO.N,Tx*%
X116738400Y-67564000D03*
%TO.P,U4,8*%
%TO.N,Rx*%
X116738400Y-70104000D03*
%TO.P,U4,9*%
%TO.N,Net-(U4-Pad9)*%
X124358400Y-70104000D03*
%TO.P,U4,10*%
%TO.N,Net-(U4-Pad10)*%
X124358400Y-67564000D03*
%TO.P,U4,11*%
%TO.N,TTL_Tx*%
X124358400Y-65024000D03*
%TO.P,U4,12*%
%TO.N,TTL_Rx*%
X124358400Y-62484000D03*
%TO.P,U4,13*%
%TO.N,Net-(U4-Pad13)*%
X124358400Y-59944000D03*
%TO.P,U4,14*%
%TO.N,Net-(U4-Pad14)*%
X124358400Y-57404000D03*
%TO.P,U4,15*%
%TO.N,GND*%
X124358400Y-54864000D03*
%TO.P,U4,16*%
%TO.N,5V*%
X124358400Y-52324000D03*
%TD*%
%TO.P,U6,1*%
%TO.N,Net-(R2-Pad2)*%
X58166000Y-62941200D03*
%TO.P,U6,2*%
%TO.N,Net-(C6-Pad2)*%
X58166000Y-65481200D03*
%TO.P,U6,3*%
%TO.N,Net-(C6-Pad1)*%
X58166000Y-68021200D03*
%TO.P,U6,4*%
%TO.N,Net-(R3-Pad1)*%
X58166000Y-70561200D03*
%TO.P,U6,5*%
X58166000Y-73101200D03*
%TO.P,U6,6*%
%TO.N,4MHz*%
X58166000Y-75641200D03*
%TO.P,U6,7*%
%TO.N,GND*%
X58166000Y-78181200D03*
%TO.P,U6,8*%
%TO.N,Net-(U11-Pad2)*%
X65786000Y-78181200D03*
%TO.P,U6,9*%
%TO.N,A11*%
X65786000Y-75641200D03*
%TO.P,U6,10*%
%TO.N,CS_ACIA*%
X65786000Y-73101200D03*
%TO.P,U6,11*%
%TO.N,Fxxx*%
X65786000Y-70561200D03*
%TO.P,U6,12*%
%TO.N,Net-(U10-Pad4)*%
X65786000Y-68021200D03*
%TO.P,U6,13*%
%TO.N,R/~{W}*%
X65786000Y-65481200D03*
%TO.P,U6,14*%
%TO.N,5V*%
X65786000Y-62941200D03*
%TD*%
%TO.P,U7,1*%
%TO.N,Net-(U10-Pad11)*%
X86664800Y-62941200D03*
%TO.P,U7,2*%
%TO.N,4MHz*%
X86664800Y-65481200D03*
%TO.P,U7,3*%
%TO.N,GND*%
X86664800Y-68021200D03*
%TO.P,U7,4*%
X86664800Y-70561200D03*
%TO.P,U7,5*%
X86664800Y-73101200D03*
%TO.P,U7,6*%
X86664800Y-75641200D03*
%TO.P,U7,7*%
%TO.N,5V*%
X86664800Y-78181200D03*
%TO.P,U7,8*%
%TO.N,GND*%
X86664800Y-80721200D03*
%TO.P,U7,9*%
%TO.N,5V*%
X94284800Y-80721200D03*
%TO.P,U7,10*%
X94284800Y-78181200D03*
%TO.P,U7,11*%
%TO.N,BAUDCLK*%
X94284800Y-75641200D03*
%TO.P,U7,12*%
%TO.N,Net-(U10-Pad12)*%
X94284800Y-73101200D03*
%TO.P,U7,13*%
%TO.N,Net-(U7-Pad13)*%
X94284800Y-70561200D03*
%TO.P,U7,14*%
%TO.N,Net-(U7-Pad14)*%
X94284800Y-68021200D03*
%TO.P,U7,15*%
%TO.N,Net-(U7-Pad15)*%
X94284800Y-65481200D03*
%TO.P,U7,16*%
%TO.N,5V*%
X94284800Y-62941200D03*
%TD*%
%TO.P,U8,1*%
%TO.N,5V*%
X72390000Y-62839600D03*
%TO.P,U8,2*%
%TO.N,2MHz*%
X72390000Y-65379600D03*
%TO.P,U8,3*%
%TO.N,4MHz*%
X72390000Y-67919600D03*
%TO.P,U8,4*%
%TO.N,5V*%
X72390000Y-70459600D03*
%TO.P,U8,5*%
%TO.N,Net-(U8-Pad5)*%
X72390000Y-72999600D03*
%TO.P,U8,6*%
%TO.N,2MHz*%
X72390000Y-75539600D03*
%TO.P,U8,7*%
%TO.N,GND*%
X72390000Y-78079600D03*
%TO.P,U8,8*%
%TO.N,1MHz*%
X80010000Y-78079600D03*
%TO.P,U8,9*%
%TO.N,Net-(U8-Pad9)*%
X80010000Y-75539600D03*
%TO.P,U8,10*%
%TO.N,5V*%
X80010000Y-72999600D03*
%TO.P,U8,11*%
%TO.N,2MHz*%
X80010000Y-70459600D03*
%TO.P,U8,12*%
%TO.N,1MHz*%
X80010000Y-67919600D03*
%TO.P,U8,13*%
%TO.N,5V*%
X80010000Y-65379600D03*
%TO.P,U8,14*%
X80010000Y-62839600D03*
%TD*%
%TO.P,U9,1*%
%TO.N,A12*%
X120142000Y-77470000D03*
%TO.P,U9,2*%
%TO.N,A13*%
X120142000Y-80010000D03*
%TO.P,U9,3*%
%TO.N,A14*%
X120142000Y-82550000D03*
%TO.P,U9,4*%
%TO.N,GND*%
X120142000Y-85090000D03*
%TO.P,U9,5*%
X120142000Y-87630000D03*
%TO.P,U9,6*%
%TO.N,A15*%
X120142000Y-90170000D03*
%TO.P,U9,7*%
%TO.N,Fxxx*%
X120142000Y-92710000D03*
%TO.P,U9,8*%
%TO.N,GND*%
X120142000Y-95250000D03*
%TO.P,U9,9*%
%TO.N,Exxx*%
X127762000Y-95250000D03*
%TO.P,U9,10*%
%TO.N,Dxxx*%
X127762000Y-92710000D03*
%TO.P,U9,11*%
%TO.N,Cxxx*%
X127762000Y-90170000D03*
%TO.P,U9,12*%
%TO.N,Bxxx*%
X127762000Y-87630000D03*
%TO.P,U9,13*%
%TO.N,Axxx*%
X127762000Y-85090000D03*
%TO.P,U9,14*%
%TO.N,9xxx*%
X127762000Y-82550000D03*
%TO.P,U9,15*%
%TO.N,8xxx*%
X127762000Y-80010000D03*
%TO.P,U9,16*%
%TO.N,5V*%
X127762000Y-77470000D03*
%TD*%
%TO.P,U10,1*%
%TO.N,Axxx*%
X101955600Y-69951600D03*
%TO.P,U10,2*%
%TO.N,Bxxx*%
X101955600Y-72491600D03*
%TO.P,U10,3*%
%TO.N,Net-(U10-Pad3)*%
X101955600Y-75031600D03*
%TO.P,U10,4*%
%TO.N,Net-(U10-Pad4)*%
X101955600Y-77571600D03*
%TO.P,U10,5*%
%TO.N,Phi2*%
X101955600Y-80111600D03*
%TO.P,U10,6*%
%TO.N,~{WRITE}*%
X101955600Y-82651600D03*
%TO.P,U10,7*%
%TO.N,GND*%
X101955600Y-85191600D03*
%TO.P,U10,8*%
%TO.N,~{READ}*%
X109575600Y-85191600D03*
%TO.P,U10,9*%
%TO.N,R/~{W}*%
X109575600Y-82651600D03*
%TO.P,U10,10*%
%TO.N,Phi2*%
X109575600Y-80111600D03*
%TO.P,U10,11*%
%TO.N,Net-(U10-Pad11)*%
X109575600Y-77571600D03*
%TO.P,U10,12*%
%TO.N,Net-(U10-Pad12)*%
X109575600Y-75031600D03*
%TO.P,U10,13*%
%TO.N,BAUDCLK*%
X109575600Y-72491600D03*
%TO.P,U10,14*%
%TO.N,5V*%
X109575600Y-69951600D03*
%TD*%
%TO.P,U11,1*%
%TO.N,Net-(U11-Pad1)*%
X119888000Y-103276400D03*
%TO.P,U11,2*%
%TO.N,Net-(U11-Pad2)*%
X119888000Y-105816400D03*
%TO.P,U11,3*%
%TO.N,Fxxx*%
X119888000Y-108356400D03*
%TO.P,U11,4*%
%TO.N,CS_ROM*%
X119888000Y-110896400D03*
%TO.P,U11,5*%
%TO.N,Net-(U11-Pad1)*%
X119888000Y-113436400D03*
%TO.P,U11,6*%
%TO.N,Net-(U10-Pad3)*%
X119888000Y-115976400D03*
%TO.P,U11,7*%
%TO.N,GND*%
X119888000Y-118516400D03*
%TO.P,U11,8*%
%TO.N,Net-(U11-Pad8)*%
X127508000Y-118516400D03*
%TO.P,U11,9*%
%TO.N,Net-(U11-Pad9)*%
X127508000Y-115976400D03*
%TO.P,U11,10*%
%TO.N,Net-(U11-Pad10)*%
X127508000Y-113436400D03*
%TO.P,U11,11*%
%TO.N,Net-(U11-Pad11)*%
X127508000Y-110896400D03*
%TO.P,U11,12*%
%TO.N,Net-(U11-Pad12)*%
X127508000Y-108356400D03*
%TO.P,U11,13*%
%TO.N,Net-(U11-Pad13)*%
X127508000Y-105816400D03*
%TO.P,U11,14*%
%TO.N,5V*%
X127508000Y-103276400D03*
%TD*%
D18*
%TO.P,X1,1*%
%TO.N,Net-(R2-Pad2)*%
X52070000Y-59588400D03*
%TO.P,X1,2*%
%TO.N,Net-(R3-Pad1)*%
X52070000Y-64668400D03*
%TD*%
D17*
%TO.P,U2,1*%
%TO.N,A14*%
X57759600Y-87528400D03*
%TO.P,U2,2*%
%TO.N,A12*%
X57759600Y-90068400D03*
%TO.P,U2,3*%
%TO.N,A7*%
X57759600Y-92608400D03*
%TO.P,U2,4*%
%TO.N,A6*%
X57759600Y-95148400D03*
%TO.P,U2,5*%
%TO.N,A5*%
X57759600Y-97688400D03*
%TO.P,U2,6*%
%TO.N,A4*%
X57759600Y-100228400D03*
%TO.P,U2,7*%
%TO.N,A3*%
X57759600Y-102768400D03*
%TO.P,U2,8*%
%TO.N,A2*%
X57759600Y-105308400D03*
%TO.P,U2,9*%
%TO.N,A1*%
X57759600Y-107848400D03*
%TO.P,U2,10*%
%TO.N,A0*%
X57759600Y-110388400D03*
%TO.P,U2,11*%
%TO.N,D0*%
X57759600Y-112928400D03*
%TO.P,U2,12*%
%TO.N,D1*%
X57759600Y-115468400D03*
%TO.P,U2,13*%
%TO.N,D2*%
X57759600Y-118008400D03*
%TO.P,U2,14*%
%TO.N,GND*%
X57759600Y-120548400D03*
%TO.P,U2,15*%
%TO.N,D3*%
X72999600Y-120548400D03*
%TO.P,U2,16*%
%TO.N,D4*%
X72999600Y-118008400D03*
%TO.P,U2,17*%
%TO.N,D5*%
X72999600Y-115468400D03*
%TO.P,U2,18*%
%TO.N,D6*%
X72999600Y-112928400D03*
%TO.P,U2,19*%
%TO.N,D7*%
X72999600Y-110388400D03*
%TO.P,U2,20*%
%TO.N,A15*%
X72999600Y-107848400D03*
%TO.P,U2,21*%
%TO.N,A10*%
X72999600Y-105308400D03*
%TO.P,U2,22*%
%TO.N,~{READ}*%
X72999600Y-102768400D03*
%TO.P,U2,23*%
%TO.N,A11*%
X72999600Y-100228400D03*
%TO.P,U2,24*%
%TO.N,A9*%
X72999600Y-97688400D03*
%TO.P,U2,25*%
%TO.N,A8*%
X72999600Y-95148400D03*
%TO.P,U2,26*%
%TO.N,A13*%
X72999600Y-92608400D03*
%TO.P,U2,27*%
%TO.N,~{WRITE}*%
X72999600Y-90068400D03*
%TO.P,U2,28*%
%TO.N,5V*%
X72999600Y-87528400D03*
%TD*%
%TO.P,U3,1*%
%TO.N,5V*%
X78435200Y-87630000D03*
%TO.P,U3,2*%
%TO.N,A12*%
X78435200Y-90170000D03*
%TO.P,U3,3*%
%TO.N,A7*%
X78435200Y-92710000D03*
%TO.P,U3,4*%
%TO.N,A6*%
X78435200Y-95250000D03*
%TO.P,U3,5*%
%TO.N,A5*%
X78435200Y-97790000D03*
%TO.P,U3,6*%
%TO.N,A4*%
X78435200Y-100330000D03*
%TO.P,U3,7*%
%TO.N,A3*%
X78435200Y-102870000D03*
%TO.P,U3,8*%
%TO.N,A2*%
X78435200Y-105410000D03*
%TO.P,U3,9*%
%TO.N,A1*%
X78435200Y-107950000D03*
%TO.P,U3,10*%
%TO.N,A0*%
X78435200Y-110490000D03*
%TO.P,U3,11*%
%TO.N,D0*%
X78435200Y-113030000D03*
%TO.P,U3,12*%
%TO.N,D1*%
X78435200Y-115570000D03*
%TO.P,U3,13*%
%TO.N,D2*%
X78435200Y-118110000D03*
%TO.P,U3,14*%
%TO.N,GND*%
X78435200Y-120650000D03*
%TO.P,U3,15*%
%TO.N,D3*%
X93675200Y-120650000D03*
%TO.P,U3,16*%
%TO.N,D4*%
X93675200Y-118110000D03*
%TO.P,U3,17*%
%TO.N,D5*%
X93675200Y-115570000D03*
%TO.P,U3,18*%
%TO.N,D6*%
X93675200Y-113030000D03*
%TO.P,U3,19*%
%TO.N,D7*%
X93675200Y-110490000D03*
%TO.P,U3,20*%
%TO.N,CS_ROM*%
X93675200Y-107950000D03*
%TO.P,U3,21*%
%TO.N,A10*%
X93675200Y-105410000D03*
%TO.P,U3,22*%
%TO.N,~{READ}*%
X93675200Y-102870000D03*
%TO.P,U3,23*%
%TO.N,A11*%
X93675200Y-100330000D03*
%TO.P,U3,24*%
%TO.N,A9*%
X93675200Y-97790000D03*
%TO.P,U3,25*%
%TO.N,A8*%
X93675200Y-95250000D03*
%TO.P,U3,26*%
%TO.N,A13*%
X93675200Y-92710000D03*
%TO.P,U3,27*%
%TO.N,A14*%
X93675200Y-90170000D03*
%TO.P,U3,28*%
%TO.N,5V*%
X93675200Y-87630000D03*
%TD*%
%TO.P,U5,1*%
%TO.N,GND*%
X99263200Y-92710000D03*
%TO.P,U5,2*%
%TO.N,TTL_Rx*%
X99263200Y-95250000D03*
%TO.P,U5,3*%
%TO.N,BAUDCLK*%
X99263200Y-97790000D03*
%TO.P,U5,4*%
X99263200Y-100330000D03*
%TO.P,U5,5*%
%TO.N,Net-(U5-Pad5)*%
X99263200Y-102870000D03*
%TO.P,U5,6*%
%TO.N,TTL_Tx*%
X99263200Y-105410000D03*
%TO.P,U5,7*%
%TO.N,Net-(U5-Pad7)*%
X99263200Y-107950000D03*
%TO.P,U5,8*%
%TO.N,CS_ACIA*%
X99263200Y-110490000D03*
%TO.P,U5,9*%
%TO.N,A11*%
X99263200Y-113030000D03*
%TO.P,U5,10*%
%TO.N,5V*%
X99263200Y-115570000D03*
%TO.P,U5,11*%
%TO.N,A0*%
X99263200Y-118110000D03*
%TO.P,U5,12*%
%TO.N,5V*%
X99263200Y-120650000D03*
%TO.P,U5,13*%
%TO.N,R/~{W}*%
X114503200Y-120650000D03*
%TO.P,U5,14*%
%TO.N,Phi2*%
X114503200Y-118110000D03*
%TO.P,U5,15*%
%TO.N,D7*%
X114503200Y-115570000D03*
%TO.P,U5,16*%
%TO.N,D6*%
X114503200Y-113030000D03*
%TO.P,U5,17*%
%TO.N,D5*%
X114503200Y-110490000D03*
%TO.P,U5,18*%
%TO.N,D4*%
X114503200Y-107950000D03*
%TO.P,U5,19*%
%TO.N,D3*%
X114503200Y-105410000D03*
%TO.P,U5,20*%
%TO.N,D2*%
X114503200Y-102870000D03*
%TO.P,U5,21*%
%TO.N,D1*%
X114503200Y-100330000D03*
%TO.P,U5,22*%
%TO.N,D0*%
X114503200Y-97790000D03*
%TO.P,U5,23*%
%TO.N,GND*%
X114503200Y-95250000D03*
%TO.P,U5,24*%
X114503200Y-92710000D03*
%TD*%
D19*
%TO.P,D1,1*%
%TO.N,GND*%
X42722800Y-40894000D03*
D20*
%TO.P,D1,2*%
%TO.N,Net-(D1-Pad2)*%
X45262800Y-40894000D03*
%TD*%
D15*
%TO.P,R4,1*%
%TO.N,5V*%
X56489600Y-51308000D03*
%TO.P,R4,2*%
%TO.N,Net-(D1-Pad2)*%
X46329600Y-51308000D03*
%TD*%
D21*
%TO.P,C1,1*%
%TO.N,Net-(C1-Pad1)*%
X112115600Y-52324000D03*
D22*
%TO.P,C1,2*%
%TO.N,Net-(C1-Pad2)*%
X112115600Y-54824000D03*
%TD*%
D21*
%TO.P,C2,1*%
%TO.N,Net-(C2-Pad1)*%
X112217200Y-59944000D03*
D22*
%TO.P,C2,2*%
%TO.N,Net-(C2-Pad2)*%
X112217200Y-62444000D03*
%TD*%
D21*
%TO.P,C3,1*%
%TO.N,Net-(C3-Pad1)*%
X129184400Y-53289200D03*
D22*
%TO.P,C3,2*%
%TO.N,5V*%
X129184400Y-50789200D03*
%TD*%
D21*
%TO.P,C4,1*%
%TO.N,GND*%
X128930400Y-60909200D03*
D22*
%TO.P,C4,2*%
%TO.N,Net-(C4-Pad2)*%
X128930400Y-63409200D03*
%TD*%
D23*
%TO.P,SW2,1*%
%TO.N,GND*%
X50850800Y-45212000D03*
%TO.P,SW2,2*%
%TO.N,Net-(CON1-Pad2)*%
X50850800Y-39212000D03*
%TO.P,SW2,3*%
%TO.N,5V*%
X54850800Y-45212000D03*
%TO.P,SW2,4*%
%TO.N,Net-(CON1-Pad1)*%
X54850800Y-39212000D03*
%TD*%
D24*
%TO.P,P2,1*%
%TO.N,5V*%
X110286800Y-43434000D03*
D25*
%TO.P,P2,2*%
%TO.N,TTL_Rx*%
X112826800Y-43434000D03*
%TO.P,P2,3*%
%TO.N,TTL_Tx*%
X115366800Y-43434000D03*
%TO.P,P2,4*%
%TO.N,GND*%
X117906800Y-43434000D03*
%TD*%
D13*
%TO.P,P3,1*%
%TO.N,5V*%
X34696400Y-75082400D03*
D14*
%TO.P,P3,2*%
%TO.N,~{IRQ}*%
X34696400Y-77622400D03*
%TD*%
D13*
%TO.P,P4,1*%
%TO.N,5V*%
X34848800Y-90220800D03*
D14*
%TO.P,P4,2*%
%TO.N,~{NMI}*%
X34848800Y-87680800D03*
%TD*%
D26*
%TO.P,J1,*%
%TO.N,*%
X77139800Y-46380400D03*
X102539800Y-46380400D03*
D27*
%TO.P,J1,1*%
%TO.N,Net-(J1-Pad1)*%
X95300800Y-48920400D03*
D28*
%TO.P,J1,2*%
%TO.N,Rx*%
X92506800Y-48920400D03*
%TO.P,J1,3*%
%TO.N,Tx*%
X89712800Y-48920400D03*
%TO.P,J1,4*%
%TO.N,Net-(J1-Pad4)*%
X87045800Y-48920400D03*
%TO.P,J1,5*%
%TO.N,GND*%
X84251800Y-48920400D03*
%TO.P,J1,6*%
%TO.N,Net-(J1-Pad6)*%
X93903800Y-46380400D03*
%TO.P,J1,7*%
%TO.N,Net-(J1-Pad7)*%
X91109800Y-46380400D03*
%TO.P,J1,8*%
%TO.N,Net-(J1-Pad8)*%
X88442800Y-46380400D03*
%TO.P,J1,9*%
%TO.N,Net-(J1-Pad9)*%
X85648800Y-46380400D03*
%TD*%
D29*
%TO.N,Net-(C6-Pad1)*%
X61772800Y-56997600D03*
%TO.N,5V*%
X84480400Y-59690000D03*
%TO.N,GND*%
X83515200Y-80873600D03*
%TO.N,Rx*%
X92440800Y-51854400D03*
%TO.N,1MHz*%
X83413600Y-68884800D03*
%TO.N,Net-(R3-Pad1)*%
X62890400Y-58572400D03*
%TO.N,A0*%
X45415200Y-109270800D03*
X95300800Y-111861600D03*
%TO.N,A3*%
X50190400Y-105359200D03*
%TO.N,A4*%
X41198800Y-101498400D03*
%TO.N,A5*%
X42214800Y-99060000D03*
%TO.N,A6*%
X43383200Y-96570800D03*
%TO.N,A7*%
X44145200Y-93980000D03*
%TO.N,A10*%
X60452000Y-103987600D03*
X48564800Y-118059200D03*
%TO.N,A11*%
X103784400Y-112928400D03*
X103835200Y-104140000D03*
X95605600Y-104394000D03*
X76301600Y-98958400D03*
%TO.N,A12*%
X95148400Y-91389200D03*
X64058800Y-120548400D03*
X104698800Y-78892400D03*
X64008000Y-91541600D03*
%TO.N,A13*%
X113131600Y-84988400D03*
X108153200Y-89916000D03*
X101447600Y-93065600D03*
%TO.N,A14*%
X113030000Y-87528400D03*
X103124000Y-87274400D03*
X49682400Y-86410800D03*
X115824000Y-84683600D03*
X46990000Y-111963200D03*
%TO.N,A15*%
X62026800Y-113385600D03*
X62179200Y-107391200D03*
X117652800Y-105562400D03*
%TO.N,D7*%
X103174800Y-115773200D03*
%TO.N,D6*%
X61214000Y-106527600D03*
X61214000Y-111658400D03*
%TO.N,D5*%
X111760000Y-114198400D03*
X62941200Y-102768400D03*
X63042800Y-115468400D03*
%TO.N,D4*%
X110947200Y-116840000D03*
X59893200Y-116128800D03*
X59791600Y-98958400D03*
%TO.N,D3*%
X106934000Y-119430800D03*
X65938400Y-97688400D03*
X65887600Y-120599200D03*
X107035600Y-105714800D03*
%TO.N,D2*%
X86969600Y-118110000D03*
X105867200Y-103530400D03*
X64922400Y-119380000D03*
X64719200Y-95300800D03*
%TO.N,D1*%
X48971200Y-114300000D03*
X88239600Y-115671600D03*
X106680000Y-100330000D03*
%TO.N,D0*%
X91287600Y-99161600D03*
X90982800Y-114300000D03*
X48006000Y-111353600D03*
%TO.N,R/~{W}*%
X68732400Y-90220800D03*
X99364800Y-83921600D03*
X63500000Y-84734400D03*
X96012000Y-84785200D03*
%TO.N,~{READ}*%
X106629200Y-85191600D03*
X103936800Y-101600000D03*
%TO.N,BAUDCLK*%
X105714800Y-73710800D03*
%TO.N,CS_ACIA*%
X96316800Y-95199200D03*
X72948800Y-85750400D03*
%TO.N,Net-(U11-Pad2)*%
X65786000Y-84074000D03*
X118262400Y-96520000D03*
%TO.N,Fxxx*%
X103784400Y-86258400D03*
%TO.N,Net-(U10-Pad4)*%
X63246000Y-82397600D03*
%TO.N,Bxxx*%
X130149600Y-75336400D03*
X110693200Y-68021200D03*
%TO.N,Axxx*%
X125831600Y-79756000D03*
X115265200Y-75946000D03*
%TO.N,Net-(U10-Pad3)*%
X129641600Y-71983600D03*
X118872000Y-71628000D03*
%TO.N,TTL_Rx*%
X119430800Y-60350400D03*
X114401600Y-85090000D03*
X109829600Y-95199200D03*
X124968000Y-81178400D03*
%TO.N,TTL_Tx*%
X116586000Y-99060000D03*
X102971600Y-105410000D03*
X123799600Y-78079600D03*
X103073200Y-99364800D03*
%TO.N,~{WRITE}*%
X75031600Y-89814400D03*
%TD*%
D30*
%TO.N,*%
X41808400Y-95656400D02*
X41656000Y-95808800D01*
X110693200Y-90779600D02*
X110693200Y-90830400D01*
%TO.N,Net-(C6-Pad1)*%
X61722000Y-65786000D02*
X61722000Y-60604400D01*
X61772800Y-56997600D02*
X61722000Y-56997600D01*
X58166000Y-68021200D02*
X59486800Y-68021200D01*
X61722000Y-60604400D02*
X61722000Y-56997600D01*
X59486800Y-68021200D02*
X61722000Y-65786000D01*
%TO.N,Net-(C6-Pad2)*%
X60350400Y-55778400D02*
X60350400Y-57556400D01*
X58877200Y-65481200D02*
X60350400Y-64008000D01*
X60350400Y-64008000D02*
X60350400Y-57556400D01*
X61798200Y-54330600D02*
X60350400Y-55778400D01*
X61798200Y-54279800D02*
X62992000Y-53086000D01*
X81737200Y-50190400D02*
X83769200Y-52222400D01*
X73101200Y-50190400D02*
X81737200Y-50190400D01*
X72999600Y-50190400D02*
X70104000Y-53086000D01*
X70104000Y-53086000D02*
X62992000Y-53086000D01*
X58166000Y-65481200D02*
X58877200Y-65481200D01*
X87376000Y-52222400D02*
X83769200Y-52222400D01*
X73101200Y-50190400D02*
X72999600Y-50190400D01*
X61798200Y-54330600D02*
X61798200Y-54279800D01*
D31*
%TO.N,5V*%
X100685600Y-120650000D02*
X101346000Y-119989600D01*
X101346000Y-119989600D02*
X101346000Y-115824000D01*
X101346000Y-115824000D02*
X101092000Y-115570000D01*
X101092000Y-115570000D02*
X99263200Y-115570000D01*
X86664800Y-78181200D02*
X85293200Y-78181200D01*
X84531200Y-74930000D02*
X82600800Y-72999600D01*
X82600800Y-72999600D02*
X80010000Y-72999600D01*
X84480400Y-66649600D02*
X84480400Y-74879200D01*
D30*
X84480400Y-74879200D02*
X84531200Y-74930000D01*
D31*
X77724000Y-72999600D02*
X75184000Y-70459600D01*
X75184000Y-70459600D02*
X72390000Y-70459600D01*
X85140800Y-78181200D02*
X84480400Y-77520800D01*
X84480400Y-77520800D02*
X84480400Y-74879200D01*
X94030800Y-80721200D02*
X93675200Y-81076800D01*
X93675200Y-81076800D02*
X93675200Y-87630000D01*
X68834000Y-62839600D02*
X72390000Y-62839600D01*
X68834000Y-62788800D02*
X68834000Y-62839600D01*
X65938400Y-62788800D02*
X65786000Y-62941200D01*
X80010000Y-62839600D02*
X80060800Y-62890400D01*
X80060800Y-62890400D02*
X84480400Y-62890400D01*
X84480400Y-62890400D02*
X84480400Y-59690000D01*
X68834000Y-55067200D02*
X68834000Y-62788800D01*
X80010000Y-65379600D02*
X80010000Y-62839600D01*
X72390000Y-62839600D02*
X80010000Y-62839600D01*
X68834000Y-62788800D02*
X65938400Y-62788800D01*
X84480400Y-66649600D02*
X84480400Y-62890400D01*
X99263200Y-120650000D02*
X100685600Y-120650000D01*
X85293200Y-78181200D02*
X85140800Y-78181200D01*
X80010000Y-72999600D02*
X77724000Y-72999600D01*
X94284800Y-80721200D02*
X94030800Y-80721200D01*
D30*
X86664800Y-78181200D02*
X85699600Y-78181200D01*
D31*
%TO.N,GND*%
X123240800Y-54864000D02*
X121960000Y-53583200D01*
X121960000Y-53583200D02*
X121960000Y-47447200D01*
X43332400Y-49936400D02*
X48056800Y-45212000D01*
X48056800Y-45212000D02*
X50850800Y-45212000D01*
X97739200Y-50088800D02*
X97739200Y-57251600D01*
X97739200Y-57251600D02*
X95300800Y-59690000D01*
X95300800Y-59690000D02*
X90068400Y-59690000D01*
X88798400Y-68021200D02*
X90068400Y-66751200D01*
X90068400Y-66751200D02*
X90068400Y-59690000D01*
X60299600Y-123088400D02*
X65989200Y-123088400D01*
X65989200Y-123088400D02*
X67208400Y-121970800D01*
X67208400Y-121970800D02*
X67208400Y-91287600D01*
X60198000Y-85547200D02*
X58166000Y-83515200D01*
X58166000Y-83515200D02*
X58166000Y-78181200D01*
X50850800Y-45821600D02*
X53594000Y-48564800D01*
X53746400Y-48717200D02*
X53746400Y-56794400D01*
X53746400Y-56794400D02*
X55575200Y-58623200D01*
X56388000Y-78181200D02*
X55575200Y-77368400D01*
X55575200Y-77368400D02*
X55575200Y-58623200D01*
X53594000Y-48564800D02*
X53746400Y-48717200D01*
X67208400Y-90678000D02*
X62077600Y-85547200D01*
X62077600Y-85547200D02*
X60198000Y-85547200D01*
X81889600Y-120650000D02*
X83515200Y-119024400D01*
X83515200Y-119024400D02*
X83515200Y-80873600D01*
X102108000Y-41046400D02*
X116890800Y-41046400D01*
X116890800Y-41046400D02*
X117906800Y-42062400D01*
X117906800Y-42062400D02*
X117906800Y-43434000D01*
X117906800Y-43434000D02*
X117957600Y-43383200D01*
X117957600Y-43383200D02*
X120802400Y-43383200D01*
X120802400Y-43383200D02*
X121960000Y-44540800D01*
X121960000Y-44540800D02*
X121960000Y-47447200D01*
X75742800Y-41046400D02*
X73863200Y-42926000D01*
X73863200Y-42926000D02*
X73863200Y-42875200D01*
X97739200Y-45720000D02*
X97739200Y-48158400D01*
X97739200Y-41706800D02*
X97078800Y-41046400D01*
X97078800Y-41046400D02*
X82240800Y-41046400D01*
X97739200Y-48158400D02*
X97739200Y-50088800D01*
X84106800Y-48920400D02*
X82240800Y-47054400D01*
X82240800Y-47054400D02*
X82240800Y-41046400D01*
X82240800Y-41046400D02*
X75742800Y-41046400D01*
X89916000Y-125374400D02*
X90068400Y-125222000D01*
X83515200Y-119024400D02*
X83515200Y-121208800D01*
X83515200Y-121208800D02*
X87680800Y-125374400D01*
X58166000Y-78181200D02*
X56388000Y-78181200D01*
X59283600Y-48717200D02*
X53746400Y-48717200D01*
X67208400Y-91287600D02*
X67208400Y-90678000D01*
X72440800Y-44348400D02*
X72440800Y-49174400D01*
X119888000Y-123240800D02*
X119888000Y-118516400D01*
X57759600Y-120548400D02*
X60299600Y-123088400D01*
X75742800Y-41046400D02*
X72440800Y-44348400D01*
X102108000Y-41046400D02*
X97078800Y-41046400D01*
X72440800Y-49174400D02*
X69900800Y-51714400D01*
X84251800Y-48920400D02*
X84106800Y-48920400D01*
X87680800Y-125374400D02*
X89916000Y-125374400D01*
X69900800Y-51714400D02*
X62280800Y-51714400D01*
X86664800Y-68021200D02*
X88798400Y-68021200D01*
X62280800Y-51714400D02*
X59283600Y-48717200D01*
X117906800Y-125222000D02*
X119888000Y-123240800D01*
X124358400Y-54864000D02*
X123240800Y-54864000D01*
D30*
X43332400Y-49987200D02*
X43332400Y-49936400D01*
D31*
X78435200Y-120650000D02*
X81889600Y-120650000D01*
D32*
X50850800Y-45212000D02*
X50850800Y-45821600D01*
D31*
X97739200Y-45720000D02*
X97739200Y-41706800D01*
X90068400Y-125222000D02*
X117906800Y-125222000D01*
D30*
%TO.N,Rx*%
X92440800Y-51854400D02*
X92506800Y-51788400D01*
X92506800Y-51788400D02*
X92506800Y-48920400D01*
%TO.N,2MHz*%
X70967600Y-75539600D02*
X70713600Y-75285600D01*
X70713600Y-75285600D02*
X70713600Y-65684400D01*
X70713600Y-65684400D02*
X71018400Y-65379600D01*
X71018400Y-65379600D02*
X72390000Y-65379600D01*
X72390000Y-75539600D02*
X70967600Y-75539600D01*
%TO.N,1MHz*%
X82499200Y-67919600D02*
X80010000Y-67919600D01*
X83413600Y-68884800D02*
X83439000Y-68859400D01*
X83439000Y-68859400D02*
X82499200Y-67919600D01*
%TO.N,Net-(R3-Pad1)*%
X59537600Y-70256400D02*
X62890400Y-66903600D01*
X62890400Y-66903600D02*
X62890400Y-61620400D01*
X59232800Y-70561200D02*
X59537600Y-70256400D01*
X62890400Y-58572400D02*
X62890400Y-61620400D01*
X58166000Y-70561200D02*
X59232800Y-70561200D01*
%TO.N,A0*%
X44043600Y-92710000D02*
X37846000Y-92710000D01*
X98044000Y-118110000D02*
X99263200Y-118110000D01*
X97434400Y-117500400D02*
X97434400Y-113842800D01*
X97434400Y-113842800D02*
X95453200Y-111861600D01*
X95453200Y-111861600D02*
X95300800Y-111861600D01*
X45415200Y-94081600D02*
X44043600Y-92710000D01*
X98044000Y-118110000D02*
X97434400Y-117500400D01*
X45415200Y-109270800D02*
X45415200Y-94081600D01*
%TO.N,A3*%
X55118000Y-104190800D02*
X56540400Y-102768400D01*
X56540400Y-102768400D02*
X57759600Y-102768400D01*
X51206400Y-104190800D02*
X55118000Y-104190800D01*
X50342800Y-105054400D02*
X50342800Y-105206800D01*
X50342800Y-105206800D02*
X50190400Y-105359200D01*
X51206400Y-104190800D02*
X50342800Y-105054400D01*
%TO.N,A4*%
X37846000Y-102870000D02*
X39827200Y-102870000D01*
X39827200Y-102870000D02*
X41198800Y-101498400D01*
%TO.N,A5*%
X39827200Y-105410000D02*
X37846000Y-105410000D01*
X40030400Y-105410000D02*
X42214800Y-103225600D01*
X42214800Y-103225600D02*
X42214800Y-99060000D01*
X39827200Y-105410000D02*
X40030400Y-105410000D01*
%TO.N,A6*%
X43230800Y-96723200D02*
X43230800Y-105003600D01*
X40335200Y-107950000D02*
X37846000Y-107950000D01*
X40335200Y-107899200D02*
X43230800Y-105003600D01*
X40335200Y-107950000D02*
X40335200Y-107899200D01*
%TO.N,A7*%
X40182800Y-110490000D02*
X37846000Y-110490000D01*
X40182800Y-110388400D02*
X44145200Y-106426000D01*
X44145200Y-106426000D02*
X44145200Y-93980000D01*
X40182800Y-110490000D02*
X40182800Y-110388400D01*
%TO.N,A8*%
X39217600Y-113030000D02*
X43891200Y-117703600D01*
X43891200Y-117703600D02*
X43891200Y-123342400D01*
X43891200Y-123342400D02*
X46253400Y-125704600D01*
X66776600Y-125704600D02*
X69265800Y-123215400D01*
X69265800Y-97332800D02*
X69265800Y-123215400D01*
X69265800Y-97205800D02*
X71323200Y-95148400D01*
X71323200Y-95148400D02*
X72999600Y-95148400D01*
X46253400Y-125704600D02*
X66700400Y-125704600D01*
X66700400Y-125704600D02*
X66776600Y-125704600D01*
X37846000Y-113030000D02*
X39217600Y-113030000D01*
X69265800Y-97332800D02*
X69265800Y-97205800D01*
%TO.N,A9*%
X39116000Y-115570000D02*
X41859200Y-118313200D01*
X41859200Y-118313200D02*
X41859200Y-123850400D01*
X41859200Y-123850400D02*
X44907200Y-126898400D01*
X70713600Y-97688400D02*
X70027800Y-98374200D01*
X70027800Y-98374200D02*
X70027800Y-98933000D01*
X67208400Y-126898400D02*
X70027800Y-124079000D01*
X37846000Y-115570000D02*
X39116000Y-115570000D01*
X44907200Y-126898400D02*
X67208400Y-126898400D01*
X70764400Y-97688400D02*
X70713600Y-97688400D01*
X70027800Y-98933000D02*
X70027800Y-124079000D01*
X72999600Y-97688400D02*
X70764400Y-97688400D01*
%TO.N,A10*%
X59588400Y-119329200D02*
X49834800Y-119329200D01*
X49834800Y-119329200D02*
X48564800Y-118059200D01*
X60452000Y-103987600D02*
X60452000Y-111912400D01*
X60452000Y-111912400D02*
X60604400Y-112064800D01*
X60604400Y-112064800D02*
X60604400Y-118313200D01*
X60604400Y-118313200D02*
X59588400Y-119329200D01*
%TO.N,A11*%
X70967600Y-108000800D02*
X71018400Y-107950000D01*
X71018400Y-107950000D02*
X71018400Y-101752400D01*
X71577200Y-100228400D02*
X72999600Y-100228400D01*
X71526400Y-100279200D02*
X71018400Y-100787200D01*
X71018400Y-100787200D02*
X71018400Y-101752400D01*
X39471600Y-120650000D02*
X40640000Y-121818400D01*
X40640000Y-121818400D02*
X40640000Y-124968000D01*
X40640000Y-124968000D02*
X43992800Y-128320800D01*
X43992800Y-128320800D02*
X67310000Y-128320800D01*
X67310000Y-128320800D02*
X70967600Y-124663200D01*
X70967600Y-124663200D02*
X70967600Y-108000800D01*
X66243200Y-75641200D02*
X68021200Y-77419200D01*
X68021200Y-77419200D02*
X68021200Y-82245200D01*
X70358000Y-90220800D02*
X71475600Y-91338400D01*
X71475600Y-91338400D02*
X74777600Y-91338400D01*
X74777600Y-91338400D02*
X76301600Y-92862400D01*
X76301600Y-92862400D02*
X76301600Y-98958400D01*
X68021200Y-87884000D02*
X70358000Y-90220800D01*
X95046800Y-100330000D02*
X95656400Y-100939600D01*
X95656400Y-100939600D02*
X95656400Y-104343200D01*
X95656400Y-104343200D02*
X95605600Y-104394000D01*
X103835200Y-104140000D02*
X103784400Y-104190800D01*
X103784400Y-104190800D02*
X103784400Y-112928400D01*
X37846000Y-120650000D02*
X39471600Y-120650000D01*
X71577200Y-100228400D02*
X71577200Y-100279200D01*
X68021200Y-82245200D02*
X68021200Y-87884000D01*
X71577200Y-100279200D02*
X71526400Y-100279200D01*
X65786000Y-75641200D02*
X66243200Y-75641200D01*
X93675200Y-100330000D02*
X95046800Y-100330000D01*
%TO.N,A12*%
X95148400Y-91389200D02*
X95910400Y-90627200D01*
X95910400Y-90627200D02*
X100990400Y-90627200D01*
X100990400Y-90627200D02*
X104698800Y-86918800D01*
X104698800Y-86918800D02*
X104698800Y-78892400D01*
X64008000Y-91541600D02*
X64008000Y-120548400D01*
X64058800Y-120548400D02*
X64008000Y-120548400D01*
%TO.N,A13*%
X96113600Y-92710000D02*
X97383600Y-93980000D01*
X97383600Y-93980000D02*
X100431600Y-93980000D01*
X68478400Y-122682000D02*
X66548000Y-124612400D01*
X66548000Y-124612400D02*
X48412400Y-124612400D01*
X68478400Y-95351600D02*
X68478400Y-122682000D01*
X68478400Y-95199200D02*
X71069200Y-92608400D01*
X100533200Y-93980000D02*
X101447600Y-93065600D01*
X110413800Y-87706200D02*
X113131600Y-84988400D01*
X108204000Y-89916000D02*
X108153200Y-89916000D01*
X46837600Y-123037600D02*
X48412400Y-124612400D01*
X46837600Y-116890800D02*
X46837600Y-123037600D01*
X48158400Y-115570000D02*
X53086000Y-115570000D01*
X100431600Y-93980000D02*
X100533200Y-93980000D01*
X110413800Y-87706200D02*
X108204000Y-89916000D01*
X68478400Y-95351600D02*
X68478400Y-95199200D01*
X93675200Y-92710000D02*
X96113600Y-92710000D01*
X46837600Y-116890800D02*
X48158400Y-115570000D01*
X72999600Y-92608400D02*
X71069200Y-92608400D01*
%TO.N,A14*%
X49682400Y-86410800D02*
X49479200Y-86614000D01*
X46990000Y-111963200D02*
X47040800Y-111912400D01*
X47040800Y-111912400D02*
X47040800Y-94488000D01*
X47040800Y-89052400D02*
X49682400Y-86410800D01*
X100228400Y-90170000D02*
X103124000Y-87274400D01*
X113030000Y-87528400D02*
X115824000Y-84734400D01*
X115824000Y-84734400D02*
X115824000Y-84683600D01*
X47040800Y-94488000D02*
X47040800Y-89052400D01*
X93675200Y-90170000D02*
X100228400Y-90170000D01*
%TO.N,A15*%
X117652800Y-105562400D02*
X117449600Y-105359200D01*
X117449600Y-105359200D02*
X117449600Y-91389200D01*
X117449600Y-91389200D02*
X118668800Y-90170000D01*
X118668800Y-90170000D02*
X120142000Y-90170000D01*
X62179200Y-107391200D02*
X62026800Y-107543600D01*
X62026800Y-107543600D02*
X62026800Y-113385600D01*
%TO.N,D7*%
X96012000Y-110490000D02*
X97282000Y-111760000D01*
X97282000Y-111760000D02*
X101092000Y-111760000D01*
X103174800Y-114198400D02*
X103174800Y-115773200D01*
X103174800Y-113842800D02*
X101092000Y-111760000D01*
X103174800Y-114198400D02*
X103174800Y-113842800D01*
X93675200Y-110490000D02*
X95046800Y-110490000D01*
X95046800Y-110490000D02*
X96012000Y-110490000D01*
%TO.N,D6*%
X61214000Y-111658400D02*
X61214000Y-106527600D01*
%TO.N,D5*%
X111760000Y-114198400D02*
X111861600Y-114096800D01*
X111861600Y-114096800D02*
X111861600Y-110896400D01*
X111861600Y-110896400D02*
X112268000Y-110490000D01*
X112268000Y-110490000D02*
X114503200Y-110490000D01*
X63042800Y-115468400D02*
X62941200Y-115366800D01*
X62941200Y-115366800D02*
X62941200Y-102768400D01*
%TO.N,D4*%
X110947200Y-116840000D02*
X110998000Y-116789200D01*
X110998000Y-116789200D02*
X110998000Y-109220000D01*
X110998000Y-109220000D02*
X112268000Y-107950000D01*
X112268000Y-107950000D02*
X114503200Y-107950000D01*
X59791600Y-115976400D02*
X59893200Y-116128800D01*
X59791600Y-98958400D02*
X59791600Y-115976400D01*
%TO.N,D3*%
X65938400Y-97688400D02*
X65887600Y-97739200D01*
X65887600Y-97739200D02*
X65887600Y-120599200D01*
X107035600Y-105714800D02*
X106934000Y-105816400D01*
X106934000Y-105816400D02*
X106934000Y-110896400D01*
X106934000Y-110896400D02*
X106934000Y-119430800D01*
%TO.N,D2*%
X102717600Y-122478800D02*
X102743000Y-122453400D01*
X105714800Y-119481600D02*
X105714800Y-109982000D01*
X64719200Y-95300800D02*
X64922400Y-95859600D01*
X64922400Y-95859600D02*
X64922400Y-119380000D01*
X105867200Y-103530400D02*
X105714800Y-103682800D01*
X105714800Y-103682800D02*
X105714800Y-109982000D01*
X102743000Y-122453400D02*
X105714800Y-119481600D01*
X86969600Y-119735600D02*
X86969600Y-118110000D01*
X86969600Y-120700800D02*
X89154000Y-122885200D01*
X89154000Y-122885200D02*
X90220800Y-122885200D01*
X90220800Y-122885200D02*
X102311200Y-122885200D01*
X102743000Y-122453400D02*
X102311200Y-122885200D01*
X86969600Y-119735600D02*
X86969600Y-120700800D01*
%TO.N,D1*%
X101752400Y-122021600D02*
X104597200Y-119176800D01*
X50444400Y-92710000D02*
X49022000Y-94132400D01*
X49022000Y-94132400D02*
X49022000Y-112623600D01*
X48971200Y-114300000D02*
X49022000Y-114249200D01*
X49022000Y-114249200D02*
X49022000Y-112623600D01*
X90728800Y-122021600D02*
X101752400Y-122021600D01*
X90525600Y-122021600D02*
X88239600Y-119735600D01*
X88239600Y-119735600D02*
X88239600Y-115671600D01*
X104648000Y-102565200D02*
X104597200Y-102616000D01*
X104597200Y-102616000D02*
X104597200Y-108508800D01*
X106730800Y-100380800D02*
X106680000Y-100330000D01*
X90728800Y-122021600D02*
X90525600Y-122021600D01*
X104597200Y-119176800D02*
X104597200Y-108508800D01*
X104648000Y-102565200D02*
X106730800Y-100380800D01*
X53086000Y-92710000D02*
X50444400Y-92710000D01*
%TO.N,D0*%
X50749200Y-90170000D02*
X48006000Y-92913200D01*
X48006000Y-92913200D02*
X48006000Y-111353600D01*
X90982800Y-114300000D02*
X90678000Y-113995200D01*
X90678000Y-113995200D02*
X90678000Y-108864400D01*
X91287600Y-99161600D02*
X90678000Y-99771200D01*
X90678000Y-99771200D02*
X90678000Y-108864400D01*
X53086000Y-90170000D02*
X50749200Y-90170000D01*
%TO.N,R/~{W}*%
X64719200Y-65481200D02*
X63957200Y-66243200D01*
X63957200Y-66243200D02*
X63957200Y-67513200D01*
X63957200Y-67513200D02*
X61772800Y-69697600D01*
X61772800Y-69697600D02*
X61772800Y-83007200D01*
X96012000Y-84785200D02*
X96875600Y-83921600D01*
X96875600Y-83921600D02*
X99364800Y-83921600D01*
X63042800Y-84277200D02*
X63500000Y-84734400D01*
X111048800Y-120650000D02*
X108610400Y-118211600D01*
X108610400Y-118211600D02*
X108610400Y-92964000D01*
X108559600Y-82651600D02*
X107340400Y-83870800D01*
X107340400Y-83870800D02*
X107340400Y-91694000D01*
X107340400Y-91694000D02*
X108610400Y-92964000D01*
X68732400Y-90220800D02*
X63500000Y-84988400D01*
X63500000Y-84988400D02*
X63500000Y-84734400D01*
X109575600Y-82651600D02*
X108559600Y-82651600D01*
X65786000Y-65481200D02*
X64719200Y-65481200D01*
X114503200Y-120650000D02*
X111048800Y-120650000D01*
X63042800Y-84277200D02*
X61772800Y-83007200D01*
%TO.N,Phi2*%
X110540800Y-118110000D02*
X109931200Y-117500400D01*
X109931200Y-117500400D02*
X109931200Y-97739200D01*
X109931200Y-97739200D02*
X111861600Y-95808800D01*
X111861600Y-95808800D02*
X111861600Y-90525600D01*
X111861600Y-90525600D02*
X116890800Y-85496400D01*
X116890800Y-85496400D02*
X116890800Y-83870800D01*
X116890800Y-83870800D02*
X116332000Y-83312000D01*
X116332000Y-83312000D02*
X114554000Y-83312000D01*
X114554000Y-83312000D02*
X111353600Y-80111600D01*
X111353600Y-80111600D02*
X109575600Y-80111600D01*
X114503200Y-118110000D02*
X110540800Y-118110000D01*
%TO.N,~{READ}*%
X103936800Y-101396800D02*
X106273600Y-99060000D01*
X103936800Y-101600000D02*
X103936800Y-101396800D01*
X106629200Y-85191600D02*
X106273600Y-85547200D01*
X106273600Y-85547200D02*
X106273600Y-99060000D01*
%TO.N,BAUDCLK*%
X101193600Y-97790000D02*
X102539800Y-96443800D01*
X105714800Y-87477600D02*
X105714800Y-73710800D01*
X102539800Y-91922600D02*
X105714800Y-88747600D01*
X105714800Y-88747600D02*
X105714800Y-87477600D01*
X99263200Y-97790000D02*
X99263200Y-100330000D01*
X102539800Y-91948000D02*
X102539800Y-91922600D01*
X102539800Y-96443800D02*
X102539800Y-91948000D01*
X99263200Y-97790000D02*
X101193600Y-97790000D01*
%TO.N,CS_ACIA*%
X66395600Y-73101200D02*
X68884800Y-75590400D01*
X68884800Y-75590400D02*
X68884800Y-81788000D01*
X72847200Y-85750400D02*
X72948800Y-85750400D01*
X96316800Y-95199200D02*
X96418400Y-95300800D01*
X96418400Y-95300800D02*
X96418400Y-109169200D01*
X96418400Y-109169200D02*
X97739200Y-110490000D01*
X97739200Y-110490000D02*
X99263200Y-110490000D01*
X68986400Y-81788000D02*
X72948800Y-85750400D01*
X65786000Y-73101200D02*
X66395600Y-73101200D01*
X68884800Y-81788000D02*
X68986400Y-81788000D01*
%TO.N,Net-(U11-Pad2)*%
X65786000Y-84124800D02*
X65786000Y-84074000D01*
X65786000Y-84074000D02*
X65786000Y-78181200D01*
X118262400Y-96520000D02*
X118211600Y-96570800D01*
X118211600Y-96570800D02*
X118211600Y-104800400D01*
X118211600Y-104800400D02*
X119227600Y-105816400D01*
X119227600Y-105816400D02*
X119888000Y-105816400D01*
%TO.N,Fxxx*%
X122428000Y-108356400D02*
X123850400Y-106934000D01*
X123850400Y-106934000D02*
X123850400Y-94437200D01*
X123850400Y-94437200D02*
X122123200Y-92710000D01*
X122123200Y-92710000D02*
X120142000Y-92710000D01*
X68732400Y-70561200D02*
X69646800Y-71475600D01*
X69646800Y-71475600D02*
X69646800Y-79095600D01*
X91846400Y-79502000D02*
X97028000Y-79502000D01*
X97028000Y-79502000D02*
X100177600Y-76352400D01*
X100177600Y-76352400D02*
X103276400Y-76352400D01*
X103276400Y-76352400D02*
X103784400Y-76860400D01*
X103784400Y-76860400D02*
X103784400Y-86258400D01*
X70307200Y-79502000D02*
X91846400Y-79502000D01*
X70104000Y-79502000D02*
X69646800Y-79044800D01*
X69646800Y-79044800D02*
X69646800Y-79095600D01*
X70307200Y-79502000D02*
X70104000Y-79502000D01*
X119888000Y-108356400D02*
X122428000Y-108356400D01*
X65786000Y-70561200D02*
X68732400Y-70561200D01*
X69646800Y-79095600D02*
X69646800Y-79095600D01*
%TO.N,Net-(U10-Pad4)*%
X64871600Y-68021200D02*
X63246000Y-69646800D01*
X63246000Y-69646800D02*
X63246000Y-82397600D01*
X65786000Y-68021200D02*
X64871600Y-68021200D01*
%TO.N,Bxxx*%
X100228400Y-72491600D02*
X98856800Y-71120000D01*
X98856800Y-71120000D02*
X98856800Y-69596000D01*
X130149600Y-75336400D02*
X130302000Y-75488800D01*
X130302000Y-75488800D02*
X130302000Y-86055200D01*
X130302000Y-86055200D02*
X128727200Y-87630000D01*
X128727200Y-87630000D02*
X127762000Y-87630000D01*
X98856800Y-69443600D02*
X100279200Y-68021200D01*
X100279200Y-68021200D02*
X110693200Y-68021200D01*
X101955600Y-72491600D02*
X100228400Y-72491600D01*
X98856800Y-69596000D02*
X98856800Y-69443600D01*
%TO.N,Axxx*%
X126441200Y-85090000D02*
X127762000Y-85090000D01*
X125831600Y-84480400D02*
X126441200Y-85090000D01*
X104140000Y-69951600D02*
X104038400Y-69951600D01*
X105460800Y-71272400D02*
X104140000Y-69951600D01*
X110591600Y-71272400D02*
X115265200Y-75946000D01*
X105460800Y-71272400D02*
X110591600Y-71272400D01*
X101955600Y-69951600D02*
X104038400Y-69951600D01*
X125831600Y-84480400D02*
X125831600Y-79756000D01*
%TO.N,Net-(U10-Pad3)*%
X123139200Y-115976400D02*
X124968000Y-114147600D01*
X124968000Y-114147600D02*
X124968000Y-102311200D01*
X124968000Y-102311200D02*
X131216400Y-96062800D01*
X131216400Y-96062800D02*
X131216400Y-73558400D01*
X131216400Y-73558400D02*
X129641600Y-71983600D01*
X118872000Y-71628000D02*
X116687600Y-73812400D01*
X116687600Y-73812400D02*
X116687600Y-76708000D01*
X116687600Y-76708000D02*
X115874800Y-77520800D01*
X115874800Y-77520800D02*
X112826800Y-77520800D01*
X112826800Y-77520800D02*
X111658400Y-76352400D01*
X111658400Y-76352400D02*
X108153200Y-76352400D01*
X108153200Y-76352400D02*
X106781600Y-74980800D01*
X106781600Y-74980800D02*
X106781600Y-73101200D01*
X106781600Y-73101200D02*
X105968800Y-72288400D01*
X105968800Y-72288400D02*
X105003600Y-72288400D01*
X105003600Y-72288400D02*
X104241600Y-73050400D01*
X104241600Y-73050400D02*
X104241600Y-74117200D01*
X104241600Y-74117200D02*
X103327200Y-75031600D01*
X103327200Y-75031600D02*
X101955600Y-75031600D01*
X119888000Y-115976400D02*
X123139200Y-115976400D01*
D31*
%TO.N,Net-(CON1-Pad1)*%
X54660800Y-39014400D02*
X59740800Y-39014400D01*
X66240660Y-47754540D02*
X64820800Y-47754540D01*
X68900520Y-38014120D02*
X69900800Y-39014400D01*
X69900800Y-44094400D02*
X66240660Y-47754540D01*
X59740800Y-39014400D02*
X60741080Y-38014120D01*
X60741080Y-38014120D02*
X68900520Y-38014120D01*
X69900800Y-39014400D02*
X69900800Y-44094400D01*
D30*
%TO.N,TTL_Rx*%
X112877600Y-44145200D02*
X119430800Y-50698400D01*
X119430800Y-50698400D02*
X119430800Y-60350400D01*
X114401600Y-85191600D02*
X114401600Y-85090000D01*
X125984000Y-62484000D02*
X124358400Y-62484000D01*
X128447800Y-64947800D02*
X125984000Y-62484000D01*
X128447800Y-73685400D02*
X128270000Y-73863200D01*
X110210600Y-89382600D02*
X114401600Y-85191600D01*
X110210600Y-94818200D02*
X109829600Y-95199200D01*
X124968000Y-77165200D02*
X125526800Y-76606400D01*
X125526800Y-76606400D02*
X128270000Y-73863200D01*
X124968000Y-81178400D02*
X124968000Y-77165200D01*
X110210600Y-89382600D02*
X110210600Y-94818200D01*
X112877600Y-43434000D02*
X112877600Y-44145200D01*
X128447800Y-64947800D02*
X128447800Y-73685400D01*
%TO.N,TTL_Tx*%
X115417600Y-43688000D02*
X120599200Y-48869600D01*
X120599200Y-48869600D02*
X120599200Y-63093600D01*
X120599200Y-63093600D02*
X122504200Y-64998600D01*
X122529600Y-65024000D02*
X124358400Y-65024000D01*
X127304800Y-66040000D02*
X126288800Y-65024000D01*
X124358400Y-65024000D02*
X126288800Y-65024000D01*
X127304800Y-72390000D02*
X127304800Y-66040000D01*
X127304800Y-72694800D02*
X123799600Y-76200000D01*
X123799600Y-76200000D02*
X123799600Y-78079600D01*
X122504200Y-64998600D02*
X122529600Y-65024000D01*
X116586000Y-98094800D02*
X116586000Y-90881200D01*
X116586000Y-90881200D02*
X118618000Y-88849200D01*
X118618000Y-88849200D02*
X121818400Y-88849200D01*
X121818400Y-88849200D02*
X123799600Y-86868000D01*
X123799600Y-86868000D02*
X123799600Y-84480400D01*
X102971600Y-105410000D02*
X103073200Y-105308400D01*
X103073200Y-105308400D02*
X103073200Y-99364800D01*
X116586000Y-99060000D02*
X116586000Y-98094800D01*
X123799600Y-78079600D02*
X123799600Y-84480400D01*
X115417600Y-43434000D02*
X115417600Y-43688000D01*
X127304800Y-72390000D02*
X127304800Y-72694800D01*
%TO.N,RESET*%
X52070000Y-72390000D02*
X43332400Y-64211200D01*
X43332400Y-64211200D02*
X43332400Y-55067200D01*
X53086000Y-72390000D02*
X52070000Y-72390000D01*
%TO.N,~{WRITE}*%
X75031600Y-89814400D02*
X75234800Y-89611200D01*
X75234800Y-89611200D02*
X75234800Y-84480400D01*
X75234800Y-84480400D02*
X79705200Y-80010000D01*
X79705200Y-80010000D02*
X84124800Y-80010000D01*
X84124800Y-80010000D02*
X84683600Y-80568800D01*
X84683600Y-80568800D02*
X84683600Y-81788000D01*
X84683600Y-81788000D02*
X85394800Y-82499200D01*
X85394800Y-82499200D02*
X86410800Y-82499200D01*
X86410800Y-82499200D02*
X92862400Y-88950800D01*
X92862400Y-88950800D02*
X95859600Y-88950800D01*
X95859600Y-88950800D02*
X100279200Y-84531200D01*
X100279200Y-84531200D02*
X100279200Y-83515200D01*
X100279200Y-83515200D02*
X101142800Y-82651600D01*
X101142800Y-82651600D02*
X101955600Y-82651600D01*
%TD*%
M02*
